%TF.GenerationSoftware,KiCad,Pcbnew,8.0.1*%
%TF.CreationDate,2024-04-06T07:23:05-07:00*%
%TF.ProjectId,kiss_sdr_r2,6b697373-5f73-4647-925f-72322e6b6963,rev?*%
%TF.SameCoordinates,Original*%
%TF.FileFunction,Paste,Top*%
%TF.FilePolarity,Positive*%
%FSLAX46Y46*%
G04 Gerber Fmt 4.6, Leading zero omitted, Abs format (unit mm)*
G04 Created by KiCad (PCBNEW 8.0.1) date 2024-04-06 07:23:05*
%MOMM*%
%LPD*%
G01*
G04 APERTURE LIST*
G04 Aperture macros list*
%AMRoundRect*
0 Rectangle with rounded corners*
0 $1 Rounding radius*
0 $2 $3 $4 $5 $6 $7 $8 $9 X,Y pos of 4 corners*
0 Add a 4 corners polygon primitive as box body*
4,1,4,$2,$3,$4,$5,$6,$7,$8,$9,$2,$3,0*
0 Add four circle primitives for the rounded corners*
1,1,$1+$1,$2,$3*
1,1,$1+$1,$4,$5*
1,1,$1+$1,$6,$7*
1,1,$1+$1,$8,$9*
0 Add four rect primitives between the rounded corners*
20,1,$1+$1,$2,$3,$4,$5,0*
20,1,$1+$1,$4,$5,$6,$7,0*
20,1,$1+$1,$6,$7,$8,$9,0*
20,1,$1+$1,$8,$9,$2,$3,0*%
G04 Aperture macros list end*
%ADD10RoundRect,0.250000X-0.350000X-0.450000X0.350000X-0.450000X0.350000X0.450000X-0.350000X0.450000X0*%
%ADD11R,3.600000X1.270000*%
%ADD12R,4.200000X1.350000*%
%ADD13RoundRect,0.150000X-0.512500X-0.150000X0.512500X-0.150000X0.512500X0.150000X-0.512500X0.150000X0*%
%ADD14RoundRect,0.150000X-0.825000X-0.150000X0.825000X-0.150000X0.825000X0.150000X-0.825000X0.150000X0*%
%ADD15RoundRect,0.250000X-0.450000X0.350000X-0.450000X-0.350000X0.450000X-0.350000X0.450000X0.350000X0*%
%ADD16RoundRect,0.250000X0.475000X-0.337500X0.475000X0.337500X-0.475000X0.337500X-0.475000X-0.337500X0*%
%ADD17RoundRect,0.375000X0.375000X-0.625000X0.375000X0.625000X-0.375000X0.625000X-0.375000X-0.625000X0*%
%ADD18RoundRect,0.500000X1.400000X-0.500000X1.400000X0.500000X-1.400000X0.500000X-1.400000X-0.500000X0*%
%ADD19RoundRect,0.250000X0.350000X0.450000X-0.350000X0.450000X-0.350000X-0.450000X0.350000X-0.450000X0*%
%ADD20RoundRect,0.150000X-0.837500X-0.150000X0.837500X-0.150000X0.837500X0.150000X-0.837500X0.150000X0*%
%ADD21RoundRect,0.250000X-0.337500X-0.475000X0.337500X-0.475000X0.337500X0.475000X-0.337500X0.475000X0*%
%ADD22R,1.520000X1.270000*%
%ADD23RoundRect,0.250000X-0.475000X0.337500X-0.475000X-0.337500X0.475000X-0.337500X0.475000X0.337500X0*%
%ADD24RoundRect,0.250000X0.450000X-0.350000X0.450000X0.350000X-0.450000X0.350000X-0.450000X-0.350000X0*%
%ADD25RoundRect,0.250000X0.337500X0.475000X-0.337500X0.475000X-0.337500X-0.475000X0.337500X-0.475000X0*%
%ADD26RoundRect,0.250000X-0.700000X0.362500X-0.700000X-0.362500X0.700000X-0.362500X0.700000X0.362500X0*%
%ADD27RoundRect,0.150000X0.150000X-0.587500X0.150000X0.587500X-0.150000X0.587500X-0.150000X-0.587500X0*%
%ADD28RoundRect,0.150000X-0.725000X-0.150000X0.725000X-0.150000X0.725000X0.150000X-0.725000X0.150000X0*%
%ADD29RoundRect,0.250000X0.700000X-0.362500X0.700000X0.362500X-0.700000X0.362500X-0.700000X-0.362500X0*%
%ADD30RoundRect,0.250001X-0.462499X-0.624999X0.462499X-0.624999X0.462499X0.624999X-0.462499X0.624999X0*%
%ADD31R,2.200000X2.800000*%
%ADD32R,2.800000X2.800000*%
%ADD33RoundRect,0.250001X0.462499X0.624999X-0.462499X0.624999X-0.462499X-0.624999X0.462499X-0.624999X0*%
%ADD34RoundRect,0.150000X-0.587500X-0.150000X0.587500X-0.150000X0.587500X0.150000X-0.587500X0.150000X0*%
G04 APERTURE END LIST*
D10*
%TO.C,R18*%
X146776800Y-87825000D03*
X148776800Y-87825000D03*
%TD*%
D11*
%TO.C,J2*%
X84076800Y-87825000D03*
D12*
X84276800Y-85000000D03*
X84276800Y-90650000D03*
%TD*%
D13*
%TO.C,U2*%
X132151800Y-113250000D03*
X132151800Y-114200000D03*
X132151800Y-115150000D03*
X134426800Y-115150000D03*
X134426800Y-113250000D03*
%TD*%
D14*
%TO.C,U4*%
X151576800Y-81765000D03*
X151576800Y-83035000D03*
X151576800Y-84305000D03*
X151576800Y-85575000D03*
X156526800Y-85575000D03*
X156526800Y-84305000D03*
X156526800Y-83035000D03*
X156526800Y-81765000D03*
%TD*%
D15*
%TO.C,R2*%
X173776800Y-105075000D03*
X173776800Y-107075000D03*
%TD*%
D10*
%TO.C,R5*%
X127646700Y-112666300D03*
X129646700Y-112666300D03*
%TD*%
D16*
%TO.C,C16*%
X128326800Y-87612500D03*
X128326800Y-85537500D03*
%TD*%
D10*
%TO.C,R25*%
X167526800Y-79575000D03*
X169526800Y-79575000D03*
%TD*%
D16*
%TO.C,C18*%
X130576800Y-87612500D03*
X130576800Y-85537500D03*
%TD*%
%TO.C,C14*%
X134000500Y-110652800D03*
X134000500Y-108577800D03*
%TD*%
D10*
%TO.C,R1*%
X123602800Y-114916300D03*
X125602800Y-114916300D03*
%TD*%
%TO.C,R12*%
X154776800Y-79825000D03*
X156776800Y-79825000D03*
%TD*%
D16*
%TO.C,C23*%
X141276800Y-91612500D03*
X141276800Y-89537500D03*
%TD*%
D17*
%TO.C,U1*%
X163726800Y-103725000D03*
X166026800Y-103725000D03*
D18*
X166026800Y-97425000D03*
D17*
X168326800Y-103725000D03*
%TD*%
D19*
%TO.C,R14*%
X129826800Y-82825000D03*
X127826800Y-82825000D03*
%TD*%
D20*
%TO.C,U3*%
X137636200Y-107182700D03*
X137636200Y-108452700D03*
X137636200Y-109722700D03*
X137636200Y-110992700D03*
X137636200Y-112262700D03*
X137636200Y-113532700D03*
X137636200Y-114802700D03*
X144561200Y-114802700D03*
X144561200Y-113532700D03*
X144561200Y-112262700D03*
X144561200Y-110992700D03*
X144561200Y-109722700D03*
X144561200Y-108452700D03*
X144561200Y-107182700D03*
%TD*%
D10*
%TO.C,R20*%
X155026800Y-87575000D03*
X157026800Y-87575000D03*
%TD*%
%TO.C,R21*%
X155026800Y-89575000D03*
X157026800Y-89575000D03*
%TD*%
D21*
%TO.C,C11*%
X158739300Y-79825000D03*
X160814300Y-79825000D03*
%TD*%
D19*
%TO.C,R13*%
X125826800Y-82825000D03*
X123826800Y-82825000D03*
%TD*%
D10*
%TO.C,R4*%
X127646700Y-110549800D03*
X129646700Y-110549800D03*
%TD*%
D22*
%TO.C,TR1*%
X119376800Y-85785000D03*
X119376800Y-88325000D03*
X119376800Y-90865000D03*
X125311800Y-90865000D03*
X125276800Y-88325000D03*
X125311800Y-85785000D03*
%TD*%
D10*
%TO.C,R3*%
X171276800Y-98325000D03*
X173276800Y-98325000D03*
%TD*%
D23*
%TO.C,C4*%
X95776800Y-83737500D03*
X95776800Y-85812500D03*
%TD*%
D24*
%TO.C,R23*%
X149026800Y-83825000D03*
X149026800Y-81825000D03*
%TD*%
%TO.C,R22*%
X159026800Y-85075000D03*
X159026800Y-83075000D03*
%TD*%
D23*
%TO.C,C21*%
X141276800Y-81787500D03*
X141276800Y-83862500D03*
%TD*%
D16*
%TO.C,C25*%
X161276800Y-85112500D03*
X161276800Y-83037500D03*
%TD*%
D21*
%TO.C,C1*%
X127565300Y-114916300D03*
X129640300Y-114916300D03*
%TD*%
D19*
%TO.C,R6*%
X169776800Y-109075000D03*
X167776800Y-109075000D03*
%TD*%
D25*
%TO.C,C17*%
X148814300Y-78575000D03*
X146739300Y-78575000D03*
%TD*%
D26*
%TO.C,L4*%
X107776800Y-83250000D03*
X107776800Y-86575000D03*
%TD*%
%TO.C,L3*%
X101026800Y-83250000D03*
X101026800Y-86575000D03*
%TD*%
D10*
%TO.C,R19*%
X146776800Y-85825000D03*
X148776800Y-85825000D03*
%TD*%
D25*
%TO.C,C15*%
X152814300Y-78825000D03*
X150739300Y-78825000D03*
%TD*%
D24*
%TO.C,R8*%
X108276800Y-91325000D03*
X108276800Y-89325000D03*
%TD*%
%TO.C,R11*%
X142526800Y-104575000D03*
X142526800Y-102575000D03*
%TD*%
D25*
%TO.C,C12*%
X112964300Y-94212500D03*
X110889300Y-94212500D03*
%TD*%
D16*
%TO.C,C26*%
X146776800Y-83862500D03*
X146776800Y-81787500D03*
%TD*%
D19*
%TO.C,R9*%
X112926800Y-92212500D03*
X110926800Y-92212500D03*
%TD*%
D25*
%TO.C,C5*%
X129684200Y-108299800D03*
X127609200Y-108299800D03*
%TD*%
D27*
%TO.C,D1*%
X88326800Y-91700000D03*
X90226800Y-91700000D03*
X89276800Y-89825000D03*
%TD*%
D15*
%TO.C,R17*%
X168276800Y-112825000D03*
X168276800Y-114825000D03*
%TD*%
D16*
%TO.C,C10*%
X112776800Y-85950000D03*
X112776800Y-83875000D03*
%TD*%
%TO.C,C24*%
X143526800Y-91612500D03*
X143526800Y-89537500D03*
%TD*%
D21*
%TO.C,C3*%
X169239300Y-106575000D03*
X171314300Y-106575000D03*
%TD*%
D28*
%TO.C,U5*%
X133804300Y-81685000D03*
X133804300Y-82955000D03*
X133804300Y-84225000D03*
X133804300Y-85495000D03*
X133804300Y-86765000D03*
X133804300Y-88035000D03*
X133804300Y-89305000D03*
X133804300Y-90575000D03*
X138954300Y-90575000D03*
X138954300Y-89305000D03*
X138954300Y-88035000D03*
X138954300Y-86765000D03*
X138954300Y-85495000D03*
X138954300Y-84225000D03*
X138954300Y-82955000D03*
X138954300Y-81685000D03*
%TD*%
D29*
%TO.C,L1*%
X93376800Y-86437500D03*
X93376800Y-83112500D03*
%TD*%
D30*
%TO.C,FB2*%
X136039300Y-78575000D03*
X139014300Y-78575000D03*
%TD*%
D25*
%TO.C,C7*%
X165564300Y-106575000D03*
X163489300Y-106575000D03*
%TD*%
D10*
%TO.C,R24*%
X173526800Y-79575000D03*
X175526800Y-79575000D03*
%TD*%
D31*
%TO.C,J4*%
X174876800Y-93525000D03*
X176876800Y-86125000D03*
D32*
X167476800Y-86125000D03*
%TD*%
D15*
%TO.C,R16*%
X171526800Y-112825000D03*
X171526800Y-114825000D03*
%TD*%
D23*
%TO.C,C2*%
X88276800Y-85537500D03*
X88276800Y-87612500D03*
%TD*%
D33*
%TO.C,FB1*%
X127014300Y-80075000D03*
X124039300Y-80075000D03*
%TD*%
D21*
%TO.C,C27*%
X173489300Y-81825000D03*
X175564300Y-81825000D03*
%TD*%
D24*
%TO.C,R10*%
X140276800Y-104575000D03*
X140276800Y-102575000D03*
%TD*%
D15*
%TO.C,R15*%
X174776800Y-112825000D03*
X174776800Y-114825000D03*
%TD*%
D23*
%TO.C,C22*%
X143526800Y-81787500D03*
X143526800Y-83862500D03*
%TD*%
D25*
%TO.C,C28*%
X169564300Y-81825000D03*
X167489300Y-81825000D03*
%TD*%
D33*
%TO.C,D2*%
X176014300Y-109075000D03*
X173039300Y-109075000D03*
%TD*%
D25*
%TO.C,C20*%
X131064300Y-80075000D03*
X128989300Y-80075000D03*
%TD*%
D21*
%TO.C,C8*%
X103339300Y-87325000D03*
X105414300Y-87325000D03*
%TD*%
D25*
%TO.C,C19*%
X143064300Y-78575000D03*
X140989300Y-78575000D03*
%TD*%
D29*
%TO.C,L2*%
X98276800Y-86650000D03*
X98276800Y-83325000D03*
%TD*%
D15*
%TO.C,R7*%
X115426800Y-83962500D03*
X115426800Y-85962500D03*
%TD*%
D23*
%TO.C,C6*%
X103976800Y-83087500D03*
X103976800Y-85162500D03*
%TD*%
D34*
%TO.C,Q3*%
X171651800Y-101125000D03*
X171651800Y-103025000D03*
X173526800Y-102075000D03*
%TD*%
D16*
%TO.C,C9*%
X110276800Y-85950000D03*
X110276800Y-83875000D03*
%TD*%
D25*
%TO.C,C13*%
X121864300Y-82825000D03*
X119789300Y-82825000D03*
%TD*%
D34*
%TO.C,Q2*%
X110901800Y-88462500D03*
X110901800Y-90362500D03*
X112776800Y-89412500D03*
%TD*%
M02*
