%TF.GenerationSoftware,KiCad,Pcbnew,8.0.1*%
%TF.CreationDate,2024-04-06T07:23:05-07:00*%
%TF.ProjectId,kiss_sdr_r2,6b697373-5f73-4647-925f-72322e6b6963,rev?*%
%TF.SameCoordinates,Original*%
%TF.FileFunction,Copper,L2,Bot*%
%TF.FilePolarity,Positive*%
%FSLAX46Y46*%
G04 Gerber Fmt 4.6, Leading zero omitted, Abs format (unit mm)*
G04 Created by KiCad (PCBNEW 8.0.1) date 2024-04-06 07:23:05*
%MOMM*%
%LPD*%
G01*
G04 APERTURE LIST*
%TA.AperFunction,SMDPad,CuDef*%
%ADD10R,4.200000X1.350000*%
%TD*%
%TA.AperFunction,ComponentPad*%
%ADD11C,2.000000*%
%TD*%
%TA.AperFunction,ComponentPad*%
%ADD12C,1.524000*%
%TD*%
%TA.AperFunction,ComponentPad*%
%ADD13C,4.000000*%
%TD*%
%TA.AperFunction,ComponentPad*%
%ADD14R,1.700000X1.700000*%
%TD*%
%TA.AperFunction,ComponentPad*%
%ADD15O,1.700000X1.700000*%
%TD*%
%TA.AperFunction,ComponentPad*%
%ADD16C,4.500000*%
%TD*%
%TA.AperFunction,ViaPad*%
%ADD17C,0.800000*%
%TD*%
%TA.AperFunction,Conductor*%
%ADD18C,0.250000*%
%TD*%
G04 APERTURE END LIST*
D10*
%TO.P,J2,2,Ext*%
%TO.N,GND*%
X84276800Y-85000000D03*
X84276800Y-90650000D03*
%TD*%
D11*
%TO.P,sig4,1,1*%
%TO.N,GND*%
X117526800Y-118825000D03*
%TD*%
%TO.P,CLK1,1,1*%
%TO.N,Net-(U3A-C)*%
X134276800Y-117825000D03*
%TD*%
%TO.P,sig2,1,1*%
%TO.N,Net-(C4-Pad1)*%
X95526800Y-80325000D03*
%TD*%
D12*
%TO.P,U6,1,CLK0*%
%TO.N,Net-(U6-CLK0)*%
X173856800Y-119325000D03*
%TO.P,U6,2,CLK1*%
%TO.N,Net-(U6-CLK1)*%
X171316800Y-119325000D03*
%TO.P,U6,3,CLK2*%
%TO.N,Net-(U6-CLK2)*%
X168776800Y-119325000D03*
%TO.P,U6,4,SCL*%
%TO.N,/SCL*%
X166236800Y-119325000D03*
%TO.P,U6,5,SDA*%
%TO.N,/SDA*%
X163696800Y-119325000D03*
%TO.P,U6,6,GND*%
%TO.N,GND*%
X161156800Y-119325000D03*
%TO.P,U6,7,VIN*%
%TO.N,+5V*%
X158616800Y-119325000D03*
D13*
%TO.P,U6,10*%
%TO.N,N/C*%
X178682800Y-119325000D03*
%TO.P,U6,11*%
X154044800Y-119325000D03*
%TD*%
D14*
%TO.P,J1,1,Pin_1*%
%TO.N,GND*%
X179276800Y-105575000D03*
D15*
%TO.P,J1,2,Pin_2*%
%TO.N,Net-(J1-Pin_2)*%
X179276800Y-103035000D03*
%TO.P,J1,3,Pin_3*%
%TO.N,/SCL*%
X179276800Y-100495000D03*
%TO.P,J1,4,Pin_4*%
%TO.N,/SDA*%
X179276800Y-97955000D03*
%TD*%
D11*
%TO.P,sig3,1,1*%
%TO.N,GND*%
X117276800Y-114325000D03*
%TD*%
%TO.P,GND2,1,1*%
%TO.N,GND*%
X111026800Y-120325000D03*
%TD*%
%TO.P,GND3,1,1*%
%TO.N,GND*%
X98026800Y-119075000D03*
%TD*%
D16*
%TO.P,H2,1,1*%
%TO.N,GND*%
X84672400Y-79221200D03*
%TD*%
D11*
%TO.P,+5V1,1,1*%
%TO.N,+5V*%
X159276800Y-112325000D03*
%TD*%
%TO.P,Q_CLK1,1,1*%
%TO.N,Net-(U3B-Q)*%
X144586600Y-118075000D03*
%TD*%
D16*
%TO.P,H3,1,1*%
%TO.N,GND*%
X179026800Y-79575000D03*
%TD*%
%TO.P,H4,1,1*%
%TO.N,GND*%
X84776800Y-119075000D03*
%TD*%
D11*
%TO.P,GND1,1,1*%
%TO.N,GND*%
X104062600Y-119939800D03*
%TD*%
%TO.P,sig5,1,1*%
%TO.N,Net-(C10-Pad2)*%
X105276800Y-79325000D03*
%TD*%
%TO.P,sig1,1,1*%
%TO.N,Net-(J2-In)*%
X84526800Y-94075000D03*
%TD*%
%TO.P,I_CLK1,1,1*%
%TO.N,Net-(U3A-~{Q})*%
X140776800Y-118075000D03*
%TD*%
D17*
%TO.N,GND*%
X126026800Y-112575000D03*
X179026800Y-113075000D03*
X154526800Y-78075000D03*
X130901800Y-116200000D03*
X149026800Y-120075000D03*
X154026800Y-83575000D03*
X175526800Y-107075000D03*
X131776800Y-109075000D03*
X165026800Y-116075000D03*
X105376800Y-84725000D03*
X161276800Y-121075000D03*
X153026800Y-80325000D03*
X122276800Y-87325000D03*
X145026800Y-78825000D03*
X112526800Y-79575000D03*
X171526800Y-79325000D03*
X125776800Y-119575000D03*
X151276800Y-89075000D03*
X156276800Y-99325000D03*
X111526800Y-87325000D03*
X137276800Y-80325000D03*
X178026800Y-90075000D03*
X121526800Y-94825000D03*
X153526800Y-100075000D03*
X165276800Y-78825000D03*
X176776800Y-101575000D03*
X165776800Y-81075000D03*
X90526800Y-88075000D03*
X94273600Y-96671000D03*
X174276800Y-110825000D03*
X141276800Y-99075000D03*
X170526800Y-91575000D03*
X131276800Y-82825000D03*
X150776800Y-93075000D03*
X131899600Y-104842500D03*
X147276800Y-94575000D03*
X126526800Y-105075000D03*
X87695000Y-99033200D03*
X157026800Y-77575000D03*
X99276800Y-89325000D03*
X164026800Y-101075000D03*
X176026800Y-110825000D03*
X180526800Y-84075000D03*
X171026800Y-104325000D03*
X122276800Y-90325000D03*
X148776800Y-80325000D03*
X95975400Y-97560000D03*
X172776800Y-117575000D03*
X106526800Y-90575000D03*
X175776800Y-97575000D03*
X130526800Y-91825000D03*
X131776800Y-117575000D03*
X110276800Y-82325000D03*
X107176800Y-84962500D03*
X150776800Y-80325000D03*
X169276800Y-101075000D03*
X137026800Y-82075000D03*
X127026800Y-87575000D03*
X116526800Y-88325000D03*
X133776800Y-77325000D03*
X114926800Y-78962500D03*
X156276800Y-96825000D03*
X143026800Y-116575000D03*
X167526800Y-106575000D03*
X102576800Y-84725000D03*
X102026800Y-78825000D03*
X91526800Y-84575000D03*
X106976800Y-88125000D03*
X121776800Y-81075000D03*
X137526800Y-117825000D03*
X160026800Y-92075000D03*
X161276800Y-117325000D03*
X163776800Y-110575000D03*
X170526800Y-117325000D03*
X176026800Y-77575000D03*
X116276800Y-92575000D03*
X159526800Y-106575000D03*
X162276800Y-81325000D03*
%TO.N,+5V*%
X163526800Y-80325000D03*
X141776800Y-93825000D03*
X132526800Y-78575000D03*
X142776800Y-107075000D03*
X164276800Y-82575000D03*
%TO.N,Net-(U3A-C)*%
X139151800Y-109700000D03*
X135901800Y-113700000D03*
%TO.N,Net-(U5-1B3)*%
X141026800Y-86825000D03*
X141276800Y-85075000D03*
%TO.N,Net-(U3A-~{Q})*%
X141411600Y-115107500D03*
X147026800Y-113825000D03*
%TO.N,/CLK_RX_Q*%
X137276800Y-93325000D03*
X137369900Y-84292400D03*
%TO.N,/CLK_RX_I*%
X136252300Y-83149400D03*
X136276800Y-92325000D03*
%TO.N,Net-(U5-1B4)*%
X145026800Y-87325000D03*
X150776800Y-87325000D03*
%TO.N,Net-(U5-1B2)*%
X144789453Y-86062347D03*
X142776800Y-88075000D03*
%TO.N,Net-(U3A-D)*%
X140401800Y-110700000D03*
X140268600Y-108909900D03*
%TO.N,Net-(U3A-Q)*%
X139582800Y-112211900D03*
X142757800Y-109697300D03*
%TO.N,Net-(C26-Pad2)*%
X164026800Y-78075000D03*
X153776800Y-81825000D03*
%TO.N,Net-(C27-Pad2)*%
X170026800Y-86075000D03*
X173026800Y-85825000D03*
%TD*%
D18*
%TO.N,+5V*%
X135276800Y-94075000D02*
X132276800Y-91075000D01*
X141776800Y-93825000D02*
X141526800Y-94075000D01*
X163526800Y-81825000D02*
X164276800Y-82575000D01*
X148026800Y-112325000D02*
X159276800Y-112325000D01*
X158616800Y-112985000D02*
X159276800Y-112325000D01*
X142776800Y-107075000D02*
X148026800Y-112325000D01*
X141526800Y-94075000D02*
X135276800Y-94075000D01*
X158616800Y-119325000D02*
X158616800Y-112985000D01*
X163526800Y-80325000D02*
X163526800Y-81825000D01*
X132276800Y-91075000D02*
X132276800Y-78575000D01*
%TO.N,Net-(U3A-C)*%
X135901800Y-113700000D02*
X139151800Y-110450000D01*
X139151800Y-110450000D02*
X139151800Y-109700000D01*
%TO.N,Net-(U5-1B3)*%
X141026800Y-86825000D02*
X141026800Y-85325000D01*
X141026800Y-85325000D02*
X141276800Y-85075000D01*
%TO.N,Net-(U3A-~{Q})*%
X141411600Y-115107500D02*
X142694100Y-113825000D01*
X141504100Y-115200000D02*
X141411600Y-115107500D01*
X142694100Y-113825000D02*
X147026800Y-113825000D01*
%TO.N,/CLK_RX_Q*%
X137369900Y-84292400D02*
X137369900Y-93231900D01*
X137369900Y-93231900D02*
X137276800Y-93325000D01*
%TO.N,/CLK_RX_I*%
X136353900Y-92325000D02*
X136353900Y-82920800D01*
%TO.N,Net-(U5-1B4)*%
X145026800Y-87325000D02*
X150776800Y-87325000D01*
%TO.N,Net-(U5-1B2)*%
X142776800Y-88075000D02*
X144789453Y-86062347D01*
%TO.N,Net-(U3A-D)*%
X140401800Y-109043100D02*
X140268600Y-108909900D01*
X140401800Y-110700000D02*
X140401800Y-109043100D01*
%TO.N,Net-(U3A-Q)*%
X139582800Y-112211900D02*
X140243200Y-112211900D01*
X140243200Y-112211900D02*
X142757800Y-109697300D01*
%TO.N,Net-(C26-Pad2)*%
X160276800Y-81825000D02*
X164026800Y-78075000D01*
X153776800Y-81825000D02*
X160276800Y-81825000D01*
%TO.N,/SCL*%
X166236800Y-119325000D02*
X166236800Y-113535000D01*
X166236800Y-113535000D02*
X179276800Y-100495000D01*
%TO.N,/SDA*%
X163696800Y-119325000D02*
X163696800Y-113535000D01*
X163696800Y-113535000D02*
X179276800Y-97955000D01*
%TO.N,Net-(C27-Pad2)*%
X170026800Y-86075000D02*
X172776800Y-86075000D01*
X172776800Y-86075000D02*
X173026800Y-85825000D01*
%TD*%
%TA.AperFunction,Conductor*%
%TO.N,GND*%
G36*
X177833995Y-100396221D02*
G01*
X177889928Y-100438093D01*
X177914237Y-100502163D01*
X177932235Y-100719364D01*
X177960261Y-100830037D01*
X177957636Y-100899857D01*
X177927736Y-100948158D01*
X168830055Y-110045841D01*
X165832967Y-113042929D01*
X165804427Y-113071469D01*
X165744727Y-113131168D01*
X165675403Y-113234918D01*
X165675398Y-113234927D01*
X165627645Y-113350214D01*
X165627643Y-113350222D01*
X165603300Y-113472601D01*
X165603300Y-118153037D01*
X165583615Y-118220076D01*
X165550424Y-118254612D01*
X165417014Y-118348026D01*
X165259823Y-118505217D01*
X165132314Y-118687319D01*
X165132312Y-118687323D01*
X165079182Y-118801261D01*
X165033009Y-118853700D01*
X164965816Y-118872852D01*
X164898935Y-118852636D01*
X164854418Y-118801261D01*
X164814748Y-118716189D01*
X164801288Y-118687324D01*
X164801285Y-118687320D01*
X164801285Y-118687319D01*
X164673778Y-118505220D01*
X164608358Y-118439800D01*
X164516581Y-118348023D01*
X164437422Y-118292595D01*
X164383176Y-118254611D01*
X164339551Y-118200034D01*
X164330300Y-118153037D01*
X164330300Y-113848765D01*
X164349985Y-113781726D01*
X164366614Y-113761089D01*
X177702982Y-100424720D01*
X177764303Y-100391237D01*
X177833995Y-100396221D01*
G37*
%TD.AperFunction*%
%TA.AperFunction,Conductor*%
G36*
X177969195Y-76825185D02*
G01*
X178014950Y-76877989D01*
X178024894Y-76947147D01*
X177995869Y-77010703D01*
X177953047Y-77042576D01*
X177746480Y-77135543D01*
X177746478Y-77135545D01*
X177461768Y-77307657D01*
X177266215Y-77460862D01*
X178265082Y-78459729D01*
X178147334Y-78545278D01*
X177997078Y-78695534D01*
X177911529Y-78813282D01*
X176912662Y-77814415D01*
X176759457Y-78009968D01*
X176587345Y-78294678D01*
X176587343Y-78294680D01*
X176450805Y-78598056D01*
X176450799Y-78598071D01*
X176351832Y-78915670D01*
X176291860Y-79242923D01*
X176271774Y-79575000D01*
X176291860Y-79907076D01*
X176351832Y-80234329D01*
X176450799Y-80551928D01*
X176450805Y-80551943D01*
X176587343Y-80855319D01*
X176587345Y-80855321D01*
X176759457Y-81140031D01*
X176759462Y-81140039D01*
X176912662Y-81335583D01*
X177911528Y-80336717D01*
X177997078Y-80454466D01*
X178147334Y-80604722D01*
X178265081Y-80690270D01*
X177266215Y-81689136D01*
X177266215Y-81689137D01*
X177461760Y-81842337D01*
X177461768Y-81842342D01*
X177746478Y-82014454D01*
X177746480Y-82014456D01*
X178049856Y-82150994D01*
X178049871Y-82151000D01*
X178367470Y-82249967D01*
X178694723Y-82309939D01*
X179026800Y-82330025D01*
X179358876Y-82309939D01*
X179686129Y-82249967D01*
X180003728Y-82151000D01*
X180003743Y-82150994D01*
X180307119Y-82014456D01*
X180307121Y-82014454D01*
X180591830Y-81842343D01*
X180787383Y-81689137D01*
X180787383Y-81689136D01*
X179788517Y-80690270D01*
X179906266Y-80604722D01*
X180056522Y-80454466D01*
X180142070Y-80336717D01*
X181140936Y-81335583D01*
X181140937Y-81335583D01*
X181294143Y-81140030D01*
X181466254Y-80855321D01*
X181466256Y-80855319D01*
X181602794Y-80551943D01*
X181602800Y-80551928D01*
X181663915Y-80355803D01*
X181702652Y-80297655D01*
X181766677Y-80269681D01*
X181835663Y-80280763D01*
X181887706Y-80327381D01*
X181906300Y-80392693D01*
X181906300Y-122000500D01*
X181886615Y-122067539D01*
X181833811Y-122113294D01*
X181782300Y-122124500D01*
X82050500Y-122124500D01*
X81983461Y-122104815D01*
X81937706Y-122052011D01*
X81926500Y-122000500D01*
X81926500Y-119986400D01*
X81946185Y-119919361D01*
X81998989Y-119873606D01*
X82068147Y-119863662D01*
X82131703Y-119892687D01*
X82168885Y-119949510D01*
X82200799Y-120051928D01*
X82200805Y-120051943D01*
X82337343Y-120355319D01*
X82337345Y-120355321D01*
X82509457Y-120640031D01*
X82509462Y-120640039D01*
X82662662Y-120835583D01*
X83661528Y-119836717D01*
X83747078Y-119954466D01*
X83897334Y-120104722D01*
X84015081Y-120190270D01*
X83016215Y-121189136D01*
X83016215Y-121189137D01*
X83211760Y-121342337D01*
X83211768Y-121342342D01*
X83496478Y-121514454D01*
X83496480Y-121514456D01*
X83799856Y-121650994D01*
X83799871Y-121651000D01*
X84117470Y-121749967D01*
X84444723Y-121809939D01*
X84776800Y-121830025D01*
X85108876Y-121809939D01*
X85436129Y-121749967D01*
X85753728Y-121651000D01*
X85753743Y-121650994D01*
X86057119Y-121514456D01*
X86057121Y-121514454D01*
X86341830Y-121342343D01*
X86537383Y-121189137D01*
X86537383Y-121189136D01*
X85538517Y-120190270D01*
X85656266Y-120104722D01*
X85806522Y-119954466D01*
X85892070Y-119836717D01*
X86890936Y-120835583D01*
X86890937Y-120835583D01*
X87044143Y-120640030D01*
X87216254Y-120355321D01*
X87216256Y-120355319D01*
X87352794Y-120051943D01*
X87352800Y-120051928D01*
X87451767Y-119734329D01*
X87511739Y-119407076D01*
X87531825Y-119075005D01*
X96521659Y-119075005D01*
X96542185Y-119322729D01*
X96542187Y-119322738D01*
X96603212Y-119563717D01*
X96703066Y-119791364D01*
X96803364Y-119944882D01*
X97543837Y-119204409D01*
X97560875Y-119267993D01*
X97626701Y-119382007D01*
X97719793Y-119475099D01*
X97833807Y-119540925D01*
X97897390Y-119557962D01*
X97156742Y-120298609D01*
X97203568Y-120335055D01*
X97203570Y-120335056D01*
X97422185Y-120453364D01*
X97422196Y-120453369D01*
X97657306Y-120534083D01*
X97902507Y-120575000D01*
X98151093Y-120575000D01*
X98396293Y-120534083D01*
X98631403Y-120453369D01*
X98631414Y-120453364D01*
X98850028Y-120335057D01*
X98850031Y-120335055D01*
X98896856Y-120298609D01*
X98156209Y-119557962D01*
X98219793Y-119540925D01*
X98333807Y-119475099D01*
X98426899Y-119382007D01*
X98492725Y-119267993D01*
X98509762Y-119204410D01*
X99250234Y-119944882D01*
X99253551Y-119939805D01*
X102557459Y-119939805D01*
X102577985Y-120187529D01*
X102577987Y-120187538D01*
X102639012Y-120428517D01*
X102738866Y-120656164D01*
X102839164Y-120809682D01*
X103579637Y-120069209D01*
X103596675Y-120132793D01*
X103662501Y-120246807D01*
X103755593Y-120339899D01*
X103869607Y-120405725D01*
X103933190Y-120422762D01*
X103192542Y-121163409D01*
X103239368Y-121199855D01*
X103239370Y-121199856D01*
X103457985Y-121318164D01*
X103457996Y-121318169D01*
X103693106Y-121398883D01*
X103938307Y-121439800D01*
X104186893Y-121439800D01*
X104432093Y-121398883D01*
X104667203Y-121318169D01*
X104667214Y-121318164D01*
X104885828Y-121199857D01*
X104885831Y-121199855D01*
X104932656Y-121163409D01*
X104192009Y-120422762D01*
X104255593Y-120405725D01*
X104369607Y-120339899D01*
X104462699Y-120246807D01*
X104528525Y-120132793D01*
X104545562Y-120069210D01*
X105286034Y-120809682D01*
X105386331Y-120656169D01*
X105486187Y-120428517D01*
X105512401Y-120325000D01*
X109521659Y-120325000D01*
X109542185Y-120572729D01*
X109542187Y-120572738D01*
X109603212Y-120813717D01*
X109703066Y-121041364D01*
X109803364Y-121194882D01*
X110543837Y-120454409D01*
X110560875Y-120517993D01*
X110626701Y-120632007D01*
X110719793Y-120725099D01*
X110833807Y-120790925D01*
X110897390Y-120807962D01*
X110156742Y-121548609D01*
X110203568Y-121585055D01*
X110203570Y-121585056D01*
X110422185Y-121703364D01*
X110422196Y-121703369D01*
X110657306Y-121784083D01*
X110902507Y-121825000D01*
X111151093Y-121825000D01*
X111396293Y-121784083D01*
X111631403Y-121703369D01*
X111631414Y-121703364D01*
X111850028Y-121585057D01*
X111850031Y-121585055D01*
X111896856Y-121548609D01*
X111156209Y-120807962D01*
X111219793Y-120790925D01*
X111333807Y-120725099D01*
X111426899Y-120632007D01*
X111492725Y-120517993D01*
X111509762Y-120454410D01*
X112250234Y-121194882D01*
X112350531Y-121041369D01*
X112450387Y-120813717D01*
X112511412Y-120572738D01*
X112511414Y-120572729D01*
X112531941Y-120325000D01*
X112531941Y-120324994D01*
X112511414Y-120077270D01*
X112511412Y-120077261D01*
X112450387Y-119836282D01*
X112350531Y-119608630D01*
X112250234Y-119455116D01*
X111509762Y-120195589D01*
X111492725Y-120132007D01*
X111426899Y-120017993D01*
X111333807Y-119924901D01*
X111219793Y-119859075D01*
X111156210Y-119842037D01*
X111896857Y-119101390D01*
X111896856Y-119101389D01*
X111850029Y-119064943D01*
X111631414Y-118946635D01*
X111631403Y-118946630D01*
X111396293Y-118865916D01*
X111151093Y-118825000D01*
X116021659Y-118825000D01*
X116042185Y-119072729D01*
X116042187Y-119072738D01*
X116103212Y-119313717D01*
X116203066Y-119541364D01*
X116303364Y-119694882D01*
X117043837Y-118954409D01*
X117060875Y-119017993D01*
X117126701Y-119132007D01*
X117219793Y-119225099D01*
X117333807Y-119290925D01*
X117397390Y-119307962D01*
X116656742Y-120048609D01*
X116703568Y-120085055D01*
X116703570Y-120085056D01*
X116922185Y-120203364D01*
X116922196Y-120203369D01*
X117157306Y-120284083D01*
X117402507Y-120325000D01*
X117651093Y-120325000D01*
X117896293Y-120284083D01*
X118131403Y-120203369D01*
X118131414Y-120203364D01*
X118350028Y-120085057D01*
X118350031Y-120085055D01*
X118396856Y-120048609D01*
X117656209Y-119307962D01*
X117719793Y-119290925D01*
X117833807Y-119225099D01*
X117926899Y-119132007D01*
X117992725Y-119017993D01*
X118009762Y-118954410D01*
X118750234Y-119694882D01*
X118850531Y-119541369D01*
X118950387Y-119313717D01*
X119011412Y-119072738D01*
X119011414Y-119072729D01*
X119031941Y-118825000D01*
X119031941Y-118824994D01*
X119011414Y-118577270D01*
X119011412Y-118577261D01*
X118950387Y-118336282D01*
X118850531Y-118108630D01*
X118750234Y-117955116D01*
X118009762Y-118695589D01*
X117992725Y-118632007D01*
X117926899Y-118517993D01*
X117833807Y-118424901D01*
X117719793Y-118359075D01*
X117656210Y-118342037D01*
X118173247Y-117825000D01*
X132763635Y-117825000D01*
X132782265Y-118061714D01*
X132837695Y-118292595D01*
X132837695Y-118292597D01*
X132928557Y-118511959D01*
X132928559Y-118511962D01*
X133052620Y-118714410D01*
X133052621Y-118714413D01*
X133052624Y-118714416D01*
X133206831Y-118894969D01*
X133340548Y-119009174D01*
X133387386Y-119049178D01*
X133387388Y-119049178D01*
X133429515Y-119074994D01*
X133589837Y-119173240D01*
X133589840Y-119173242D01*
X133809203Y-119264104D01*
X133809204Y-119264104D01*
X133809206Y-119264105D01*
X134040089Y-119319535D01*
X134276800Y-119338165D01*
X134513511Y-119319535D01*
X134744394Y-119264105D01*
X134744396Y-119264104D01*
X134744397Y-119264104D01*
X134963759Y-119173242D01*
X134963760Y-119173241D01*
X134963763Y-119173240D01*
X135166216Y-119049176D01*
X135346769Y-118894969D01*
X135500976Y-118714416D01*
X135625040Y-118511963D01*
X135627834Y-118505219D01*
X135715904Y-118292597D01*
X135715904Y-118292596D01*
X135715905Y-118292594D01*
X135768145Y-118075000D01*
X139263635Y-118075000D01*
X139282265Y-118311714D01*
X139337695Y-118542595D01*
X139337695Y-118542597D01*
X139428557Y-118761959D01*
X139428559Y-118761962D01*
X139552620Y-118964410D01*
X139552621Y-118964413D01*
X139552624Y-118964416D01*
X139706831Y-119144969D01*
X139800651Y-119225099D01*
X139887386Y-119299178D01*
X139887388Y-119299178D01*
X139929515Y-119324994D01*
X140089837Y-119423240D01*
X140089840Y-119423242D01*
X140309203Y-119514104D01*
X140309204Y-119514104D01*
X140309206Y-119514105D01*
X140540089Y-119569535D01*
X140776800Y-119588165D01*
X141013511Y-119569535D01*
X141244394Y-119514105D01*
X141244396Y-119514104D01*
X141244397Y-119514104D01*
X141463759Y-119423242D01*
X141463760Y-119423241D01*
X141463763Y-119423240D01*
X141666216Y-119299176D01*
X141846769Y-119144969D01*
X142000976Y-118964416D01*
X142125040Y-118761963D01*
X142126196Y-118759174D01*
X142215904Y-118542597D01*
X142215904Y-118542596D01*
X142215905Y-118542594D01*
X142271335Y-118311711D01*
X142289965Y-118075000D01*
X143073435Y-118075000D01*
X143092065Y-118311714D01*
X143147495Y-118542595D01*
X143147495Y-118542597D01*
X143238357Y-118761959D01*
X143238359Y-118761962D01*
X143362420Y-118964410D01*
X143362421Y-118964413D01*
X143362424Y-118964416D01*
X143516631Y-119144969D01*
X143610451Y-119225099D01*
X143697186Y-119299178D01*
X143697188Y-119299178D01*
X143739315Y-119324994D01*
X143899637Y-119423240D01*
X143899640Y-119423242D01*
X144119003Y-119514104D01*
X144119004Y-119514104D01*
X144119006Y-119514105D01*
X144349889Y-119569535D01*
X144586600Y-119588165D01*
X144823311Y-119569535D01*
X145054194Y-119514105D01*
X145054196Y-119514104D01*
X145054197Y-119514104D01*
X145273559Y-119423242D01*
X145273560Y-119423241D01*
X145273563Y-119423240D01*
X145433867Y-119325005D01*
X151531340Y-119325005D01*
X151551157Y-119640012D01*
X151563745Y-119706000D01*
X151610305Y-119950072D01*
X151614401Y-119962677D01*
X151707844Y-120250267D01*
X151707846Y-120250272D01*
X151842236Y-120535865D01*
X151842242Y-120535876D01*
X152011361Y-120802365D01*
X152011363Y-120802368D01*
X152011368Y-120802375D01*
X152209078Y-121041364D01*
X152212572Y-121045588D01*
X152442658Y-121261652D01*
X152442668Y-121261660D01*
X152698009Y-121447176D01*
X152698014Y-121447178D01*
X152698021Y-121447184D01*
X152974621Y-121599247D01*
X152974626Y-121599249D01*
X152974628Y-121599250D01*
X152974629Y-121599251D01*
X153268094Y-121715442D01*
X153268097Y-121715443D01*
X153535434Y-121784083D01*
X153573825Y-121793940D01*
X153639517Y-121802238D01*
X153886967Y-121833499D01*
X153886976Y-121833499D01*
X153886979Y-121833500D01*
X153886981Y-121833500D01*
X154202619Y-121833500D01*
X154202621Y-121833500D01*
X154202624Y-121833499D01*
X154202632Y-121833499D01*
X154389492Y-121809892D01*
X154515775Y-121793940D01*
X154821502Y-121715443D01*
X154821505Y-121715442D01*
X155114970Y-121599251D01*
X155114971Y-121599250D01*
X155114969Y-121599250D01*
X155114979Y-121599247D01*
X155391579Y-121447184D01*
X155646940Y-121261654D01*
X155877033Y-121045582D01*
X156078232Y-120802375D01*
X156247362Y-120535869D01*
X156381756Y-120250266D01*
X156479295Y-119950072D01*
X156538441Y-119640020D01*
X156539080Y-119629876D01*
X156558260Y-119325005D01*
X156558260Y-119324994D01*
X156538442Y-119009987D01*
X156529749Y-118964416D01*
X156479295Y-118699928D01*
X156381756Y-118399734D01*
X156366562Y-118367446D01*
X156285667Y-118195534D01*
X156247362Y-118114131D01*
X156237170Y-118098071D01*
X156078238Y-117847634D01*
X156078236Y-117847632D01*
X156078232Y-117847625D01*
X155877033Y-117604418D01*
X155877032Y-117604417D01*
X155877027Y-117604411D01*
X155646941Y-117388347D01*
X155646931Y-117388339D01*
X155391590Y-117202823D01*
X155391583Y-117202818D01*
X155391579Y-117202816D01*
X155114979Y-117050753D01*
X155114976Y-117050751D01*
X155114971Y-117050749D01*
X155114970Y-117050748D01*
X154821505Y-116934557D01*
X154821502Y-116934556D01*
X154515778Y-116856060D01*
X154515765Y-116856058D01*
X154202632Y-116816500D01*
X154202621Y-116816500D01*
X153886979Y-116816500D01*
X153886967Y-116816500D01*
X153573834Y-116856058D01*
X153573821Y-116856060D01*
X153268097Y-116934556D01*
X153268094Y-116934557D01*
X152974629Y-117050748D01*
X152974628Y-117050749D01*
X152698021Y-117202816D01*
X152698009Y-117202823D01*
X152442668Y-117388339D01*
X152442658Y-117388347D01*
X152212572Y-117604411D01*
X152085312Y-117758242D01*
X152019092Y-117838289D01*
X152011361Y-117847634D01*
X151842242Y-118114123D01*
X151842236Y-118114134D01*
X151707846Y-118399727D01*
X151707844Y-118399732D01*
X151650162Y-118577261D01*
X151610305Y-118699928D01*
X151586446Y-118825000D01*
X151551157Y-119009987D01*
X151531340Y-119324994D01*
X151531340Y-119325005D01*
X145433867Y-119325005D01*
X145476016Y-119299176D01*
X145656569Y-119144969D01*
X145810776Y-118964416D01*
X145934840Y-118761963D01*
X145935996Y-118759174D01*
X146025704Y-118542597D01*
X146025704Y-118542596D01*
X146025705Y-118542594D01*
X146081135Y-118311711D01*
X146099765Y-118075000D01*
X146081135Y-117838289D01*
X146025705Y-117607406D01*
X146025704Y-117607403D01*
X146025704Y-117607402D01*
X145934842Y-117388040D01*
X145934840Y-117388037D01*
X145810779Y-117185589D01*
X145810778Y-117185586D01*
X145775940Y-117144797D01*
X145656569Y-117005031D01*
X145482147Y-116856060D01*
X145476013Y-116850821D01*
X145476010Y-116850820D01*
X145273562Y-116726759D01*
X145273559Y-116726757D01*
X145054196Y-116635895D01*
X144823314Y-116580465D01*
X144586600Y-116561835D01*
X144349885Y-116580465D01*
X144119004Y-116635895D01*
X144119002Y-116635895D01*
X143899640Y-116726757D01*
X143899637Y-116726759D01*
X143697189Y-116850820D01*
X143697186Y-116850821D01*
X143516631Y-117005031D01*
X143362421Y-117185586D01*
X143362420Y-117185589D01*
X143238359Y-117388037D01*
X143238357Y-117388040D01*
X143147495Y-117607402D01*
X143147495Y-117607404D01*
X143092065Y-117838285D01*
X143073435Y-118075000D01*
X142289965Y-118075000D01*
X142271335Y-117838289D01*
X142215905Y-117607406D01*
X142215904Y-117607403D01*
X142215904Y-117607402D01*
X142125042Y-117388040D01*
X142125040Y-117388037D01*
X142000979Y-117185589D01*
X142000978Y-117185586D01*
X141966140Y-117144797D01*
X141846769Y-117005031D01*
X141672347Y-116856060D01*
X141666213Y-116850821D01*
X141666210Y-116850820D01*
X141463762Y-116726759D01*
X141463759Y-116726757D01*
X141244396Y-116635895D01*
X141013514Y-116580465D01*
X140776800Y-116561835D01*
X140540085Y-116580465D01*
X140309204Y-116635895D01*
X140309202Y-116635895D01*
X140089840Y-116726757D01*
X140089837Y-116726759D01*
X139887389Y-116850820D01*
X139887386Y-116850821D01*
X139706831Y-117005031D01*
X139552621Y-117185586D01*
X139552620Y-117185589D01*
X139428559Y-117388037D01*
X139428557Y-117388040D01*
X139337695Y-117607402D01*
X139337695Y-117607404D01*
X139282265Y-117838285D01*
X139263635Y-118075000D01*
X135768145Y-118075000D01*
X135771335Y-118061711D01*
X135789965Y-117825000D01*
X135771335Y-117588289D01*
X135715905Y-117357406D01*
X135715904Y-117357403D01*
X135715904Y-117357402D01*
X135625042Y-117138040D01*
X135625040Y-117138037D01*
X135500979Y-116935589D01*
X135500978Y-116935586D01*
X135428581Y-116850821D01*
X135346769Y-116755031D01*
X135206867Y-116635543D01*
X135166213Y-116600821D01*
X135166210Y-116600820D01*
X134963762Y-116476759D01*
X134963759Y-116476757D01*
X134744396Y-116385895D01*
X134513514Y-116330465D01*
X134276800Y-116311835D01*
X134040085Y-116330465D01*
X133809204Y-116385895D01*
X133809202Y-116385895D01*
X133589840Y-116476757D01*
X133589837Y-116476759D01*
X133387389Y-116600820D01*
X133387386Y-116600821D01*
X133206831Y-116755031D01*
X133052621Y-116935586D01*
X133052620Y-116935589D01*
X132928559Y-117138037D01*
X132928557Y-117138040D01*
X132837695Y-117357402D01*
X132837695Y-117357404D01*
X132782265Y-117588285D01*
X132763635Y-117825000D01*
X118173247Y-117825000D01*
X118396857Y-117601390D01*
X118396856Y-117601389D01*
X118350029Y-117564943D01*
X118131414Y-117446635D01*
X118131403Y-117446630D01*
X117896293Y-117365916D01*
X117651093Y-117325000D01*
X117402507Y-117325000D01*
X117157306Y-117365916D01*
X116922196Y-117446630D01*
X116922190Y-117446632D01*
X116703561Y-117564949D01*
X116656742Y-117601388D01*
X116656742Y-117601390D01*
X117397390Y-118342037D01*
X117333807Y-118359075D01*
X117219793Y-118424901D01*
X117126701Y-118517993D01*
X117060875Y-118632007D01*
X117043837Y-118695589D01*
X116303364Y-117955116D01*
X116203067Y-118108632D01*
X116103212Y-118336282D01*
X116042187Y-118577261D01*
X116042185Y-118577270D01*
X116021659Y-118824994D01*
X116021659Y-118825000D01*
X111151093Y-118825000D01*
X110902507Y-118825000D01*
X110657306Y-118865916D01*
X110422196Y-118946630D01*
X110422190Y-118946632D01*
X110203561Y-119064949D01*
X110156742Y-119101388D01*
X110156742Y-119101390D01*
X110897390Y-119842037D01*
X110833807Y-119859075D01*
X110719793Y-119924901D01*
X110626701Y-120017993D01*
X110560875Y-120132007D01*
X110543837Y-120195589D01*
X109803364Y-119455116D01*
X109703067Y-119608632D01*
X109603212Y-119836282D01*
X109542187Y-120077261D01*
X109542185Y-120077270D01*
X109521659Y-120324994D01*
X109521659Y-120325000D01*
X105512401Y-120325000D01*
X105547212Y-120187538D01*
X105547214Y-120187529D01*
X105567741Y-119939805D01*
X105567741Y-119939794D01*
X105547214Y-119692070D01*
X105547212Y-119692061D01*
X105486187Y-119451082D01*
X105386331Y-119223430D01*
X105286034Y-119069916D01*
X104545562Y-119810389D01*
X104528525Y-119746807D01*
X104462699Y-119632793D01*
X104369607Y-119539701D01*
X104255593Y-119473875D01*
X104192010Y-119456837D01*
X104932657Y-118716190D01*
X104932656Y-118716189D01*
X104885829Y-118679743D01*
X104667214Y-118561435D01*
X104667203Y-118561430D01*
X104432093Y-118480716D01*
X104186893Y-118439800D01*
X103938307Y-118439800D01*
X103693106Y-118480716D01*
X103457996Y-118561430D01*
X103457990Y-118561432D01*
X103239361Y-118679749D01*
X103192542Y-118716188D01*
X103192542Y-118716190D01*
X103933190Y-119456837D01*
X103869607Y-119473875D01*
X103755593Y-119539701D01*
X103662501Y-119632793D01*
X103596675Y-119746807D01*
X103579637Y-119810389D01*
X102839164Y-119069916D01*
X102738867Y-119223432D01*
X102639012Y-119451082D01*
X102577987Y-119692061D01*
X102577985Y-119692070D01*
X102557459Y-119939794D01*
X102557459Y-119939805D01*
X99253551Y-119939805D01*
X99350531Y-119791369D01*
X99450387Y-119563717D01*
X99511412Y-119322738D01*
X99511414Y-119322729D01*
X99531941Y-119075005D01*
X99531941Y-119074994D01*
X99511414Y-118827270D01*
X99511412Y-118827261D01*
X99450387Y-118586282D01*
X99350531Y-118358630D01*
X99250234Y-118205116D01*
X98509762Y-118945589D01*
X98492725Y-118882007D01*
X98426899Y-118767993D01*
X98333807Y-118674901D01*
X98219793Y-118609075D01*
X98156210Y-118592037D01*
X98896857Y-117851390D01*
X98896856Y-117851389D01*
X98850029Y-117814943D01*
X98631414Y-117696635D01*
X98631403Y-117696630D01*
X98396293Y-117615916D01*
X98151093Y-117575000D01*
X97902507Y-117575000D01*
X97657306Y-117615916D01*
X97422196Y-117696630D01*
X97422190Y-117696632D01*
X97203561Y-117814949D01*
X97156742Y-117851388D01*
X97156742Y-117851390D01*
X97897390Y-118592037D01*
X97833807Y-118609075D01*
X97719793Y-118674901D01*
X97626701Y-118767993D01*
X97560875Y-118882007D01*
X97543837Y-118945589D01*
X96803364Y-118205116D01*
X96703067Y-118358632D01*
X96603212Y-118586282D01*
X96542187Y-118827261D01*
X96542185Y-118827270D01*
X96521659Y-119074994D01*
X96521659Y-119075005D01*
X87531825Y-119075005D01*
X87531825Y-119075000D01*
X87511739Y-118742923D01*
X87451767Y-118415670D01*
X87352800Y-118098071D01*
X87352794Y-118098056D01*
X87216256Y-117794680D01*
X87216254Y-117794678D01*
X87044142Y-117509968D01*
X87044137Y-117509960D01*
X86890936Y-117314415D01*
X85892070Y-118313281D01*
X85806522Y-118195534D01*
X85656266Y-118045278D01*
X85538517Y-117959729D01*
X86537383Y-116960862D01*
X86537383Y-116960861D01*
X86341839Y-116807662D01*
X86341831Y-116807657D01*
X86057121Y-116635545D01*
X86057119Y-116635543D01*
X85753743Y-116499005D01*
X85753728Y-116498999D01*
X85436129Y-116400032D01*
X85108876Y-116340060D01*
X84776800Y-116319974D01*
X84444723Y-116340060D01*
X84117470Y-116400032D01*
X83799871Y-116498999D01*
X83799856Y-116499005D01*
X83496480Y-116635543D01*
X83496478Y-116635545D01*
X83211768Y-116807657D01*
X83016215Y-116960862D01*
X84015082Y-117959729D01*
X83897334Y-118045278D01*
X83747078Y-118195534D01*
X83661529Y-118313282D01*
X82662662Y-117314415D01*
X82509457Y-117509968D01*
X82337345Y-117794678D01*
X82337343Y-117794680D01*
X82200805Y-118098056D01*
X82200799Y-118098071D01*
X82168885Y-118200489D01*
X82130148Y-118258637D01*
X82066122Y-118286611D01*
X81997137Y-118275529D01*
X81945094Y-118228911D01*
X81926500Y-118163599D01*
X81926500Y-114325005D01*
X115771659Y-114325005D01*
X115792185Y-114572729D01*
X115792187Y-114572738D01*
X115853212Y-114813717D01*
X115953066Y-115041364D01*
X116053364Y-115194882D01*
X116793837Y-114454409D01*
X116810875Y-114517993D01*
X116876701Y-114632007D01*
X116969793Y-114725099D01*
X117083807Y-114790925D01*
X117147390Y-114807962D01*
X116406742Y-115548609D01*
X116453568Y-115585055D01*
X116453570Y-115585056D01*
X116672185Y-115703364D01*
X116672196Y-115703369D01*
X116907306Y-115784083D01*
X117152507Y-115825000D01*
X117401093Y-115825000D01*
X117646293Y-115784083D01*
X117881403Y-115703369D01*
X117881414Y-115703364D01*
X118100028Y-115585057D01*
X118100031Y-115585055D01*
X118146856Y-115548609D01*
X117406209Y-114807962D01*
X117469793Y-114790925D01*
X117583807Y-114725099D01*
X117676899Y-114632007D01*
X117742725Y-114517993D01*
X117759762Y-114454410D01*
X118500234Y-115194882D01*
X118557325Y-115107500D01*
X140498096Y-115107500D01*
X140518058Y-115297428D01*
X140518059Y-115297431D01*
X140577070Y-115479049D01*
X140577073Y-115479056D01*
X140672560Y-115644444D01*
X140800347Y-115786366D01*
X140954848Y-115898618D01*
X141129312Y-115976294D01*
X141316113Y-116016000D01*
X141507087Y-116016000D01*
X141693888Y-115976294D01*
X141868352Y-115898618D01*
X142022853Y-115786366D01*
X142150640Y-115644444D01*
X142246127Y-115479056D01*
X142305142Y-115297428D01*
X142322581Y-115131497D01*
X142349164Y-115066887D01*
X142358210Y-115056792D01*
X142920185Y-114494819D01*
X142981508Y-114461334D01*
X143007866Y-114458500D01*
X146319491Y-114458500D01*
X146386530Y-114478185D01*
X146411640Y-114499527D01*
X146415547Y-114503866D01*
X146570048Y-114616118D01*
X146744512Y-114693794D01*
X146931313Y-114733500D01*
X147122287Y-114733500D01*
X147309088Y-114693794D01*
X147483552Y-114616118D01*
X147638053Y-114503866D01*
X147765840Y-114361944D01*
X147861327Y-114196556D01*
X147920342Y-114014928D01*
X147940304Y-113825000D01*
X147920342Y-113635072D01*
X147861327Y-113453444D01*
X147765840Y-113288056D01*
X147638053Y-113146134D01*
X147483552Y-113033882D01*
X147309088Y-112956206D01*
X147309086Y-112956205D01*
X147122287Y-112916500D01*
X146931313Y-112916500D01*
X146744514Y-112956205D01*
X146695146Y-112978185D01*
X146598679Y-113021135D01*
X146570046Y-113033883D01*
X146415545Y-113146135D01*
X146411640Y-113150473D01*
X146352154Y-113187121D01*
X146319491Y-113191500D01*
X142631701Y-113191500D01*
X142509322Y-113215843D01*
X142509314Y-113215845D01*
X142394027Y-113263598D01*
X142394018Y-113263603D01*
X142290267Y-113332928D01*
X142290263Y-113332931D01*
X141460515Y-114162681D01*
X141399192Y-114196166D01*
X141372834Y-114199000D01*
X141316113Y-114199000D01*
X141129314Y-114238705D01*
X140954846Y-114316383D01*
X140800345Y-114428635D01*
X140672559Y-114570557D01*
X140577073Y-114735943D01*
X140577070Y-114735950D01*
X140518059Y-114917568D01*
X140518058Y-114917572D01*
X140498096Y-115107500D01*
X118557325Y-115107500D01*
X118600531Y-115041369D01*
X118700387Y-114813717D01*
X118761412Y-114572738D01*
X118761414Y-114572729D01*
X118781941Y-114325005D01*
X118781941Y-114324994D01*
X118761414Y-114077270D01*
X118761412Y-114077261D01*
X118700387Y-113836282D01*
X118640609Y-113700000D01*
X134988296Y-113700000D01*
X135008258Y-113889928D01*
X135008259Y-113889931D01*
X135067270Y-114071549D01*
X135067273Y-114071556D01*
X135162760Y-114236944D01*
X135265090Y-114350594D01*
X135275308Y-114361942D01*
X135290547Y-114378866D01*
X135445048Y-114491118D01*
X135619512Y-114568794D01*
X135806313Y-114608500D01*
X135997287Y-114608500D01*
X136184088Y-114568794D01*
X136358552Y-114491118D01*
X136513053Y-114378866D01*
X136640840Y-114236944D01*
X136736327Y-114071556D01*
X136795342Y-113889928D01*
X136812781Y-113723997D01*
X136839364Y-113659387D01*
X136848411Y-113649291D01*
X138466734Y-112030968D01*
X138528055Y-111997485D01*
X138597747Y-112002469D01*
X138653680Y-112044341D01*
X138678097Y-112109805D01*
X138677734Y-112131611D01*
X138669296Y-112211898D01*
X138669296Y-112211900D01*
X138689258Y-112401828D01*
X138689259Y-112401831D01*
X138748270Y-112583449D01*
X138748273Y-112583456D01*
X138843760Y-112748844D01*
X138971547Y-112890766D01*
X139126048Y-113003018D01*
X139300512Y-113080694D01*
X139487313Y-113120400D01*
X139678287Y-113120400D01*
X139865088Y-113080694D01*
X140039552Y-113003018D01*
X140194053Y-112890766D01*
X140197960Y-112886427D01*
X140257446Y-112849779D01*
X140290109Y-112845400D01*
X140305595Y-112845400D01*
X140305596Y-112845399D01*
X140427985Y-112821055D01*
X140543275Y-112773300D01*
X140647033Y-112703971D01*
X142708885Y-110642119D01*
X142770208Y-110608634D01*
X142796566Y-110605800D01*
X142853287Y-110605800D01*
X143040088Y-110566094D01*
X143214552Y-110488418D01*
X143369053Y-110376166D01*
X143496840Y-110234244D01*
X143592327Y-110068856D01*
X143651342Y-109887228D01*
X143671304Y-109697300D01*
X143651342Y-109507372D01*
X143592327Y-109325744D01*
X143496840Y-109160356D01*
X143369053Y-109018434D01*
X143214552Y-108906182D01*
X143040088Y-108828506D01*
X143040086Y-108828505D01*
X142853287Y-108788800D01*
X142662313Y-108788800D01*
X142475514Y-108828505D01*
X142301046Y-108906183D01*
X142146545Y-109018435D01*
X142018759Y-109160357D01*
X141923273Y-109325743D01*
X141923270Y-109325750D01*
X141864259Y-109507368D01*
X141864258Y-109507372D01*
X141846819Y-109673296D01*
X141820234Y-109737910D01*
X141811179Y-109748015D01*
X141348554Y-110210640D01*
X141287231Y-110244125D01*
X141217539Y-110239141D01*
X141161606Y-110197269D01*
X141153486Y-110184959D01*
X141140841Y-110163057D01*
X141140836Y-110163050D01*
X141067150Y-110081213D01*
X141036920Y-110018221D01*
X141035300Y-109998241D01*
X141035300Y-109432160D01*
X141051913Y-109370160D01*
X141103127Y-109281456D01*
X141162142Y-109099828D01*
X141182104Y-108909900D01*
X141162142Y-108719972D01*
X141103127Y-108538344D01*
X141007640Y-108372956D01*
X140879853Y-108231034D01*
X140725352Y-108118782D01*
X140550888Y-108041106D01*
X140550886Y-108041105D01*
X140364087Y-108001400D01*
X140173113Y-108001400D01*
X139986314Y-108041105D01*
X139811846Y-108118783D01*
X139657345Y-108231035D01*
X139529559Y-108372957D01*
X139434073Y-108538343D01*
X139434071Y-108538347D01*
X139379394Y-108706626D01*
X139339956Y-108764301D01*
X139275597Y-108791499D01*
X139248500Y-108791628D01*
X139247291Y-108791501D01*
X139247287Y-108791500D01*
X139056313Y-108791500D01*
X138869514Y-108831205D01*
X138869512Y-108831206D01*
X138701113Y-108906182D01*
X138695046Y-108908883D01*
X138540545Y-109021135D01*
X138412759Y-109163057D01*
X138317273Y-109328443D01*
X138317270Y-109328450D01*
X138259135Y-109507372D01*
X138258258Y-109510072D01*
X138238296Y-109700000D01*
X138258258Y-109889928D01*
X138258259Y-109889931D01*
X138317270Y-110071549D01*
X138317273Y-110071556D01*
X138382746Y-110184959D01*
X138385753Y-110190166D01*
X138402226Y-110258066D01*
X138379373Y-110324093D01*
X138366047Y-110339847D01*
X135950715Y-112755181D01*
X135889392Y-112788666D01*
X135863034Y-112791500D01*
X135806313Y-112791500D01*
X135619514Y-112831205D01*
X135577796Y-112849779D01*
X135485738Y-112890766D01*
X135445046Y-112908883D01*
X135290545Y-113021135D01*
X135162759Y-113163057D01*
X135067273Y-113328443D01*
X135067270Y-113328450D01*
X135008259Y-113510068D01*
X135008258Y-113510072D01*
X134988296Y-113700000D01*
X118640609Y-113700000D01*
X118600531Y-113608630D01*
X118500234Y-113455116D01*
X117759762Y-114195589D01*
X117742725Y-114132007D01*
X117676899Y-114017993D01*
X117583807Y-113924901D01*
X117469793Y-113859075D01*
X117406210Y-113842037D01*
X118146857Y-113101390D01*
X118146856Y-113101389D01*
X118100029Y-113064943D01*
X117881414Y-112946635D01*
X117881403Y-112946630D01*
X117646293Y-112865916D01*
X117401093Y-112825000D01*
X117152507Y-112825000D01*
X116907306Y-112865916D01*
X116672196Y-112946630D01*
X116672190Y-112946632D01*
X116453561Y-113064949D01*
X116406742Y-113101388D01*
X116406742Y-113101390D01*
X117147390Y-113842037D01*
X117083807Y-113859075D01*
X116969793Y-113924901D01*
X116876701Y-114017993D01*
X116810875Y-114132007D01*
X116793837Y-114195589D01*
X116053364Y-113455116D01*
X115953067Y-113608632D01*
X115853212Y-113836282D01*
X115792187Y-114077261D01*
X115792185Y-114077270D01*
X115771659Y-114324994D01*
X115771659Y-114325005D01*
X81926500Y-114325005D01*
X81926500Y-107075000D01*
X141863296Y-107075000D01*
X141883258Y-107264928D01*
X141883259Y-107264931D01*
X141942270Y-107446549D01*
X141942273Y-107446556D01*
X142037760Y-107611944D01*
X142165547Y-107753866D01*
X142320048Y-107866118D01*
X142494512Y-107943794D01*
X142681313Y-107983500D01*
X142738034Y-107983500D01*
X142805073Y-108003185D01*
X142825715Y-108019819D01*
X147622963Y-112817068D01*
X147622967Y-112817071D01*
X147726718Y-112886396D01*
X147726727Y-112886401D01*
X147737265Y-112890766D01*
X147842015Y-112934155D01*
X147952868Y-112956205D01*
X147964401Y-112958499D01*
X147964405Y-112958500D01*
X147964406Y-112958500D01*
X148089194Y-112958500D01*
X157826354Y-112958500D01*
X157893393Y-112978185D01*
X157932080Y-113017708D01*
X157947536Y-113042929D01*
X157961026Y-113064943D01*
X157965026Y-113071469D01*
X157983300Y-113136261D01*
X157983300Y-118153037D01*
X157963615Y-118220076D01*
X157930424Y-118254612D01*
X157797014Y-118348026D01*
X157639823Y-118505217D01*
X157512314Y-118687319D01*
X157512312Y-118687323D01*
X157418361Y-118888800D01*
X157360822Y-119103535D01*
X157360821Y-119103542D01*
X157341447Y-119324997D01*
X157341447Y-119325002D01*
X157360821Y-119546457D01*
X157360822Y-119546465D01*
X157418358Y-119761191D01*
X157418359Y-119761193D01*
X157418360Y-119761196D01*
X157432428Y-119791364D01*
X157512311Y-119962676D01*
X157512312Y-119962677D01*
X157639823Y-120144781D01*
X157797019Y-120301977D01*
X157979123Y-120429488D01*
X158180604Y-120523440D01*
X158395337Y-120580978D01*
X158553524Y-120594817D01*
X158616798Y-120600353D01*
X158616800Y-120600353D01*
X158616802Y-120600353D01*
X158672165Y-120595509D01*
X158838263Y-120580978D01*
X159052996Y-120523440D01*
X159254477Y-120429488D01*
X159436581Y-120301977D01*
X159593777Y-120144781D01*
X159721288Y-119962677D01*
X159779107Y-119838682D01*
X159825279Y-119786243D01*
X159892472Y-119767091D01*
X159959354Y-119787306D01*
X160003871Y-119838683D01*
X160059698Y-119958405D01*
X160059701Y-119958411D01*
X160105058Y-120023187D01*
X160105059Y-120023188D01*
X160775800Y-119352447D01*
X160775800Y-119375160D01*
X160801764Y-119472061D01*
X160851924Y-119558940D01*
X160922860Y-119629876D01*
X161009739Y-119680036D01*
X161106640Y-119706000D01*
X161129353Y-119706000D01*
X160458610Y-120376740D01*
X160523390Y-120422099D01*
X160523392Y-120422100D01*
X160723515Y-120515419D01*
X160723529Y-120515424D01*
X160936813Y-120572573D01*
X160936823Y-120572575D01*
X161156799Y-120591821D01*
X161156801Y-120591821D01*
X161376776Y-120572575D01*
X161376786Y-120572573D01*
X161590070Y-120515424D01*
X161590084Y-120515419D01*
X161790207Y-120422100D01*
X161790217Y-120422094D01*
X161854988Y-120376741D01*
X161184248Y-119706000D01*
X161206960Y-119706000D01*
X161303861Y-119680036D01*
X161390740Y-119629876D01*
X161461676Y-119558940D01*
X161511836Y-119472061D01*
X161537800Y-119375160D01*
X161537800Y-119352447D01*
X162208541Y-120023188D01*
X162253894Y-119958417D01*
X162253895Y-119958416D01*
X162309727Y-119838683D01*
X162355899Y-119786244D01*
X162423093Y-119767091D01*
X162489974Y-119787306D01*
X162534492Y-119838682D01*
X162592311Y-119962676D01*
X162592312Y-119962677D01*
X162719823Y-120144781D01*
X162877019Y-120301977D01*
X163059123Y-120429488D01*
X163260604Y-120523440D01*
X163475337Y-120580978D01*
X163633524Y-120594817D01*
X163696798Y-120600353D01*
X163696800Y-120600353D01*
X163696802Y-120600353D01*
X163752165Y-120595509D01*
X163918263Y-120580978D01*
X164132996Y-120523440D01*
X164334477Y-120429488D01*
X164516581Y-120301977D01*
X164673777Y-120144781D01*
X164801288Y-119962677D01*
X164854418Y-119848738D01*
X164900590Y-119796299D01*
X164967783Y-119777147D01*
X165034665Y-119797363D01*
X165079182Y-119848739D01*
X165130325Y-119958417D01*
X165132312Y-119962677D01*
X165259823Y-120144781D01*
X165417019Y-120301977D01*
X165599123Y-120429488D01*
X165800604Y-120523440D01*
X166015337Y-120580978D01*
X166173524Y-120594817D01*
X166236798Y-120600353D01*
X166236800Y-120600353D01*
X166236802Y-120600353D01*
X166292165Y-120595509D01*
X166458263Y-120580978D01*
X166672996Y-120523440D01*
X166874477Y-120429488D01*
X167056581Y-120301977D01*
X167213777Y-120144781D01*
X167341288Y-119962677D01*
X167394418Y-119848738D01*
X167440590Y-119796299D01*
X167507783Y-119777147D01*
X167574665Y-119797363D01*
X167619182Y-119848739D01*
X167670325Y-119958417D01*
X167672312Y-119962677D01*
X167799823Y-120144781D01*
X167957019Y-120301977D01*
X168139123Y-120429488D01*
X168340604Y-120523440D01*
X168555337Y-120580978D01*
X168713524Y-120594817D01*
X168776798Y-120600353D01*
X168776800Y-120600353D01*
X168776802Y-120600353D01*
X168832165Y-120595509D01*
X168998263Y-120580978D01*
X169212996Y-120523440D01*
X169414477Y-120429488D01*
X169596581Y-120301977D01*
X169753777Y-120144781D01*
X169881288Y-119962677D01*
X169934418Y-119848738D01*
X169980590Y-119796299D01*
X170047783Y-119777147D01*
X170114665Y-119797363D01*
X170159182Y-119848739D01*
X170210325Y-119958417D01*
X170212312Y-119962677D01*
X170339823Y-120144781D01*
X170497019Y-120301977D01*
X170679123Y-120429488D01*
X170880604Y-120523440D01*
X171095337Y-120580978D01*
X171253524Y-120594817D01*
X171316798Y-120600353D01*
X171316800Y-120600353D01*
X171316802Y-120600353D01*
X171372165Y-120595509D01*
X171538263Y-120580978D01*
X171752996Y-120523440D01*
X171954477Y-120429488D01*
X172136581Y-120301977D01*
X172293777Y-120144781D01*
X172421288Y-119962677D01*
X172474418Y-119848738D01*
X172520590Y-119796299D01*
X172587783Y-119777147D01*
X172654665Y-119797363D01*
X172699182Y-119848739D01*
X172750325Y-119958417D01*
X172752312Y-119962677D01*
X172879823Y-120144781D01*
X173037019Y-120301977D01*
X173219123Y-120429488D01*
X173420604Y-120523440D01*
X173635337Y-120580978D01*
X173793524Y-120594817D01*
X173856798Y-120600353D01*
X173856800Y-120600353D01*
X173856802Y-120600353D01*
X173912165Y-120595509D01*
X174078263Y-120580978D01*
X174292996Y-120523440D01*
X174494477Y-120429488D01*
X174676581Y-120301977D01*
X174833777Y-120144781D01*
X174961288Y-119962677D01*
X175055240Y-119761196D01*
X175112778Y-119546463D01*
X175132153Y-119325005D01*
X176169340Y-119325005D01*
X176189157Y-119640012D01*
X176201745Y-119706000D01*
X176248305Y-119950072D01*
X176252401Y-119962677D01*
X176345844Y-120250267D01*
X176345846Y-120250272D01*
X176480236Y-120535865D01*
X176480242Y-120535876D01*
X176649361Y-120802365D01*
X176649363Y-120802368D01*
X176649368Y-120802375D01*
X176847078Y-121041364D01*
X176850572Y-121045588D01*
X177080658Y-121261652D01*
X177080668Y-121261660D01*
X177336009Y-121447176D01*
X177336014Y-121447178D01*
X177336021Y-121447184D01*
X177612621Y-121599247D01*
X177612626Y-121599249D01*
X177612628Y-121599250D01*
X177612629Y-121599251D01*
X177906094Y-121715442D01*
X177906097Y-121715443D01*
X178173434Y-121784083D01*
X178211825Y-121793940D01*
X178277517Y-121802238D01*
X178524967Y-121833499D01*
X178524976Y-121833499D01*
X178524979Y-121833500D01*
X178524981Y-121833500D01*
X178840619Y-121833500D01*
X178840621Y-121833500D01*
X178840624Y-121833499D01*
X178840632Y-121833499D01*
X179027492Y-121809892D01*
X179153775Y-121793940D01*
X179459502Y-121715443D01*
X179459505Y-121715442D01*
X179752970Y-121599251D01*
X179752971Y-121599250D01*
X179752969Y-121599250D01*
X179752979Y-121599247D01*
X180029579Y-121447184D01*
X180284940Y-121261654D01*
X180515033Y-121045582D01*
X180716232Y-120802375D01*
X180885362Y-120535869D01*
X181019756Y-120250266D01*
X181117295Y-119950072D01*
X181176441Y-119640020D01*
X181177080Y-119629876D01*
X181196260Y-119325005D01*
X181196260Y-119324994D01*
X181176442Y-119009987D01*
X181167749Y-118964416D01*
X181117295Y-118699928D01*
X181019756Y-118399734D01*
X181004562Y-118367446D01*
X180923667Y-118195534D01*
X180885362Y-118114131D01*
X180875170Y-118098071D01*
X180716238Y-117847634D01*
X180716236Y-117847632D01*
X180716232Y-117847625D01*
X180515033Y-117604418D01*
X180515032Y-117604417D01*
X180515027Y-117604411D01*
X180284941Y-117388347D01*
X180284931Y-117388339D01*
X180029590Y-117202823D01*
X180029583Y-117202818D01*
X180029579Y-117202816D01*
X179752979Y-117050753D01*
X179752976Y-117050751D01*
X179752971Y-117050749D01*
X179752970Y-117050748D01*
X179459505Y-116934557D01*
X179459502Y-116934556D01*
X179153778Y-116856060D01*
X179153765Y-116856058D01*
X178840632Y-116816500D01*
X178840621Y-116816500D01*
X178524979Y-116816500D01*
X178524967Y-116816500D01*
X178211834Y-116856058D01*
X178211821Y-116856060D01*
X177906097Y-116934556D01*
X177906094Y-116934557D01*
X177612629Y-117050748D01*
X177612628Y-117050749D01*
X177336021Y-117202816D01*
X177336009Y-117202823D01*
X177080668Y-117388339D01*
X177080658Y-117388347D01*
X176850572Y-117604411D01*
X176723312Y-117758242D01*
X176657092Y-117838289D01*
X176649361Y-117847634D01*
X176480242Y-118114123D01*
X176480236Y-118114134D01*
X176345846Y-118399727D01*
X176345844Y-118399732D01*
X176288162Y-118577261D01*
X176248305Y-118699928D01*
X176224446Y-118825000D01*
X176189157Y-119009987D01*
X176169340Y-119324994D01*
X176169340Y-119325005D01*
X175132153Y-119325005D01*
X175132153Y-119325000D01*
X175132152Y-119324994D01*
X175123267Y-119223430D01*
X175112778Y-119103537D01*
X175055240Y-118888804D01*
X174961288Y-118687324D01*
X174961285Y-118687320D01*
X174961285Y-118687319D01*
X174833778Y-118505220D01*
X174768358Y-118439800D01*
X174676581Y-118348023D01*
X174505030Y-118227901D01*
X174494476Y-118220511D01*
X174393736Y-118173536D01*
X174292996Y-118126560D01*
X174292993Y-118126559D01*
X174292991Y-118126558D01*
X174078265Y-118069022D01*
X174078257Y-118069021D01*
X173856802Y-118049647D01*
X173856798Y-118049647D01*
X173635342Y-118069021D01*
X173635335Y-118069022D01*
X173420600Y-118126561D01*
X173219123Y-118220512D01*
X173219119Y-118220514D01*
X173037017Y-118348023D01*
X172879823Y-118505217D01*
X172752314Y-118687319D01*
X172752312Y-118687323D01*
X172699182Y-118801261D01*
X172653009Y-118853700D01*
X172585816Y-118872852D01*
X172518935Y-118852636D01*
X172474418Y-118801261D01*
X172434748Y-118716189D01*
X172421288Y-118687324D01*
X172421285Y-118687320D01*
X172421285Y-118687319D01*
X172293778Y-118505220D01*
X172228358Y-118439800D01*
X172136581Y-118348023D01*
X171965030Y-118227901D01*
X171954476Y-118220511D01*
X171853736Y-118173536D01*
X171752996Y-118126560D01*
X171752993Y-118126559D01*
X171752991Y-118126558D01*
X171538265Y-118069022D01*
X171538257Y-118069021D01*
X171316802Y-118049647D01*
X171316798Y-118049647D01*
X171095342Y-118069021D01*
X171095335Y-118069022D01*
X170880600Y-118126561D01*
X170679123Y-118220512D01*
X170679119Y-118220514D01*
X170497017Y-118348023D01*
X170339823Y-118505217D01*
X170212314Y-118687319D01*
X170212312Y-118687323D01*
X170159182Y-118801261D01*
X170113009Y-118853700D01*
X170045816Y-118872852D01*
X169978935Y-118852636D01*
X169934418Y-118801261D01*
X169894748Y-118716189D01*
X169881288Y-118687324D01*
X169881285Y-118687320D01*
X169881285Y-118687319D01*
X169753778Y-118505220D01*
X169688358Y-118439800D01*
X169596581Y-118348023D01*
X169425030Y-118227901D01*
X169414476Y-118220511D01*
X169313736Y-118173536D01*
X169212996Y-118126560D01*
X169212993Y-118126559D01*
X169212991Y-118126558D01*
X168998265Y-118069022D01*
X168998257Y-118069021D01*
X168776802Y-118049647D01*
X168776798Y-118049647D01*
X168555342Y-118069021D01*
X168555335Y-118069022D01*
X168340600Y-118126561D01*
X168139123Y-118220512D01*
X168139119Y-118220514D01*
X167957017Y-118348023D01*
X167799823Y-118505217D01*
X167672314Y-118687319D01*
X167672312Y-118687323D01*
X167619182Y-118801261D01*
X167573009Y-118853700D01*
X167505816Y-118872852D01*
X167438935Y-118852636D01*
X167394418Y-118801261D01*
X167354748Y-118716189D01*
X167341288Y-118687324D01*
X167341285Y-118687320D01*
X167341285Y-118687319D01*
X167213778Y-118505220D01*
X167148358Y-118439800D01*
X167056581Y-118348023D01*
X166977422Y-118292595D01*
X166923176Y-118254611D01*
X166879551Y-118200034D01*
X166870300Y-118153037D01*
X166870300Y-113848765D01*
X166889985Y-113781726D01*
X166906614Y-113761089D01*
X177702982Y-102964720D01*
X177764303Y-102931237D01*
X177833995Y-102936221D01*
X177889928Y-102978093D01*
X177914237Y-103042163D01*
X177932234Y-103259359D01*
X177932236Y-103259371D01*
X177987503Y-103477614D01*
X178077940Y-103683792D01*
X178201076Y-103872265D01*
X178201078Y-103872268D01*
X178352507Y-104036762D01*
X178383429Y-104099415D01*
X178375569Y-104168841D01*
X178331422Y-104222997D01*
X178304611Y-104236926D01*
X178184712Y-104281646D01*
X178184706Y-104281649D01*
X178069612Y-104367809D01*
X178069609Y-104367812D01*
X177983449Y-104482906D01*
X177983445Y-104482913D01*
X177933203Y-104617620D01*
X177933201Y-104617627D01*
X177926800Y-104677155D01*
X177926800Y-105325000D01*
X178843788Y-105325000D01*
X178810875Y-105382007D01*
X178776800Y-105509174D01*
X178776800Y-105640826D01*
X178810875Y-105767993D01*
X178843788Y-105825000D01*
X177926800Y-105825000D01*
X177926800Y-106472844D01*
X177933201Y-106532372D01*
X177933203Y-106532379D01*
X177983445Y-106667086D01*
X177983449Y-106667093D01*
X178069609Y-106782187D01*
X178069612Y-106782190D01*
X178184706Y-106868350D01*
X178184713Y-106868354D01*
X178319420Y-106918596D01*
X178319427Y-106918598D01*
X178378955Y-106924999D01*
X178378972Y-106925000D01*
X179026800Y-106925000D01*
X179026800Y-106008012D01*
X179083807Y-106040925D01*
X179210974Y-106075000D01*
X179342626Y-106075000D01*
X179469793Y-106040925D01*
X179526800Y-106008012D01*
X179526800Y-106925000D01*
X180174628Y-106925000D01*
X180174644Y-106924999D01*
X180234172Y-106918598D01*
X180234179Y-106918596D01*
X180368886Y-106868354D01*
X180368893Y-106868350D01*
X180483987Y-106782190D01*
X180483990Y-106782187D01*
X180570150Y-106667093D01*
X180570154Y-106667086D01*
X180620396Y-106532379D01*
X180620398Y-106532372D01*
X180626799Y-106472844D01*
X180626800Y-106472827D01*
X180626800Y-105825000D01*
X179709812Y-105825000D01*
X179742725Y-105767993D01*
X179776800Y-105640826D01*
X179776800Y-105509174D01*
X179742725Y-105382007D01*
X179709812Y-105325000D01*
X180626800Y-105325000D01*
X180626800Y-104677172D01*
X180626799Y-104677155D01*
X180620398Y-104617627D01*
X180620396Y-104617620D01*
X180570154Y-104482913D01*
X180570150Y-104482906D01*
X180483990Y-104367812D01*
X180483987Y-104367809D01*
X180368893Y-104281649D01*
X180368888Y-104281646D01*
X180248988Y-104236926D01*
X180193055Y-104195054D01*
X180168638Y-104129590D01*
X180183490Y-104061317D01*
X180201086Y-104036769D01*
X180352522Y-103872268D01*
X180475660Y-103683791D01*
X180566096Y-103477616D01*
X180621364Y-103259368D01*
X180621365Y-103259359D01*
X180639956Y-103035005D01*
X180639956Y-103034994D01*
X180621365Y-102810640D01*
X180621363Y-102810628D01*
X180566096Y-102592385D01*
X180475659Y-102386207D01*
X180352523Y-102197734D01*
X180352515Y-102197723D01*
X180200043Y-102032097D01*
X180200038Y-102032092D01*
X180022377Y-101893812D01*
X180022378Y-101893812D01*
X180022376Y-101893811D01*
X179985870Y-101874055D01*
X179936279Y-101824836D01*
X179921171Y-101756619D01*
X179945341Y-101691064D01*
X179985870Y-101655945D01*
X179985884Y-101655936D01*
X180022376Y-101636189D01*
X180200040Y-101497906D01*
X180352522Y-101332268D01*
X180475660Y-101143791D01*
X180566096Y-100937616D01*
X180621364Y-100719368D01*
X180621365Y-100719359D01*
X180639956Y-100495005D01*
X180639956Y-100494994D01*
X180621365Y-100270640D01*
X180621363Y-100270628D01*
X180566096Y-100052385D01*
X180475659Y-99846207D01*
X180352523Y-99657734D01*
X180352515Y-99657723D01*
X180200043Y-99492097D01*
X180200038Y-99492092D01*
X180022377Y-99353812D01*
X180022378Y-99353812D01*
X180022376Y-99353811D01*
X179985870Y-99334055D01*
X179936279Y-99284836D01*
X179921171Y-99216619D01*
X179945341Y-99151064D01*
X179985870Y-99115945D01*
X179985884Y-99115936D01*
X180022376Y-99096189D01*
X180200040Y-98957906D01*
X180352522Y-98792268D01*
X180475660Y-98603791D01*
X180566096Y-98397616D01*
X180621364Y-98179368D01*
X180639956Y-97955000D01*
X180621364Y-97730632D01*
X180566096Y-97512384D01*
X180475660Y-97306209D01*
X180352522Y-97117732D01*
X180352519Y-97117729D01*
X180352515Y-97117723D01*
X180200043Y-96952097D01*
X180200038Y-96952092D01*
X180022377Y-96813812D01*
X180022372Y-96813808D01*
X179824380Y-96706661D01*
X179824377Y-96706659D01*
X179824374Y-96706658D01*
X179824371Y-96706657D01*
X179824369Y-96706656D01*
X179611437Y-96633556D01*
X179389369Y-96596500D01*
X179164231Y-96596500D01*
X178942162Y-96633556D01*
X178729230Y-96706656D01*
X178729219Y-96706661D01*
X178531227Y-96813808D01*
X178531222Y-96813812D01*
X178353561Y-96952092D01*
X178353556Y-96952097D01*
X178201084Y-97117723D01*
X178201076Y-97117734D01*
X178077940Y-97306207D01*
X177987503Y-97512385D01*
X177932236Y-97730628D01*
X177932234Y-97730640D01*
X177913644Y-97954994D01*
X177913644Y-97955005D01*
X177932235Y-98179364D01*
X177960261Y-98290037D01*
X177957636Y-98359857D01*
X177927736Y-98408158D01*
X166936961Y-109398935D01*
X163292967Y-113042929D01*
X163264427Y-113071469D01*
X163204727Y-113131168D01*
X163135403Y-113234918D01*
X163135398Y-113234927D01*
X163087645Y-113350214D01*
X163087643Y-113350222D01*
X163063300Y-113472601D01*
X163063300Y-118153037D01*
X163043615Y-118220076D01*
X163010424Y-118254612D01*
X162877014Y-118348026D01*
X162719823Y-118505217D01*
X162592314Y-118687319D01*
X162592314Y-118687320D01*
X162592312Y-118687323D01*
X162592312Y-118687324D01*
X162586435Y-118699928D01*
X162534492Y-118811318D01*
X162488319Y-118863757D01*
X162421125Y-118882908D01*
X162354244Y-118862692D01*
X162309728Y-118811316D01*
X162253898Y-118691589D01*
X162253897Y-118691587D01*
X162208541Y-118626811D01*
X162208540Y-118626810D01*
X161537800Y-119297551D01*
X161537800Y-119274840D01*
X161511836Y-119177939D01*
X161461676Y-119091060D01*
X161390740Y-119020124D01*
X161303861Y-118969964D01*
X161206960Y-118944000D01*
X161184248Y-118944000D01*
X161854988Y-118273259D01*
X161854987Y-118273258D01*
X161790211Y-118227901D01*
X161790205Y-118227898D01*
X161590084Y-118134580D01*
X161590070Y-118134575D01*
X161376786Y-118077426D01*
X161376776Y-118077424D01*
X161156801Y-118058179D01*
X161156799Y-118058179D01*
X160936823Y-118077424D01*
X160936813Y-118077426D01*
X160723529Y-118134575D01*
X160723520Y-118134579D01*
X160523390Y-118227901D01*
X160458611Y-118273258D01*
X161129353Y-118944000D01*
X161106640Y-118944000D01*
X161009739Y-118969964D01*
X160922860Y-119020124D01*
X160851924Y-119091060D01*
X160801764Y-119177939D01*
X160775800Y-119274840D01*
X160775800Y-119297553D01*
X160105058Y-118626811D01*
X160059701Y-118691590D01*
X160003871Y-118811317D01*
X159957698Y-118863756D01*
X159890505Y-118882908D01*
X159823624Y-118862692D01*
X159779107Y-118811317D01*
X159774418Y-118801261D01*
X159721288Y-118687324D01*
X159721285Y-118687320D01*
X159721285Y-118687319D01*
X159593778Y-118505220D01*
X159528358Y-118439800D01*
X159436581Y-118348023D01*
X159357422Y-118292595D01*
X159303176Y-118254611D01*
X159259551Y-118200034D01*
X159250300Y-118153037D01*
X159250300Y-113954874D01*
X159269985Y-113887835D01*
X159322789Y-113842080D01*
X159364564Y-113831257D01*
X159513511Y-113819535D01*
X159744394Y-113764105D01*
X159744396Y-113764104D01*
X159744397Y-113764104D01*
X159963759Y-113673242D01*
X159963760Y-113673241D01*
X159963763Y-113673240D01*
X160166216Y-113549176D01*
X160346769Y-113394969D01*
X160500976Y-113214416D01*
X160625040Y-113011963D01*
X160639032Y-112978185D01*
X160715904Y-112792597D01*
X160715904Y-112792596D01*
X160715905Y-112792594D01*
X160771335Y-112561711D01*
X160789965Y-112325000D01*
X160771335Y-112088289D01*
X160715905Y-111857406D01*
X160715904Y-111857403D01*
X160715904Y-111857402D01*
X160625042Y-111638040D01*
X160625040Y-111638037D01*
X160500979Y-111435589D01*
X160500978Y-111435586D01*
X160421992Y-111343106D01*
X160346769Y-111255031D01*
X160227396Y-111153076D01*
X160166213Y-111100821D01*
X160166210Y-111100820D01*
X159963762Y-110976759D01*
X159963759Y-110976757D01*
X159744396Y-110885895D01*
X159513514Y-110830465D01*
X159276800Y-110811835D01*
X159040085Y-110830465D01*
X158809204Y-110885895D01*
X158809202Y-110885895D01*
X158589840Y-110976757D01*
X158589837Y-110976759D01*
X158387389Y-111100820D01*
X158387386Y-111100821D01*
X158206831Y-111255031D01*
X158052621Y-111435586D01*
X158052620Y-111435589D01*
X157932081Y-111632290D01*
X157880269Y-111679165D01*
X157826354Y-111691500D01*
X148340566Y-111691500D01*
X148273527Y-111671815D01*
X148252885Y-111655181D01*
X143723420Y-107125716D01*
X143689935Y-107064393D01*
X143687783Y-107051015D01*
X143670342Y-106885072D01*
X143611327Y-106703444D01*
X143515840Y-106538056D01*
X143388053Y-106396134D01*
X143233552Y-106283882D01*
X143059088Y-106206206D01*
X143059086Y-106206205D01*
X142872287Y-106166500D01*
X142681313Y-106166500D01*
X142494514Y-106206205D01*
X142320046Y-106283883D01*
X142165545Y-106396135D01*
X142037759Y-106538057D01*
X141942273Y-106703443D01*
X141942270Y-106703450D01*
X141888691Y-106868350D01*
X141883258Y-106885072D01*
X141863296Y-107075000D01*
X81926500Y-107075000D01*
X81926500Y-94075000D01*
X83013635Y-94075000D01*
X83032265Y-94311714D01*
X83087695Y-94542595D01*
X83087695Y-94542597D01*
X83178557Y-94761959D01*
X83178559Y-94761962D01*
X83302620Y-94964410D01*
X83302621Y-94964413D01*
X83302624Y-94964416D01*
X83456831Y-95144969D01*
X83596597Y-95264340D01*
X83637386Y-95299178D01*
X83637389Y-95299179D01*
X83839837Y-95423240D01*
X83839840Y-95423242D01*
X84059203Y-95514104D01*
X84059204Y-95514104D01*
X84059206Y-95514105D01*
X84290089Y-95569535D01*
X84526800Y-95588165D01*
X84763511Y-95569535D01*
X84994394Y-95514105D01*
X84994396Y-95514104D01*
X84994397Y-95514104D01*
X85213759Y-95423242D01*
X85213760Y-95423241D01*
X85213763Y-95423240D01*
X85416216Y-95299176D01*
X85596769Y-95144969D01*
X85750976Y-94964416D01*
X85875040Y-94761963D01*
X85896063Y-94711210D01*
X85965904Y-94542597D01*
X85965904Y-94542596D01*
X85965905Y-94542594D01*
X86021335Y-94311711D01*
X86039965Y-94075000D01*
X86021335Y-93838289D01*
X85965905Y-93607406D01*
X85965904Y-93607403D01*
X85965904Y-93607402D01*
X85875042Y-93388040D01*
X85875040Y-93388037D01*
X85750979Y-93185589D01*
X85750978Y-93185586D01*
X85691646Y-93116118D01*
X85596769Y-93005031D01*
X85429236Y-92861944D01*
X85416213Y-92850821D01*
X85416210Y-92850820D01*
X85213762Y-92726759D01*
X85213759Y-92726757D01*
X84994396Y-92635895D01*
X84763514Y-92580465D01*
X84526800Y-92561835D01*
X84290085Y-92580465D01*
X84059204Y-92635895D01*
X84059202Y-92635895D01*
X83839840Y-92726757D01*
X83839837Y-92726759D01*
X83637389Y-92850820D01*
X83637386Y-92850821D01*
X83456831Y-93005031D01*
X83302621Y-93185586D01*
X83302620Y-93185589D01*
X83178559Y-93388037D01*
X83178557Y-93388040D01*
X83087695Y-93607402D01*
X83087695Y-93607404D01*
X83032265Y-93838285D01*
X83013635Y-94075000D01*
X81926500Y-94075000D01*
X81926500Y-91941277D01*
X81946185Y-91874238D01*
X81998989Y-91828483D01*
X82063758Y-91817988D01*
X82128960Y-91824999D01*
X82128972Y-91825000D01*
X84026800Y-91825000D01*
X84026800Y-90900000D01*
X84526800Y-90900000D01*
X84526800Y-91825000D01*
X86424628Y-91825000D01*
X86424644Y-91824999D01*
X86484172Y-91818598D01*
X86484179Y-91818596D01*
X86618886Y-91768354D01*
X86618893Y-91768350D01*
X86733987Y-91682190D01*
X86733990Y-91682187D01*
X86820150Y-91567093D01*
X86820154Y-91567086D01*
X86870396Y-91432379D01*
X86870398Y-91432372D01*
X86876799Y-91372844D01*
X86876800Y-91372827D01*
X86876800Y-90900000D01*
X84526800Y-90900000D01*
X84026800Y-90900000D01*
X84026800Y-89475000D01*
X84526800Y-89475000D01*
X84526800Y-90400000D01*
X86876800Y-90400000D01*
X86876800Y-89927172D01*
X86876799Y-89927155D01*
X86870398Y-89867627D01*
X86870396Y-89867620D01*
X86820154Y-89732913D01*
X86820150Y-89732906D01*
X86733990Y-89617812D01*
X86733987Y-89617809D01*
X86618893Y-89531649D01*
X86618886Y-89531645D01*
X86484179Y-89481403D01*
X86484172Y-89481401D01*
X86424644Y-89475000D01*
X84526800Y-89475000D01*
X84026800Y-89475000D01*
X82128955Y-89475000D01*
X82063756Y-89482011D01*
X81994996Y-89469606D01*
X81943859Y-89421996D01*
X81926500Y-89358722D01*
X81926500Y-86291277D01*
X81946185Y-86224238D01*
X81998989Y-86178483D01*
X82063758Y-86167988D01*
X82128960Y-86174999D01*
X82128972Y-86175000D01*
X84026800Y-86175000D01*
X84026800Y-85250000D01*
X84526800Y-85250000D01*
X84526800Y-86175000D01*
X86424628Y-86175000D01*
X86424644Y-86174999D01*
X86484172Y-86168598D01*
X86484179Y-86168596D01*
X86618886Y-86118354D01*
X86618893Y-86118350D01*
X86733987Y-86032190D01*
X86733990Y-86032187D01*
X86820150Y-85917093D01*
X86820154Y-85917086D01*
X86870396Y-85782379D01*
X86870398Y-85782372D01*
X86876799Y-85722844D01*
X86876800Y-85722827D01*
X86876800Y-85250000D01*
X84526800Y-85250000D01*
X84026800Y-85250000D01*
X84026800Y-83825000D01*
X84526800Y-83825000D01*
X84526800Y-84750000D01*
X86876800Y-84750000D01*
X86876800Y-84277172D01*
X86876799Y-84277155D01*
X86870398Y-84217627D01*
X86870396Y-84217620D01*
X86820154Y-84082913D01*
X86820150Y-84082906D01*
X86733990Y-83967812D01*
X86733987Y-83967809D01*
X86618893Y-83881649D01*
X86618886Y-83881645D01*
X86484179Y-83831403D01*
X86484172Y-83831401D01*
X86424644Y-83825000D01*
X84526800Y-83825000D01*
X84026800Y-83825000D01*
X82128955Y-83825000D01*
X82063756Y-83832011D01*
X81994996Y-83819606D01*
X81943859Y-83771996D01*
X81926500Y-83708722D01*
X81926500Y-80398281D01*
X81946185Y-80331242D01*
X81998989Y-80285487D01*
X82068147Y-80275543D01*
X82131703Y-80304568D01*
X82163576Y-80347390D01*
X82232943Y-80501519D01*
X82232945Y-80501521D01*
X82405057Y-80786231D01*
X82405062Y-80786239D01*
X82558262Y-80981783D01*
X83557128Y-79982917D01*
X83642678Y-80100666D01*
X83792934Y-80250922D01*
X83910681Y-80336470D01*
X82911815Y-81335336D01*
X82911815Y-81335337D01*
X83107360Y-81488537D01*
X83107368Y-81488542D01*
X83392078Y-81660654D01*
X83392080Y-81660656D01*
X83695456Y-81797194D01*
X83695471Y-81797200D01*
X84013070Y-81896167D01*
X84340323Y-81956139D01*
X84672400Y-81976225D01*
X85004476Y-81956139D01*
X85331729Y-81896167D01*
X85649328Y-81797200D01*
X85649343Y-81797194D01*
X85952719Y-81660656D01*
X85952721Y-81660654D01*
X86237430Y-81488543D01*
X86432983Y-81335337D01*
X86432983Y-81335336D01*
X85434117Y-80336470D01*
X85551866Y-80250922D01*
X85702122Y-80100666D01*
X85787670Y-79982917D01*
X86786536Y-80981783D01*
X86786537Y-80981783D01*
X86939743Y-80786230D01*
X87111854Y-80501521D01*
X87111856Y-80501519D01*
X87191300Y-80325000D01*
X94013635Y-80325000D01*
X94032265Y-80561714D01*
X94087695Y-80792595D01*
X94087695Y-80792597D01*
X94178557Y-81011959D01*
X94178559Y-81011962D01*
X94302620Y-81214410D01*
X94302621Y-81214413D01*
X94302624Y-81214416D01*
X94456831Y-81394969D01*
X94566385Y-81488537D01*
X94637386Y-81549178D01*
X94637389Y-81549179D01*
X94839837Y-81673240D01*
X94839840Y-81673242D01*
X95059203Y-81764104D01*
X95059204Y-81764104D01*
X95059206Y-81764105D01*
X95290089Y-81819535D01*
X95526800Y-81838165D01*
X95763511Y-81819535D01*
X95994394Y-81764105D01*
X95994396Y-81764104D01*
X95994397Y-81764104D01*
X96213759Y-81673242D01*
X96213760Y-81673241D01*
X96213763Y-81673240D01*
X96416216Y-81549176D01*
X96596769Y-81394969D01*
X96750976Y-81214416D01*
X96875040Y-81011963D01*
X96888629Y-80979158D01*
X96965904Y-80792597D01*
X96965904Y-80792596D01*
X96965905Y-80792594D01*
X97021335Y-80561711D01*
X97039965Y-80325000D01*
X97021335Y-80088289D01*
X96965905Y-79857406D01*
X96965904Y-79857403D01*
X96965904Y-79857402D01*
X96875042Y-79638040D01*
X96875040Y-79638037D01*
X96750979Y-79435589D01*
X96750978Y-79435586D01*
X96656528Y-79325000D01*
X103763635Y-79325000D01*
X103782265Y-79561714D01*
X103837695Y-79792595D01*
X103837695Y-79792597D01*
X103928557Y-80011959D01*
X103928559Y-80011962D01*
X104052620Y-80214410D01*
X104052621Y-80214413D01*
X104052624Y-80214416D01*
X104206831Y-80394969D01*
X104346597Y-80514340D01*
X104387386Y-80549178D01*
X104387389Y-80549179D01*
X104589837Y-80673240D01*
X104589840Y-80673242D01*
X104809203Y-80764104D01*
X104809204Y-80764104D01*
X104809206Y-80764105D01*
X105040089Y-80819535D01*
X105276800Y-80838165D01*
X105513511Y-80819535D01*
X105744394Y-80764105D01*
X105744396Y-80764104D01*
X105744397Y-80764104D01*
X105963759Y-80673242D01*
X105963760Y-80673241D01*
X105963763Y-80673240D01*
X106166216Y-80549176D01*
X106346769Y-80394969D01*
X106500976Y-80214416D01*
X106625040Y-80011963D01*
X106649280Y-79953444D01*
X106715904Y-79792597D01*
X106715904Y-79792596D01*
X106715905Y-79792594D01*
X106771335Y-79561711D01*
X106789965Y-79325000D01*
X106771335Y-79088289D01*
X106715905Y-78857406D01*
X106715904Y-78857403D01*
X106715904Y-78857402D01*
X106625042Y-78638040D01*
X106625040Y-78638037D01*
X106586411Y-78575000D01*
X131613296Y-78575000D01*
X131633258Y-78764928D01*
X131633259Y-78764930D01*
X131637231Y-78777155D01*
X131643300Y-78815474D01*
X131643300Y-91137398D01*
X131667643Y-91259777D01*
X131667645Y-91259785D01*
X131715398Y-91375072D01*
X131715403Y-91375081D01*
X131784728Y-91478832D01*
X131784731Y-91478836D01*
X134872963Y-94567069D01*
X134872967Y-94567072D01*
X134976721Y-94636399D01*
X134976723Y-94636399D01*
X134976725Y-94636401D01*
X135058247Y-94670168D01*
X135092015Y-94684155D01*
X135092017Y-94684155D01*
X135092022Y-94684157D01*
X135214401Y-94708499D01*
X135214405Y-94708500D01*
X135214406Y-94708500D01*
X135214407Y-94708500D01*
X135339194Y-94708500D01*
X141464406Y-94708500D01*
X141550666Y-94708500D01*
X141576447Y-94711210D01*
X141681313Y-94733500D01*
X141872287Y-94733500D01*
X142059088Y-94693794D01*
X142233552Y-94616118D01*
X142388053Y-94503866D01*
X142515840Y-94361944D01*
X142611327Y-94196556D01*
X142670342Y-94014928D01*
X142690304Y-93825000D01*
X142670342Y-93635072D01*
X142611327Y-93453444D01*
X142515840Y-93288056D01*
X142388053Y-93146134D01*
X142233552Y-93033882D01*
X142059088Y-92956206D01*
X142059086Y-92956205D01*
X141872287Y-92916500D01*
X141681313Y-92916500D01*
X141494514Y-92956205D01*
X141320046Y-93033883D01*
X141165545Y-93146135D01*
X141037759Y-93288057D01*
X140984965Y-93379500D01*
X140934399Y-93427715D01*
X140877578Y-93441500D01*
X138314199Y-93441500D01*
X138247160Y-93421815D01*
X138201405Y-93369011D01*
X138190878Y-93330462D01*
X138186421Y-93288056D01*
X138170342Y-93135072D01*
X138111327Y-92953444D01*
X138020012Y-92795283D01*
X138003400Y-92733284D01*
X138003400Y-89911611D01*
X167676300Y-89911611D01*
X167703398Y-90082701D01*
X167756927Y-90247445D01*
X167835568Y-90401788D01*
X167937386Y-90541928D01*
X168059872Y-90664414D01*
X168200012Y-90766232D01*
X168354355Y-90844873D01*
X168519099Y-90898402D01*
X168690189Y-90925500D01*
X168690190Y-90925500D01*
X168863410Y-90925500D01*
X168863411Y-90925500D01*
X169034501Y-90898402D01*
X169199245Y-90844873D01*
X169353588Y-90766232D01*
X169493728Y-90664414D01*
X169616214Y-90541928D01*
X169718032Y-90401788D01*
X169796673Y-90247445D01*
X169850202Y-90082701D01*
X169877300Y-89911611D01*
X174676300Y-89911611D01*
X174703398Y-90082701D01*
X174756927Y-90247445D01*
X174835568Y-90401788D01*
X174937386Y-90541928D01*
X175059872Y-90664414D01*
X175200012Y-90766232D01*
X175354355Y-90844873D01*
X175519099Y-90898402D01*
X175690189Y-90925500D01*
X175690190Y-90925500D01*
X175863410Y-90925500D01*
X175863411Y-90925500D01*
X176034501Y-90898402D01*
X176199245Y-90844873D01*
X176353588Y-90766232D01*
X176493728Y-90664414D01*
X176616214Y-90541928D01*
X176718032Y-90401788D01*
X176796673Y-90247445D01*
X176850202Y-90082701D01*
X176877300Y-89911611D01*
X176877300Y-89738389D01*
X176850202Y-89567299D01*
X176796673Y-89402555D01*
X176718032Y-89248212D01*
X176616214Y-89108072D01*
X176493728Y-88985586D01*
X176353588Y-88883768D01*
X176199245Y-88805127D01*
X176034501Y-88751598D01*
X176034499Y-88751597D01*
X176034498Y-88751597D01*
X175903071Y-88730781D01*
X175863411Y-88724500D01*
X175690189Y-88724500D01*
X175650528Y-88730781D01*
X175519102Y-88751597D01*
X175354352Y-88805128D01*
X175200011Y-88883768D01*
X175120056Y-88941859D01*
X175059872Y-88985586D01*
X175059870Y-88985588D01*
X175059869Y-88985588D01*
X174937388Y-89108069D01*
X174937388Y-89108070D01*
X174937386Y-89108072D01*
X174893659Y-89168256D01*
X174835568Y-89248211D01*
X174756928Y-89402552D01*
X174703397Y-89567302D01*
X174677168Y-89732906D01*
X174676300Y-89738389D01*
X174676300Y-89911611D01*
X169877300Y-89911611D01*
X169877300Y-89738389D01*
X169850202Y-89567299D01*
X169796673Y-89402555D01*
X169718032Y-89248212D01*
X169616214Y-89108072D01*
X169493728Y-88985586D01*
X169353588Y-88883768D01*
X169199245Y-88805127D01*
X169034501Y-88751598D01*
X169034499Y-88751597D01*
X169034498Y-88751597D01*
X168903071Y-88730781D01*
X168863411Y-88724500D01*
X168690189Y-88724500D01*
X168650528Y-88730781D01*
X168519102Y-88751597D01*
X168354352Y-88805128D01*
X168200011Y-88883768D01*
X168120056Y-88941859D01*
X168059872Y-88985586D01*
X168059870Y-88985588D01*
X168059869Y-88985588D01*
X167937388Y-89108069D01*
X167937388Y-89108070D01*
X167937386Y-89108072D01*
X167893659Y-89168256D01*
X167835568Y-89248211D01*
X167756928Y-89402552D01*
X167703397Y-89567302D01*
X167677168Y-89732906D01*
X167676300Y-89738389D01*
X167676300Y-89911611D01*
X138003400Y-89911611D01*
X138003400Y-88075000D01*
X141863296Y-88075000D01*
X141883258Y-88264928D01*
X141883259Y-88264931D01*
X141942270Y-88446549D01*
X141942273Y-88446556D01*
X142037760Y-88611944D01*
X142165547Y-88753866D01*
X142320048Y-88866118D01*
X142494512Y-88943794D01*
X142681313Y-88983500D01*
X142872287Y-88983500D01*
X143059088Y-88943794D01*
X143233552Y-88866118D01*
X143388053Y-88753866D01*
X143515840Y-88611944D01*
X143611327Y-88446556D01*
X143670342Y-88264928D01*
X143687781Y-88098997D01*
X143714364Y-88034387D01*
X143723411Y-88024291D01*
X144026351Y-87721351D01*
X144087672Y-87687868D01*
X144157364Y-87692852D01*
X144213297Y-87734724D01*
X144221413Y-87747028D01*
X144287760Y-87861944D01*
X144415547Y-88003866D01*
X144570048Y-88116118D01*
X144744512Y-88193794D01*
X144931313Y-88233500D01*
X145122287Y-88233500D01*
X145309088Y-88193794D01*
X145483552Y-88116118D01*
X145638053Y-88003866D01*
X145641960Y-87999527D01*
X145701446Y-87962879D01*
X145734109Y-87958500D01*
X150069491Y-87958500D01*
X150136530Y-87978185D01*
X150161640Y-87999527D01*
X150165547Y-88003866D01*
X150320048Y-88116118D01*
X150494512Y-88193794D01*
X150681313Y-88233500D01*
X150872287Y-88233500D01*
X151059088Y-88193794D01*
X151233552Y-88116118D01*
X151388053Y-88003866D01*
X151515840Y-87861944D01*
X151611327Y-87696556D01*
X151670342Y-87514928D01*
X151690304Y-87325000D01*
X151670342Y-87135072D01*
X151611327Y-86953444D01*
X151515840Y-86788056D01*
X151388053Y-86646134D01*
X151233552Y-86533882D01*
X151059088Y-86456206D01*
X151059086Y-86456205D01*
X150872287Y-86416500D01*
X150681313Y-86416500D01*
X150494514Y-86456205D01*
X150320046Y-86533883D01*
X150165545Y-86646135D01*
X150161640Y-86650473D01*
X150102154Y-86687121D01*
X150069491Y-86691500D01*
X145734109Y-86691500D01*
X145667070Y-86671815D01*
X145641960Y-86650473D01*
X145638053Y-86646134D01*
X145638052Y-86646133D01*
X145632143Y-86641840D01*
X145589477Y-86586510D01*
X145583498Y-86516897D01*
X145597640Y-86479523D01*
X145623980Y-86433903D01*
X145682995Y-86252275D01*
X145701627Y-86075000D01*
X169113296Y-86075000D01*
X169133258Y-86264928D01*
X169133259Y-86264931D01*
X169192270Y-86446549D01*
X169192273Y-86446556D01*
X169287760Y-86611944D01*
X169415547Y-86753866D01*
X169570048Y-86866118D01*
X169744512Y-86943794D01*
X169931313Y-86983500D01*
X170122287Y-86983500D01*
X170309088Y-86943794D01*
X170483552Y-86866118D01*
X170638053Y-86753866D01*
X170641960Y-86749527D01*
X170701446Y-86712879D01*
X170734109Y-86708500D01*
X172714406Y-86708500D01*
X172800666Y-86708500D01*
X172826447Y-86711210D01*
X172931313Y-86733500D01*
X173122287Y-86733500D01*
X173309088Y-86693794D01*
X173483552Y-86616118D01*
X173638053Y-86503866D01*
X173765840Y-86361944D01*
X173861327Y-86196556D01*
X173920342Y-86014928D01*
X173940304Y-85825000D01*
X173920342Y-85635072D01*
X173861327Y-85453444D01*
X173765840Y-85288056D01*
X173638053Y-85146134D01*
X173483552Y-85033882D01*
X173309088Y-84956206D01*
X173309086Y-84956205D01*
X173122287Y-84916500D01*
X172931313Y-84916500D01*
X172744514Y-84956205D01*
X172570046Y-85033883D01*
X172415545Y-85146135D01*
X172287759Y-85288057D01*
X172234965Y-85379500D01*
X172184399Y-85427715D01*
X172127578Y-85441500D01*
X170734109Y-85441500D01*
X170667070Y-85421815D01*
X170641960Y-85400473D01*
X170638054Y-85396135D01*
X170620638Y-85383481D01*
X170483552Y-85283882D01*
X170309088Y-85206206D01*
X170309086Y-85206205D01*
X170122287Y-85166500D01*
X169931313Y-85166500D01*
X169744514Y-85206205D01*
X169570046Y-85283883D01*
X169415545Y-85396135D01*
X169287759Y-85538057D01*
X169192273Y-85703443D01*
X169192270Y-85703450D01*
X169137369Y-85872419D01*
X169133258Y-85885072D01*
X169113296Y-86075000D01*
X145701627Y-86075000D01*
X145702957Y-86062347D01*
X145682995Y-85872419D01*
X145623980Y-85690791D01*
X145528493Y-85525403D01*
X145400706Y-85383481D01*
X145246205Y-85271229D01*
X145071741Y-85193553D01*
X145071739Y-85193552D01*
X144884940Y-85153847D01*
X144693966Y-85153847D01*
X144507167Y-85193552D01*
X144507165Y-85193553D01*
X144346854Y-85264928D01*
X144332699Y-85271230D01*
X144178198Y-85383482D01*
X144050412Y-85525404D01*
X143954926Y-85690790D01*
X143954923Y-85690797D01*
X143895912Y-85872415D01*
X143895911Y-85872419D01*
X143891216Y-85917093D01*
X143878472Y-86038343D01*
X143851887Y-86102957D01*
X143842832Y-86113062D01*
X142825715Y-87130181D01*
X142764392Y-87163666D01*
X142738034Y-87166500D01*
X142681313Y-87166500D01*
X142494514Y-87206205D01*
X142320046Y-87283883D01*
X142165545Y-87396135D01*
X142037759Y-87538057D01*
X141942273Y-87703443D01*
X141942270Y-87703450D01*
X141883259Y-87885068D01*
X141883258Y-87885072D01*
X141863296Y-88075000D01*
X138003400Y-88075000D01*
X138003400Y-86825000D01*
X140113296Y-86825000D01*
X140133258Y-87014928D01*
X140133259Y-87014931D01*
X140192270Y-87196549D01*
X140192273Y-87196556D01*
X140287760Y-87361944D01*
X140415547Y-87503866D01*
X140570048Y-87616118D01*
X140744512Y-87693794D01*
X140931313Y-87733500D01*
X141122287Y-87733500D01*
X141309088Y-87693794D01*
X141483552Y-87616118D01*
X141638053Y-87503866D01*
X141765840Y-87361944D01*
X141861327Y-87196556D01*
X141920342Y-87014928D01*
X141940304Y-86825000D01*
X141920342Y-86635072D01*
X141861327Y-86453444D01*
X141765840Y-86288056D01*
X141765836Y-86288050D01*
X141692150Y-86206213D01*
X141661920Y-86143221D01*
X141660300Y-86123241D01*
X141660300Y-85979258D01*
X141679985Y-85912219D01*
X141728429Y-85870241D01*
X141727925Y-85869367D01*
X141732460Y-85866748D01*
X141732789Y-85866464D01*
X141733546Y-85866121D01*
X141733548Y-85866120D01*
X141733548Y-85866119D01*
X141733552Y-85866118D01*
X141888053Y-85753866D01*
X142015840Y-85611944D01*
X142111327Y-85446556D01*
X142170342Y-85264928D01*
X142190304Y-85075000D01*
X142170342Y-84885072D01*
X142111327Y-84703444D01*
X142015840Y-84538056D01*
X141888053Y-84396134D01*
X141733552Y-84283882D01*
X141559088Y-84206206D01*
X141559086Y-84206205D01*
X141372287Y-84166500D01*
X141181313Y-84166500D01*
X140994514Y-84206205D01*
X140820046Y-84283883D01*
X140665545Y-84396135D01*
X140537759Y-84538057D01*
X140442273Y-84703443D01*
X140442270Y-84703450D01*
X140401365Y-84829344D01*
X140383258Y-84885072D01*
X140363296Y-85075000D01*
X140383258Y-85264928D01*
X140385306Y-85271230D01*
X140387231Y-85277155D01*
X140393300Y-85315474D01*
X140393300Y-86123241D01*
X140373615Y-86190280D01*
X140361450Y-86206213D01*
X140287763Y-86288050D01*
X140287758Y-86288057D01*
X140192273Y-86453443D01*
X140192270Y-86453450D01*
X140133259Y-86635068D01*
X140133258Y-86635072D01*
X140113296Y-86825000D01*
X138003400Y-86825000D01*
X138003400Y-84994156D01*
X138023085Y-84927117D01*
X138035246Y-84911188D01*
X138108940Y-84829344D01*
X138204427Y-84663956D01*
X138263442Y-84482328D01*
X138283404Y-84292400D01*
X138263442Y-84102472D01*
X138204427Y-83920844D01*
X138108940Y-83755456D01*
X137981153Y-83613534D01*
X137826652Y-83501282D01*
X137652188Y-83423606D01*
X137652186Y-83423605D01*
X137465387Y-83383900D01*
X137278873Y-83383900D01*
X137211834Y-83364215D01*
X137166079Y-83311411D01*
X137155552Y-83246939D01*
X137165804Y-83149400D01*
X137145842Y-82959472D01*
X137086827Y-82777844D01*
X136991340Y-82612456D01*
X136863553Y-82470534D01*
X136709052Y-82358282D01*
X136534588Y-82280606D01*
X136534586Y-82280605D01*
X136347787Y-82240900D01*
X136156813Y-82240900D01*
X135970014Y-82280605D01*
X135795546Y-82358283D01*
X135641045Y-82470535D01*
X135513259Y-82612457D01*
X135417773Y-82777843D01*
X135417770Y-82777850D01*
X135358759Y-82959468D01*
X135358758Y-82959472D01*
X135338796Y-83149400D01*
X135358758Y-83339328D01*
X135358759Y-83339331D01*
X135417770Y-83520949D01*
X135417773Y-83520956D01*
X135513260Y-83686344D01*
X135557773Y-83735780D01*
X135641041Y-83828261D01*
X135641047Y-83828266D01*
X135669285Y-83848782D01*
X135711951Y-83904111D01*
X135720400Y-83949100D01*
X135720400Y-91543099D01*
X135700715Y-91610138D01*
X135669288Y-91643416D01*
X135665546Y-91646134D01*
X135537759Y-91788057D01*
X135442273Y-91953443D01*
X135442270Y-91953450D01*
X135383259Y-92135068D01*
X135383258Y-92135072D01*
X135363296Y-92325000D01*
X135383258Y-92514928D01*
X135383259Y-92514931D01*
X135442270Y-92696549D01*
X135442273Y-92696556D01*
X135537760Y-92861944D01*
X135665547Y-93003866D01*
X135820048Y-93116118D01*
X135994512Y-93193794D01*
X136005878Y-93196210D01*
X136067359Y-93229403D01*
X136101135Y-93290566D01*
X136096483Y-93360281D01*
X136054878Y-93416413D01*
X135989530Y-93441141D01*
X135980096Y-93441500D01*
X135590567Y-93441500D01*
X135523528Y-93421815D01*
X135502886Y-93405181D01*
X132946619Y-90848914D01*
X132913134Y-90787591D01*
X132910300Y-90761233D01*
X132910300Y-81825000D01*
X152863296Y-81825000D01*
X152883258Y-82014928D01*
X152883259Y-82014931D01*
X152942270Y-82196549D01*
X152942273Y-82196556D01*
X153037760Y-82361944D01*
X153165547Y-82503866D01*
X153320048Y-82616118D01*
X153494512Y-82693794D01*
X153681313Y-82733500D01*
X153872287Y-82733500D01*
X154059088Y-82693794D01*
X154233552Y-82616118D01*
X154388053Y-82503866D01*
X154391960Y-82499527D01*
X154451446Y-82462879D01*
X154484109Y-82458500D01*
X160339195Y-82458500D01*
X160339196Y-82458499D01*
X160461585Y-82434155D01*
X160576875Y-82386400D01*
X160680633Y-82317071D01*
X162453273Y-80544429D01*
X162514594Y-80510946D01*
X162584285Y-80515930D01*
X162640219Y-80557801D01*
X162658883Y-80593794D01*
X162692270Y-80696549D01*
X162692273Y-80696556D01*
X162774030Y-80838164D01*
X162787760Y-80861944D01*
X162861449Y-80943784D01*
X162891680Y-81006775D01*
X162893300Y-81026756D01*
X162893300Y-81887398D01*
X162917643Y-82009777D01*
X162917645Y-82009785D01*
X162965398Y-82125072D01*
X162965403Y-82125081D01*
X163034728Y-82228832D01*
X163034731Y-82228836D01*
X163330178Y-82524283D01*
X163363663Y-82585606D01*
X163365818Y-82599002D01*
X163374520Y-82681795D01*
X163383258Y-82764928D01*
X163383259Y-82764931D01*
X163442270Y-82946549D01*
X163442273Y-82946556D01*
X163537760Y-83111944D01*
X163665547Y-83253866D01*
X163820048Y-83366118D01*
X163994512Y-83443794D01*
X164181313Y-83483500D01*
X164372287Y-83483500D01*
X164559088Y-83443794D01*
X164733552Y-83366118D01*
X164888053Y-83253866D01*
X165015840Y-83111944D01*
X165111327Y-82946556D01*
X165170342Y-82764928D01*
X165190304Y-82575000D01*
X165170342Y-82385072D01*
X165111327Y-82203444D01*
X165015840Y-82038056D01*
X164888053Y-81896134D01*
X164733552Y-81783882D01*
X164559088Y-81706206D01*
X164559086Y-81706205D01*
X164372287Y-81666500D01*
X164315566Y-81666500D01*
X164248527Y-81646815D01*
X164227885Y-81630181D01*
X164196619Y-81598915D01*
X164163134Y-81537592D01*
X164160300Y-81511234D01*
X164160300Y-81026756D01*
X164179985Y-80959717D01*
X164192146Y-80943788D01*
X164265840Y-80861944D01*
X164361327Y-80696556D01*
X164420342Y-80514928D01*
X164440304Y-80325000D01*
X164420342Y-80135072D01*
X164361327Y-79953444D01*
X164265840Y-79788056D01*
X164138053Y-79646134D01*
X163983552Y-79533882D01*
X163809088Y-79456206D01*
X163809086Y-79456205D01*
X163809085Y-79456205D01*
X163802908Y-79454198D01*
X163803518Y-79452319D01*
X163750290Y-79423566D01*
X163716529Y-79362394D01*
X163721199Y-79292681D01*
X163749892Y-79247811D01*
X163977885Y-79019819D01*
X164039208Y-78986334D01*
X164065566Y-78983500D01*
X164122287Y-78983500D01*
X164309088Y-78943794D01*
X164483552Y-78866118D01*
X164638053Y-78753866D01*
X164765840Y-78611944D01*
X164861327Y-78446556D01*
X164920342Y-78264928D01*
X164940304Y-78075000D01*
X164920342Y-77885072D01*
X164861327Y-77703444D01*
X164765840Y-77538056D01*
X164638053Y-77396134D01*
X164483552Y-77283882D01*
X164309088Y-77206206D01*
X164309086Y-77206205D01*
X164122287Y-77166500D01*
X163931313Y-77166500D01*
X163744514Y-77206205D01*
X163570046Y-77283883D01*
X163415545Y-77396135D01*
X163287759Y-77538057D01*
X163192273Y-77703443D01*
X163192270Y-77703450D01*
X163151001Y-77830465D01*
X163133258Y-77885072D01*
X163120132Y-78009960D01*
X163115819Y-78050996D01*
X163089234Y-78115610D01*
X163080179Y-78125715D01*
X160050715Y-81155181D01*
X159989392Y-81188666D01*
X159963034Y-81191500D01*
X154484109Y-81191500D01*
X154417070Y-81171815D01*
X154391960Y-81150473D01*
X154388054Y-81146135D01*
X154379652Y-81140030D01*
X154233552Y-81033882D01*
X154059088Y-80956206D01*
X154059086Y-80956205D01*
X153872287Y-80916500D01*
X153681313Y-80916500D01*
X153494514Y-80956205D01*
X153494512Y-80956206D01*
X153336054Y-81026756D01*
X153320046Y-81033883D01*
X153165545Y-81146135D01*
X153037759Y-81288057D01*
X152942273Y-81453443D01*
X152942270Y-81453450D01*
X152895006Y-81598915D01*
X152883258Y-81635072D01*
X152863296Y-81825000D01*
X132910300Y-81825000D01*
X132910300Y-79479258D01*
X132929985Y-79412219D01*
X132978429Y-79370241D01*
X132977925Y-79369367D01*
X132982460Y-79366748D01*
X132982789Y-79366464D01*
X132983546Y-79366121D01*
X132983548Y-79366120D01*
X132983548Y-79366119D01*
X132983552Y-79366118D01*
X133138053Y-79253866D01*
X133265840Y-79111944D01*
X133361327Y-78946556D01*
X133420342Y-78764928D01*
X133440304Y-78575000D01*
X133420342Y-78385072D01*
X133361327Y-78203444D01*
X133265840Y-78038056D01*
X133138053Y-77896134D01*
X132983552Y-77783882D01*
X132809088Y-77706206D01*
X132809086Y-77706205D01*
X132622287Y-77666500D01*
X132431313Y-77666500D01*
X132244514Y-77706205D01*
X132070046Y-77783883D01*
X131915545Y-77896135D01*
X131787759Y-78038057D01*
X131692273Y-78203443D01*
X131692270Y-78203450D01*
X131662628Y-78294680D01*
X131633258Y-78385072D01*
X131613296Y-78575000D01*
X106586411Y-78575000D01*
X106500979Y-78435589D01*
X106500978Y-78435586D01*
X106420820Y-78341734D01*
X106346769Y-78255031D01*
X106195360Y-78125715D01*
X106166213Y-78100821D01*
X106166210Y-78100820D01*
X105963762Y-77976759D01*
X105963759Y-77976757D01*
X105744396Y-77885895D01*
X105513514Y-77830465D01*
X105276800Y-77811835D01*
X105040085Y-77830465D01*
X104809204Y-77885895D01*
X104809202Y-77885895D01*
X104589840Y-77976757D01*
X104589837Y-77976759D01*
X104387389Y-78100820D01*
X104387386Y-78100821D01*
X104206831Y-78255031D01*
X104052621Y-78435586D01*
X104052620Y-78435589D01*
X103928559Y-78638037D01*
X103928557Y-78638040D01*
X103837695Y-78857402D01*
X103837695Y-78857404D01*
X103782265Y-79088285D01*
X103763635Y-79325000D01*
X96656528Y-79325000D01*
X96596769Y-79255031D01*
X96429236Y-79111944D01*
X96416213Y-79100821D01*
X96416210Y-79100820D01*
X96213762Y-78976759D01*
X96213759Y-78976757D01*
X95994396Y-78885895D01*
X95763514Y-78830465D01*
X95526800Y-78811835D01*
X95290085Y-78830465D01*
X95059204Y-78885895D01*
X95059202Y-78885895D01*
X94839840Y-78976757D01*
X94839837Y-78976759D01*
X94637389Y-79100820D01*
X94637386Y-79100821D01*
X94456831Y-79255031D01*
X94302621Y-79435586D01*
X94302620Y-79435589D01*
X94178559Y-79638037D01*
X94178557Y-79638040D01*
X94087695Y-79857402D01*
X94087695Y-79857404D01*
X94032265Y-80088285D01*
X94013635Y-80325000D01*
X87191300Y-80325000D01*
X87248394Y-80198143D01*
X87248400Y-80198128D01*
X87347367Y-79880529D01*
X87407339Y-79553276D01*
X87427425Y-79221200D01*
X87407339Y-78889123D01*
X87347367Y-78561870D01*
X87248400Y-78244271D01*
X87248394Y-78244256D01*
X87111856Y-77940880D01*
X87111854Y-77940878D01*
X86939742Y-77656168D01*
X86939737Y-77656160D01*
X86786536Y-77460615D01*
X85787670Y-78459481D01*
X85702122Y-78341734D01*
X85551866Y-78191478D01*
X85434117Y-78105929D01*
X86432983Y-77107062D01*
X86432983Y-77107061D01*
X86330934Y-77027111D01*
X86290301Y-76970271D01*
X86286849Y-76900486D01*
X86321673Y-76839914D01*
X86383717Y-76807784D01*
X86407407Y-76805500D01*
X177902156Y-76805500D01*
X177969195Y-76825185D01*
G37*
%TD.AperFunction*%
%TA.AperFunction,Conductor*%
G36*
X181849339Y-76825185D02*
G01*
X181895094Y-76877989D01*
X181906300Y-76929500D01*
X181906300Y-78757306D01*
X181886615Y-78824345D01*
X181833811Y-78870100D01*
X181764653Y-78880044D01*
X181701097Y-78851019D01*
X181663915Y-78794196D01*
X181602800Y-78598071D01*
X181602794Y-78598056D01*
X181466256Y-78294680D01*
X181466254Y-78294678D01*
X181294142Y-78009968D01*
X181294137Y-78009960D01*
X181140936Y-77814415D01*
X180142070Y-78813281D01*
X180056522Y-78695534D01*
X179906266Y-78545278D01*
X179788517Y-78459729D01*
X180787383Y-77460862D01*
X180787383Y-77460861D01*
X180591839Y-77307662D01*
X180591831Y-77307657D01*
X180307121Y-77135545D01*
X180307119Y-77135543D01*
X180100553Y-77042576D01*
X180047498Y-76997111D01*
X180027446Y-76930181D01*
X180046762Y-76863034D01*
X180099314Y-76816990D01*
X180151444Y-76805500D01*
X181782300Y-76805500D01*
X181849339Y-76825185D01*
G37*
%TD.AperFunction*%
%TA.AperFunction,Conductor*%
G36*
X83004432Y-76825185D02*
G01*
X83050187Y-76877989D01*
X83060131Y-76947147D01*
X83031106Y-77010703D01*
X83013866Y-77027111D01*
X82911815Y-77107062D01*
X83910682Y-78105929D01*
X83792934Y-78191478D01*
X83642678Y-78341734D01*
X83557129Y-78459482D01*
X82558262Y-77460615D01*
X82405057Y-77656168D01*
X82232945Y-77940878D01*
X82232936Y-77940894D01*
X82163575Y-78095009D01*
X82118111Y-78148064D01*
X82051181Y-78168116D01*
X81984034Y-78148800D01*
X81937990Y-78096248D01*
X81926500Y-78044118D01*
X81926500Y-76929500D01*
X81946185Y-76862461D01*
X81998989Y-76816706D01*
X82050500Y-76805500D01*
X82937393Y-76805500D01*
X83004432Y-76825185D01*
G37*
%TD.AperFunction*%
%TD*%
M02*
