%TF.GenerationSoftware,KiCad,Pcbnew,8.0.1*%
%TF.CreationDate,2024-04-06T07:23:05-07:00*%
%TF.ProjectId,kiss_sdr_r2,6b697373-5f73-4647-925f-72322e6b6963,rev?*%
%TF.SameCoordinates,Original*%
%TF.FileFunction,Legend,Top*%
%TF.FilePolarity,Positive*%
%FSLAX46Y46*%
G04 Gerber Fmt 4.6, Leading zero omitted, Abs format (unit mm)*
G04 Created by KiCad (PCBNEW 8.0.1) date 2024-04-06 07:23:05*
%MOMM*%
%LPD*%
G01*
G04 APERTURE LIST*
G04 Aperture macros list*
%AMRoundRect*
0 Rectangle with rounded corners*
0 $1 Rounding radius*
0 $2 $3 $4 $5 $6 $7 $8 $9 X,Y pos of 4 corners*
0 Add a 4 corners polygon primitive as box body*
4,1,4,$2,$3,$4,$5,$6,$7,$8,$9,$2,$3,0*
0 Add four circle primitives for the rounded corners*
1,1,$1+$1,$2,$3*
1,1,$1+$1,$4,$5*
1,1,$1+$1,$6,$7*
1,1,$1+$1,$8,$9*
0 Add four rect primitives between the rounded corners*
20,1,$1+$1,$2,$3,$4,$5,0*
20,1,$1+$1,$4,$5,$6,$7,0*
20,1,$1+$1,$6,$7,$8,$9,0*
20,1,$1+$1,$8,$9,$2,$3,0*%
G04 Aperture macros list end*
%ADD10C,0.200000*%
%ADD11C,0.250000*%
%ADD12C,0.300000*%
%ADD13C,0.150000*%
%ADD14C,0.100000*%
%ADD15C,0.120000*%
%ADD16RoundRect,0.250000X-0.350000X-0.450000X0.350000X-0.450000X0.350000X0.450000X-0.350000X0.450000X0*%
%ADD17R,3.600000X1.270000*%
%ADD18R,4.200000X1.350000*%
%ADD19RoundRect,0.150000X-0.512500X-0.150000X0.512500X-0.150000X0.512500X0.150000X-0.512500X0.150000X0*%
%ADD20RoundRect,0.150000X-0.825000X-0.150000X0.825000X-0.150000X0.825000X0.150000X-0.825000X0.150000X0*%
%ADD21C,2.000000*%
%ADD22RoundRect,0.250000X-0.450000X0.350000X-0.450000X-0.350000X0.450000X-0.350000X0.450000X0.350000X0*%
%ADD23RoundRect,0.250000X0.475000X-0.337500X0.475000X0.337500X-0.475000X0.337500X-0.475000X-0.337500X0*%
%ADD24C,1.524000*%
%ADD25C,4.000000*%
%ADD26R,1.700000X1.700000*%
%ADD27O,1.700000X1.700000*%
%ADD28RoundRect,0.375000X0.375000X-0.625000X0.375000X0.625000X-0.375000X0.625000X-0.375000X-0.625000X0*%
%ADD29RoundRect,0.500000X1.400000X-0.500000X1.400000X0.500000X-1.400000X0.500000X-1.400000X-0.500000X0*%
%ADD30RoundRect,0.250000X0.350000X0.450000X-0.350000X0.450000X-0.350000X-0.450000X0.350000X-0.450000X0*%
%ADD31RoundRect,0.150000X-0.837500X-0.150000X0.837500X-0.150000X0.837500X0.150000X-0.837500X0.150000X0*%
%ADD32RoundRect,0.250000X-0.337500X-0.475000X0.337500X-0.475000X0.337500X0.475000X-0.337500X0.475000X0*%
%ADD33C,4.500000*%
%ADD34R,1.520000X1.270000*%
%ADD35RoundRect,0.250000X-0.475000X0.337500X-0.475000X-0.337500X0.475000X-0.337500X0.475000X0.337500X0*%
%ADD36RoundRect,0.250000X0.450000X-0.350000X0.450000X0.350000X-0.450000X0.350000X-0.450000X-0.350000X0*%
%ADD37RoundRect,0.250000X0.337500X0.475000X-0.337500X0.475000X-0.337500X-0.475000X0.337500X-0.475000X0*%
%ADD38RoundRect,0.250000X-0.700000X0.362500X-0.700000X-0.362500X0.700000X-0.362500X0.700000X0.362500X0*%
%ADD39RoundRect,0.150000X0.150000X-0.587500X0.150000X0.587500X-0.150000X0.587500X-0.150000X-0.587500X0*%
%ADD40RoundRect,0.150000X-0.725000X-0.150000X0.725000X-0.150000X0.725000X0.150000X-0.725000X0.150000X0*%
%ADD41RoundRect,0.250000X0.700000X-0.362500X0.700000X0.362500X-0.700000X0.362500X-0.700000X-0.362500X0*%
%ADD42RoundRect,0.250001X-0.462499X-0.624999X0.462499X-0.624999X0.462499X0.624999X-0.462499X0.624999X0*%
%ADD43C,1.700000*%
%ADD44R,2.200000X2.800000*%
%ADD45R,2.800000X2.800000*%
%ADD46RoundRect,0.250001X0.462499X0.624999X-0.462499X0.624999X-0.462499X-0.624999X0.462499X-0.624999X0*%
%ADD47RoundRect,0.150000X-0.587500X-0.150000X0.587500X-0.150000X0.587500X0.150000X-0.587500X0.150000X0*%
G04 APERTURE END LIST*
D10*
X175298854Y-98344600D02*
X175441711Y-98392219D01*
X175441711Y-98392219D02*
X175679806Y-98392219D01*
X175679806Y-98392219D02*
X175775044Y-98344600D01*
X175775044Y-98344600D02*
X175822663Y-98296980D01*
X175822663Y-98296980D02*
X175870282Y-98201742D01*
X175870282Y-98201742D02*
X175870282Y-98106504D01*
X175870282Y-98106504D02*
X175822663Y-98011266D01*
X175822663Y-98011266D02*
X175775044Y-97963647D01*
X175775044Y-97963647D02*
X175679806Y-97916028D01*
X175679806Y-97916028D02*
X175489330Y-97868409D01*
X175489330Y-97868409D02*
X175394092Y-97820790D01*
X175394092Y-97820790D02*
X175346473Y-97773171D01*
X175346473Y-97773171D02*
X175298854Y-97677933D01*
X175298854Y-97677933D02*
X175298854Y-97582695D01*
X175298854Y-97582695D02*
X175346473Y-97487457D01*
X175346473Y-97487457D02*
X175394092Y-97439838D01*
X175394092Y-97439838D02*
X175489330Y-97392219D01*
X175489330Y-97392219D02*
X175727425Y-97392219D01*
X175727425Y-97392219D02*
X175870282Y-97439838D01*
X176298854Y-98392219D02*
X176298854Y-97392219D01*
X176298854Y-97392219D02*
X176536949Y-97392219D01*
X176536949Y-97392219D02*
X176679806Y-97439838D01*
X176679806Y-97439838D02*
X176775044Y-97535076D01*
X176775044Y-97535076D02*
X176822663Y-97630314D01*
X176822663Y-97630314D02*
X176870282Y-97820790D01*
X176870282Y-97820790D02*
X176870282Y-97963647D01*
X176870282Y-97963647D02*
X176822663Y-98154123D01*
X176822663Y-98154123D02*
X176775044Y-98249361D01*
X176775044Y-98249361D02*
X176679806Y-98344600D01*
X176679806Y-98344600D02*
X176536949Y-98392219D01*
X176536949Y-98392219D02*
X176298854Y-98392219D01*
X177251235Y-98106504D02*
X177727425Y-98106504D01*
X177155997Y-98392219D02*
X177489330Y-97392219D01*
X177489330Y-97392219D02*
X177822663Y-98392219D01*
X176291638Y-106431517D02*
X176244019Y-106526755D01*
X176244019Y-106526755D02*
X176244019Y-106669612D01*
X176244019Y-106669612D02*
X176291638Y-106812469D01*
X176291638Y-106812469D02*
X176386876Y-106907707D01*
X176386876Y-106907707D02*
X176482114Y-106955326D01*
X176482114Y-106955326D02*
X176672590Y-107002945D01*
X176672590Y-107002945D02*
X176815447Y-107002945D01*
X176815447Y-107002945D02*
X177005923Y-106955326D01*
X177005923Y-106955326D02*
X177101161Y-106907707D01*
X177101161Y-106907707D02*
X177196400Y-106812469D01*
X177196400Y-106812469D02*
X177244019Y-106669612D01*
X177244019Y-106669612D02*
X177244019Y-106574374D01*
X177244019Y-106574374D02*
X177196400Y-106431517D01*
X177196400Y-106431517D02*
X177148780Y-106383898D01*
X177148780Y-106383898D02*
X176815447Y-106383898D01*
X176815447Y-106383898D02*
X176815447Y-106574374D01*
X177244019Y-105955326D02*
X176244019Y-105955326D01*
X176244019Y-105955326D02*
X177244019Y-105383898D01*
X177244019Y-105383898D02*
X176244019Y-105383898D01*
X177244019Y-104907707D02*
X176244019Y-104907707D01*
X176244019Y-104907707D02*
X176244019Y-104669612D01*
X176244019Y-104669612D02*
X176291638Y-104526755D01*
X176291638Y-104526755D02*
X176386876Y-104431517D01*
X176386876Y-104431517D02*
X176482114Y-104383898D01*
X176482114Y-104383898D02*
X176672590Y-104336279D01*
X176672590Y-104336279D02*
X176815447Y-104336279D01*
X176815447Y-104336279D02*
X177005923Y-104383898D01*
X177005923Y-104383898D02*
X177101161Y-104431517D01*
X177101161Y-104431517D02*
X177196400Y-104526755D01*
X177196400Y-104526755D02*
X177244019Y-104669612D01*
X177244019Y-104669612D02*
X177244019Y-104907707D01*
X175298854Y-101144600D02*
X175441711Y-101192219D01*
X175441711Y-101192219D02*
X175679806Y-101192219D01*
X175679806Y-101192219D02*
X175775044Y-101144600D01*
X175775044Y-101144600D02*
X175822663Y-101096980D01*
X175822663Y-101096980D02*
X175870282Y-101001742D01*
X175870282Y-101001742D02*
X175870282Y-100906504D01*
X175870282Y-100906504D02*
X175822663Y-100811266D01*
X175822663Y-100811266D02*
X175775044Y-100763647D01*
X175775044Y-100763647D02*
X175679806Y-100716028D01*
X175679806Y-100716028D02*
X175489330Y-100668409D01*
X175489330Y-100668409D02*
X175394092Y-100620790D01*
X175394092Y-100620790D02*
X175346473Y-100573171D01*
X175346473Y-100573171D02*
X175298854Y-100477933D01*
X175298854Y-100477933D02*
X175298854Y-100382695D01*
X175298854Y-100382695D02*
X175346473Y-100287457D01*
X175346473Y-100287457D02*
X175394092Y-100239838D01*
X175394092Y-100239838D02*
X175489330Y-100192219D01*
X175489330Y-100192219D02*
X175727425Y-100192219D01*
X175727425Y-100192219D02*
X175870282Y-100239838D01*
X176870282Y-101096980D02*
X176822663Y-101144600D01*
X176822663Y-101144600D02*
X176679806Y-101192219D01*
X176679806Y-101192219D02*
X176584568Y-101192219D01*
X176584568Y-101192219D02*
X176441711Y-101144600D01*
X176441711Y-101144600D02*
X176346473Y-101049361D01*
X176346473Y-101049361D02*
X176298854Y-100954123D01*
X176298854Y-100954123D02*
X176251235Y-100763647D01*
X176251235Y-100763647D02*
X176251235Y-100620790D01*
X176251235Y-100620790D02*
X176298854Y-100430314D01*
X176298854Y-100430314D02*
X176346473Y-100335076D01*
X176346473Y-100335076D02*
X176441711Y-100239838D01*
X176441711Y-100239838D02*
X176584568Y-100192219D01*
X176584568Y-100192219D02*
X176679806Y-100192219D01*
X176679806Y-100192219D02*
X176822663Y-100239838D01*
X176822663Y-100239838D02*
X176870282Y-100287457D01*
X177775044Y-101192219D02*
X177298854Y-101192219D01*
X177298854Y-101192219D02*
X177298854Y-100192219D01*
D11*
X103107939Y-113022952D02*
X103107939Y-113689619D01*
X102869844Y-112642000D02*
X102631749Y-113356285D01*
X102631749Y-113356285D02*
X103250796Y-113356285D01*
X104346034Y-112642000D02*
X103488892Y-113927714D01*
X105107939Y-113022952D02*
X105107939Y-113689619D01*
X104869844Y-112642000D02*
X104631749Y-113356285D01*
X104631749Y-113356285D02*
X105250796Y-113356285D01*
X106346034Y-112642000D02*
X105488892Y-113927714D01*
X106631749Y-112784857D02*
X106679368Y-112737238D01*
X106679368Y-112737238D02*
X106774606Y-112689619D01*
X106774606Y-112689619D02*
X107012701Y-112689619D01*
X107012701Y-112689619D02*
X107107939Y-112737238D01*
X107107939Y-112737238D02*
X107155558Y-112784857D01*
X107155558Y-112784857D02*
X107203177Y-112880095D01*
X107203177Y-112880095D02*
X107203177Y-112975333D01*
X107203177Y-112975333D02*
X107155558Y-113118190D01*
X107155558Y-113118190D02*
X106584130Y-113689619D01*
X106584130Y-113689619D02*
X107203177Y-113689619D01*
X108060320Y-113022952D02*
X108060320Y-113689619D01*
X107822225Y-112642000D02*
X107584130Y-113356285D01*
X107584130Y-113356285D02*
X108203177Y-113356285D01*
D12*
X101081310Y-111125828D02*
X101081310Y-109625828D01*
X101224168Y-110554400D02*
X101652739Y-111125828D01*
X101652739Y-110125828D02*
X101081310Y-110697257D01*
X102295596Y-111125828D02*
X102295596Y-110125828D01*
X102295596Y-109625828D02*
X102224168Y-109697257D01*
X102224168Y-109697257D02*
X102295596Y-109768685D01*
X102295596Y-109768685D02*
X102367025Y-109697257D01*
X102367025Y-109697257D02*
X102295596Y-109625828D01*
X102295596Y-109625828D02*
X102295596Y-109768685D01*
X102938454Y-111054400D02*
X103081311Y-111125828D01*
X103081311Y-111125828D02*
X103367025Y-111125828D01*
X103367025Y-111125828D02*
X103509882Y-111054400D01*
X103509882Y-111054400D02*
X103581311Y-110911542D01*
X103581311Y-110911542D02*
X103581311Y-110840114D01*
X103581311Y-110840114D02*
X103509882Y-110697257D01*
X103509882Y-110697257D02*
X103367025Y-110625828D01*
X103367025Y-110625828D02*
X103152740Y-110625828D01*
X103152740Y-110625828D02*
X103009882Y-110554400D01*
X103009882Y-110554400D02*
X102938454Y-110411542D01*
X102938454Y-110411542D02*
X102938454Y-110340114D01*
X102938454Y-110340114D02*
X103009882Y-110197257D01*
X103009882Y-110197257D02*
X103152740Y-110125828D01*
X103152740Y-110125828D02*
X103367025Y-110125828D01*
X103367025Y-110125828D02*
X103509882Y-110197257D01*
X104152740Y-111054400D02*
X104295597Y-111125828D01*
X104295597Y-111125828D02*
X104581311Y-111125828D01*
X104581311Y-111125828D02*
X104724168Y-111054400D01*
X104724168Y-111054400D02*
X104795597Y-110911542D01*
X104795597Y-110911542D02*
X104795597Y-110840114D01*
X104795597Y-110840114D02*
X104724168Y-110697257D01*
X104724168Y-110697257D02*
X104581311Y-110625828D01*
X104581311Y-110625828D02*
X104367026Y-110625828D01*
X104367026Y-110625828D02*
X104224168Y-110554400D01*
X104224168Y-110554400D02*
X104152740Y-110411542D01*
X104152740Y-110411542D02*
X104152740Y-110340114D01*
X104152740Y-110340114D02*
X104224168Y-110197257D01*
X104224168Y-110197257D02*
X104367026Y-110125828D01*
X104367026Y-110125828D02*
X104581311Y-110125828D01*
X104581311Y-110125828D02*
X104724168Y-110197257D01*
X105081312Y-111268685D02*
X106224169Y-111268685D01*
X106509883Y-111054400D02*
X106652740Y-111125828D01*
X106652740Y-111125828D02*
X106938454Y-111125828D01*
X106938454Y-111125828D02*
X107081311Y-111054400D01*
X107081311Y-111054400D02*
X107152740Y-110911542D01*
X107152740Y-110911542D02*
X107152740Y-110840114D01*
X107152740Y-110840114D02*
X107081311Y-110697257D01*
X107081311Y-110697257D02*
X106938454Y-110625828D01*
X106938454Y-110625828D02*
X106724169Y-110625828D01*
X106724169Y-110625828D02*
X106581311Y-110554400D01*
X106581311Y-110554400D02*
X106509883Y-110411542D01*
X106509883Y-110411542D02*
X106509883Y-110340114D01*
X106509883Y-110340114D02*
X106581311Y-110197257D01*
X106581311Y-110197257D02*
X106724169Y-110125828D01*
X106724169Y-110125828D02*
X106938454Y-110125828D01*
X106938454Y-110125828D02*
X107081311Y-110197257D01*
X108438455Y-111125828D02*
X108438455Y-109625828D01*
X108438455Y-111054400D02*
X108295597Y-111125828D01*
X108295597Y-111125828D02*
X108009883Y-111125828D01*
X108009883Y-111125828D02*
X107867026Y-111054400D01*
X107867026Y-111054400D02*
X107795597Y-110982971D01*
X107795597Y-110982971D02*
X107724169Y-110840114D01*
X107724169Y-110840114D02*
X107724169Y-110411542D01*
X107724169Y-110411542D02*
X107795597Y-110268685D01*
X107795597Y-110268685D02*
X107867026Y-110197257D01*
X107867026Y-110197257D02*
X108009883Y-110125828D01*
X108009883Y-110125828D02*
X108295597Y-110125828D01*
X108295597Y-110125828D02*
X108438455Y-110197257D01*
X109152740Y-111125828D02*
X109152740Y-110125828D01*
X109152740Y-110411542D02*
X109224169Y-110268685D01*
X109224169Y-110268685D02*
X109295598Y-110197257D01*
X109295598Y-110197257D02*
X109438455Y-110125828D01*
X109438455Y-110125828D02*
X109581312Y-110125828D01*
X110152740Y-111054400D02*
X110152740Y-111125828D01*
X110152740Y-111125828D02*
X110081311Y-111268685D01*
X110081311Y-111268685D02*
X110009883Y-111340114D01*
X111938454Y-111125828D02*
X111938454Y-110125828D01*
X111938454Y-110411542D02*
X112009883Y-110268685D01*
X112009883Y-110268685D02*
X112081312Y-110197257D01*
X112081312Y-110197257D02*
X112224169Y-110125828D01*
X112224169Y-110125828D02*
X112367026Y-110125828D01*
X113438454Y-111054400D02*
X113295597Y-111125828D01*
X113295597Y-111125828D02*
X113009883Y-111125828D01*
X113009883Y-111125828D02*
X112867025Y-111054400D01*
X112867025Y-111054400D02*
X112795597Y-110911542D01*
X112795597Y-110911542D02*
X112795597Y-110340114D01*
X112795597Y-110340114D02*
X112867025Y-110197257D01*
X112867025Y-110197257D02*
X113009883Y-110125828D01*
X113009883Y-110125828D02*
X113295597Y-110125828D01*
X113295597Y-110125828D02*
X113438454Y-110197257D01*
X113438454Y-110197257D02*
X113509883Y-110340114D01*
X113509883Y-110340114D02*
X113509883Y-110482971D01*
X113509883Y-110482971D02*
X112795597Y-110625828D01*
X114009882Y-110125828D02*
X114367025Y-111125828D01*
X114367025Y-111125828D02*
X114724168Y-110125828D01*
X115581311Y-109625828D02*
X115724168Y-109625828D01*
X115724168Y-109625828D02*
X115867025Y-109697257D01*
X115867025Y-109697257D02*
X115938454Y-109768685D01*
X115938454Y-109768685D02*
X116009882Y-109911542D01*
X116009882Y-109911542D02*
X116081311Y-110197257D01*
X116081311Y-110197257D02*
X116081311Y-110554400D01*
X116081311Y-110554400D02*
X116009882Y-110840114D01*
X116009882Y-110840114D02*
X115938454Y-110982971D01*
X115938454Y-110982971D02*
X115867025Y-111054400D01*
X115867025Y-111054400D02*
X115724168Y-111125828D01*
X115724168Y-111125828D02*
X115581311Y-111125828D01*
X115581311Y-111125828D02*
X115438454Y-111054400D01*
X115438454Y-111054400D02*
X115367025Y-110982971D01*
X115367025Y-110982971D02*
X115295596Y-110840114D01*
X115295596Y-110840114D02*
X115224168Y-110554400D01*
X115224168Y-110554400D02*
X115224168Y-110197257D01*
X115224168Y-110197257D02*
X115295596Y-109911542D01*
X115295596Y-109911542D02*
X115367025Y-109768685D01*
X115367025Y-109768685D02*
X115438454Y-109697257D01*
X115438454Y-109697257D02*
X115581311Y-109625828D01*
X116724167Y-110982971D02*
X116795596Y-111054400D01*
X116795596Y-111054400D02*
X116724167Y-111125828D01*
X116724167Y-111125828D02*
X116652739Y-111054400D01*
X116652739Y-111054400D02*
X116724167Y-110982971D01*
X116724167Y-110982971D02*
X116724167Y-111125828D01*
X117367025Y-109768685D02*
X117438453Y-109697257D01*
X117438453Y-109697257D02*
X117581311Y-109625828D01*
X117581311Y-109625828D02*
X117938453Y-109625828D01*
X117938453Y-109625828D02*
X118081311Y-109697257D01*
X118081311Y-109697257D02*
X118152739Y-109768685D01*
X118152739Y-109768685D02*
X118224168Y-109911542D01*
X118224168Y-109911542D02*
X118224168Y-110054400D01*
X118224168Y-110054400D02*
X118152739Y-110268685D01*
X118152739Y-110268685D02*
X117295596Y-111125828D01*
X117295596Y-111125828D02*
X118224168Y-111125828D01*
D10*
X176422663Y-102392219D02*
X175946473Y-102392219D01*
X175946473Y-102392219D02*
X175898854Y-102868409D01*
X175898854Y-102868409D02*
X175946473Y-102820790D01*
X175946473Y-102820790D02*
X176041711Y-102773171D01*
X176041711Y-102773171D02*
X176279806Y-102773171D01*
X176279806Y-102773171D02*
X176375044Y-102820790D01*
X176375044Y-102820790D02*
X176422663Y-102868409D01*
X176422663Y-102868409D02*
X176470282Y-102963647D01*
X176470282Y-102963647D02*
X176470282Y-103201742D01*
X176470282Y-103201742D02*
X176422663Y-103296980D01*
X176422663Y-103296980D02*
X176375044Y-103344600D01*
X176375044Y-103344600D02*
X176279806Y-103392219D01*
X176279806Y-103392219D02*
X176041711Y-103392219D01*
X176041711Y-103392219D02*
X175946473Y-103344600D01*
X175946473Y-103344600D02*
X175898854Y-103296980D01*
X176755997Y-102392219D02*
X177089330Y-103392219D01*
X177089330Y-103392219D02*
X177422663Y-102392219D01*
D13*
X147133942Y-90029819D02*
X146800609Y-89553628D01*
X146562514Y-90029819D02*
X146562514Y-89029819D01*
X146562514Y-89029819D02*
X146943466Y-89029819D01*
X146943466Y-89029819D02*
X147038704Y-89077438D01*
X147038704Y-89077438D02*
X147086323Y-89125057D01*
X147086323Y-89125057D02*
X147133942Y-89220295D01*
X147133942Y-89220295D02*
X147133942Y-89363152D01*
X147133942Y-89363152D02*
X147086323Y-89458390D01*
X147086323Y-89458390D02*
X147038704Y-89506009D01*
X147038704Y-89506009D02*
X146943466Y-89553628D01*
X146943466Y-89553628D02*
X146562514Y-89553628D01*
X148086323Y-90029819D02*
X147514895Y-90029819D01*
X147800609Y-90029819D02*
X147800609Y-89029819D01*
X147800609Y-89029819D02*
X147705371Y-89172676D01*
X147705371Y-89172676D02*
X147610133Y-89267914D01*
X147610133Y-89267914D02*
X147514895Y-89315533D01*
X148657752Y-89458390D02*
X148562514Y-89410771D01*
X148562514Y-89410771D02*
X148514895Y-89363152D01*
X148514895Y-89363152D02*
X148467276Y-89267914D01*
X148467276Y-89267914D02*
X148467276Y-89220295D01*
X148467276Y-89220295D02*
X148514895Y-89125057D01*
X148514895Y-89125057D02*
X148562514Y-89077438D01*
X148562514Y-89077438D02*
X148657752Y-89029819D01*
X148657752Y-89029819D02*
X148848228Y-89029819D01*
X148848228Y-89029819D02*
X148943466Y-89077438D01*
X148943466Y-89077438D02*
X148991085Y-89125057D01*
X148991085Y-89125057D02*
X149038704Y-89220295D01*
X149038704Y-89220295D02*
X149038704Y-89267914D01*
X149038704Y-89267914D02*
X148991085Y-89363152D01*
X148991085Y-89363152D02*
X148943466Y-89410771D01*
X148943466Y-89410771D02*
X148848228Y-89458390D01*
X148848228Y-89458390D02*
X148657752Y-89458390D01*
X148657752Y-89458390D02*
X148562514Y-89506009D01*
X148562514Y-89506009D02*
X148514895Y-89553628D01*
X148514895Y-89553628D02*
X148467276Y-89648866D01*
X148467276Y-89648866D02*
X148467276Y-89839342D01*
X148467276Y-89839342D02*
X148514895Y-89934580D01*
X148514895Y-89934580D02*
X148562514Y-89982200D01*
X148562514Y-89982200D02*
X148657752Y-90029819D01*
X148657752Y-90029819D02*
X148848228Y-90029819D01*
X148848228Y-90029819D02*
X148943466Y-89982200D01*
X148943466Y-89982200D02*
X148991085Y-89934580D01*
X148991085Y-89934580D02*
X149038704Y-89839342D01*
X149038704Y-89839342D02*
X149038704Y-89648866D01*
X149038704Y-89648866D02*
X148991085Y-89553628D01*
X148991085Y-89553628D02*
X148943466Y-89506009D01*
X148943466Y-89506009D02*
X148848228Y-89458390D01*
X83993466Y-82529819D02*
X83993466Y-83244104D01*
X83993466Y-83244104D02*
X83945847Y-83386961D01*
X83945847Y-83386961D02*
X83850609Y-83482200D01*
X83850609Y-83482200D02*
X83707752Y-83529819D01*
X83707752Y-83529819D02*
X83612514Y-83529819D01*
X84422038Y-82625057D02*
X84469657Y-82577438D01*
X84469657Y-82577438D02*
X84564895Y-82529819D01*
X84564895Y-82529819D02*
X84802990Y-82529819D01*
X84802990Y-82529819D02*
X84898228Y-82577438D01*
X84898228Y-82577438D02*
X84945847Y-82625057D01*
X84945847Y-82625057D02*
X84993466Y-82720295D01*
X84993466Y-82720295D02*
X84993466Y-82815533D01*
X84993466Y-82815533D02*
X84945847Y-82958390D01*
X84945847Y-82958390D02*
X84374419Y-83529819D01*
X84374419Y-83529819D02*
X84993466Y-83529819D01*
X131079595Y-111029819D02*
X131079595Y-111839342D01*
X131079595Y-111839342D02*
X131127214Y-111934580D01*
X131127214Y-111934580D02*
X131174833Y-111982200D01*
X131174833Y-111982200D02*
X131270071Y-112029819D01*
X131270071Y-112029819D02*
X131460547Y-112029819D01*
X131460547Y-112029819D02*
X131555785Y-111982200D01*
X131555785Y-111982200D02*
X131603404Y-111934580D01*
X131603404Y-111934580D02*
X131651023Y-111839342D01*
X131651023Y-111839342D02*
X131651023Y-111029819D01*
X132079595Y-111125057D02*
X132127214Y-111077438D01*
X132127214Y-111077438D02*
X132222452Y-111029819D01*
X132222452Y-111029819D02*
X132460547Y-111029819D01*
X132460547Y-111029819D02*
X132555785Y-111077438D01*
X132555785Y-111077438D02*
X132603404Y-111125057D01*
X132603404Y-111125057D02*
X132651023Y-111220295D01*
X132651023Y-111220295D02*
X132651023Y-111315533D01*
X132651023Y-111315533D02*
X132603404Y-111458390D01*
X132603404Y-111458390D02*
X132031976Y-112029819D01*
X132031976Y-112029819D02*
X132651023Y-112029819D01*
X151764895Y-79779819D02*
X151764895Y-80589342D01*
X151764895Y-80589342D02*
X151812514Y-80684580D01*
X151812514Y-80684580D02*
X151860133Y-80732200D01*
X151860133Y-80732200D02*
X151955371Y-80779819D01*
X151955371Y-80779819D02*
X152145847Y-80779819D01*
X152145847Y-80779819D02*
X152241085Y-80732200D01*
X152241085Y-80732200D02*
X152288704Y-80684580D01*
X152288704Y-80684580D02*
X152336323Y-80589342D01*
X152336323Y-80589342D02*
X152336323Y-79779819D01*
X153241085Y-80113152D02*
X153241085Y-80779819D01*
X153002990Y-79732200D02*
X152764895Y-80446485D01*
X152764895Y-80446485D02*
X153383942Y-80446485D01*
X119395848Y-119232200D02*
X119491086Y-119279819D01*
X119491086Y-119279819D02*
X119681562Y-119279819D01*
X119681562Y-119279819D02*
X119776800Y-119232200D01*
X119776800Y-119232200D02*
X119824419Y-119136961D01*
X119824419Y-119136961D02*
X119824419Y-119089342D01*
X119824419Y-119089342D02*
X119776800Y-118994104D01*
X119776800Y-118994104D02*
X119681562Y-118946485D01*
X119681562Y-118946485D02*
X119538705Y-118946485D01*
X119538705Y-118946485D02*
X119443467Y-118898866D01*
X119443467Y-118898866D02*
X119395848Y-118803628D01*
X119395848Y-118803628D02*
X119395848Y-118756009D01*
X119395848Y-118756009D02*
X119443467Y-118660771D01*
X119443467Y-118660771D02*
X119538705Y-118613152D01*
X119538705Y-118613152D02*
X119681562Y-118613152D01*
X119681562Y-118613152D02*
X119776800Y-118660771D01*
X120252991Y-119279819D02*
X120252991Y-118613152D01*
X120252991Y-118279819D02*
X120205372Y-118327438D01*
X120205372Y-118327438D02*
X120252991Y-118375057D01*
X120252991Y-118375057D02*
X120300610Y-118327438D01*
X120300610Y-118327438D02*
X120252991Y-118279819D01*
X120252991Y-118279819D02*
X120252991Y-118375057D01*
X121157752Y-118613152D02*
X121157752Y-119422676D01*
X121157752Y-119422676D02*
X121110133Y-119517914D01*
X121110133Y-119517914D02*
X121062514Y-119565533D01*
X121062514Y-119565533D02*
X120967276Y-119613152D01*
X120967276Y-119613152D02*
X120824419Y-119613152D01*
X120824419Y-119613152D02*
X120729181Y-119565533D01*
X121157752Y-119232200D02*
X121062514Y-119279819D01*
X121062514Y-119279819D02*
X120872038Y-119279819D01*
X120872038Y-119279819D02*
X120776800Y-119232200D01*
X120776800Y-119232200D02*
X120729181Y-119184580D01*
X120729181Y-119184580D02*
X120681562Y-119089342D01*
X120681562Y-119089342D02*
X120681562Y-118803628D01*
X120681562Y-118803628D02*
X120729181Y-118708390D01*
X120729181Y-118708390D02*
X120776800Y-118660771D01*
X120776800Y-118660771D02*
X120872038Y-118613152D01*
X120872038Y-118613152D02*
X121062514Y-118613152D01*
X121062514Y-118613152D02*
X121157752Y-118660771D01*
X122062514Y-118613152D02*
X122062514Y-119279819D01*
X121824419Y-118232200D02*
X121586324Y-118946485D01*
X121586324Y-118946485D02*
X122205371Y-118946485D01*
X129955371Y-118434580D02*
X129907752Y-118482200D01*
X129907752Y-118482200D02*
X129764895Y-118529819D01*
X129764895Y-118529819D02*
X129669657Y-118529819D01*
X129669657Y-118529819D02*
X129526800Y-118482200D01*
X129526800Y-118482200D02*
X129431562Y-118386961D01*
X129431562Y-118386961D02*
X129383943Y-118291723D01*
X129383943Y-118291723D02*
X129336324Y-118101247D01*
X129336324Y-118101247D02*
X129336324Y-117958390D01*
X129336324Y-117958390D02*
X129383943Y-117767914D01*
X129383943Y-117767914D02*
X129431562Y-117672676D01*
X129431562Y-117672676D02*
X129526800Y-117577438D01*
X129526800Y-117577438D02*
X129669657Y-117529819D01*
X129669657Y-117529819D02*
X129764895Y-117529819D01*
X129764895Y-117529819D02*
X129907752Y-117577438D01*
X129907752Y-117577438D02*
X129955371Y-117625057D01*
X130860133Y-118529819D02*
X130383943Y-118529819D01*
X130383943Y-118529819D02*
X130383943Y-117529819D01*
X131193467Y-118529819D02*
X131193467Y-117529819D01*
X131764895Y-118529819D02*
X131336324Y-117958390D01*
X131764895Y-117529819D02*
X131193467Y-118101247D01*
X132717276Y-118529819D02*
X132145848Y-118529819D01*
X132431562Y-118529819D02*
X132431562Y-117529819D01*
X132431562Y-117529819D02*
X132336324Y-117672676D01*
X132336324Y-117672676D02*
X132241086Y-117767914D01*
X132241086Y-117767914D02*
X132145848Y-117815533D01*
X175881619Y-105491666D02*
X175405428Y-105824999D01*
X175881619Y-106063094D02*
X174881619Y-106063094D01*
X174881619Y-106063094D02*
X174881619Y-105682142D01*
X174881619Y-105682142D02*
X174929238Y-105586904D01*
X174929238Y-105586904D02*
X174976857Y-105539285D01*
X174976857Y-105539285D02*
X175072095Y-105491666D01*
X175072095Y-105491666D02*
X175214952Y-105491666D01*
X175214952Y-105491666D02*
X175310190Y-105539285D01*
X175310190Y-105539285D02*
X175357809Y-105586904D01*
X175357809Y-105586904D02*
X175405428Y-105682142D01*
X175405428Y-105682142D02*
X175405428Y-106063094D01*
X174976857Y-105110713D02*
X174929238Y-105063094D01*
X174929238Y-105063094D02*
X174881619Y-104967856D01*
X174881619Y-104967856D02*
X174881619Y-104729761D01*
X174881619Y-104729761D02*
X174929238Y-104634523D01*
X174929238Y-104634523D02*
X174976857Y-104586904D01*
X174976857Y-104586904D02*
X175072095Y-104539285D01*
X175072095Y-104539285D02*
X175167333Y-104539285D01*
X175167333Y-104539285D02*
X175310190Y-104586904D01*
X175310190Y-104586904D02*
X175881619Y-105158332D01*
X175881619Y-105158332D02*
X175881619Y-104539285D01*
X125360133Y-113029819D02*
X125026800Y-112553628D01*
X124788705Y-113029819D02*
X124788705Y-112029819D01*
X124788705Y-112029819D02*
X125169657Y-112029819D01*
X125169657Y-112029819D02*
X125264895Y-112077438D01*
X125264895Y-112077438D02*
X125312514Y-112125057D01*
X125312514Y-112125057D02*
X125360133Y-112220295D01*
X125360133Y-112220295D02*
X125360133Y-112363152D01*
X125360133Y-112363152D02*
X125312514Y-112458390D01*
X125312514Y-112458390D02*
X125264895Y-112506009D01*
X125264895Y-112506009D02*
X125169657Y-112553628D01*
X125169657Y-112553628D02*
X124788705Y-112553628D01*
X126264895Y-112029819D02*
X125788705Y-112029819D01*
X125788705Y-112029819D02*
X125741086Y-112506009D01*
X125741086Y-112506009D02*
X125788705Y-112458390D01*
X125788705Y-112458390D02*
X125883943Y-112410771D01*
X125883943Y-112410771D02*
X126122038Y-112410771D01*
X126122038Y-112410771D02*
X126217276Y-112458390D01*
X126217276Y-112458390D02*
X126264895Y-112506009D01*
X126264895Y-112506009D02*
X126312514Y-112601247D01*
X126312514Y-112601247D02*
X126312514Y-112839342D01*
X126312514Y-112839342D02*
X126264895Y-112934580D01*
X126264895Y-112934580D02*
X126217276Y-112982200D01*
X126217276Y-112982200D02*
X126122038Y-113029819D01*
X126122038Y-113029819D02*
X125883943Y-113029819D01*
X125883943Y-113029819D02*
X125788705Y-112982200D01*
X125788705Y-112982200D02*
X125741086Y-112934580D01*
X128686380Y-90467857D02*
X128734000Y-90515476D01*
X128734000Y-90515476D02*
X128781619Y-90658333D01*
X128781619Y-90658333D02*
X128781619Y-90753571D01*
X128781619Y-90753571D02*
X128734000Y-90896428D01*
X128734000Y-90896428D02*
X128638761Y-90991666D01*
X128638761Y-90991666D02*
X128543523Y-91039285D01*
X128543523Y-91039285D02*
X128353047Y-91086904D01*
X128353047Y-91086904D02*
X128210190Y-91086904D01*
X128210190Y-91086904D02*
X128019714Y-91039285D01*
X128019714Y-91039285D02*
X127924476Y-90991666D01*
X127924476Y-90991666D02*
X127829238Y-90896428D01*
X127829238Y-90896428D02*
X127781619Y-90753571D01*
X127781619Y-90753571D02*
X127781619Y-90658333D01*
X127781619Y-90658333D02*
X127829238Y-90515476D01*
X127829238Y-90515476D02*
X127876857Y-90467857D01*
X128781619Y-89515476D02*
X128781619Y-90086904D01*
X128781619Y-89801190D02*
X127781619Y-89801190D01*
X127781619Y-89801190D02*
X127924476Y-89896428D01*
X127924476Y-89896428D02*
X128019714Y-89991666D01*
X128019714Y-89991666D02*
X128067333Y-90086904D01*
X127781619Y-88658333D02*
X127781619Y-88848809D01*
X127781619Y-88848809D02*
X127829238Y-88944047D01*
X127829238Y-88944047D02*
X127876857Y-88991666D01*
X127876857Y-88991666D02*
X128019714Y-89086904D01*
X128019714Y-89086904D02*
X128210190Y-89134523D01*
X128210190Y-89134523D02*
X128591142Y-89134523D01*
X128591142Y-89134523D02*
X128686380Y-89086904D01*
X128686380Y-89086904D02*
X128734000Y-89039285D01*
X128734000Y-89039285D02*
X128781619Y-88944047D01*
X128781619Y-88944047D02*
X128781619Y-88753571D01*
X128781619Y-88753571D02*
X128734000Y-88658333D01*
X128734000Y-88658333D02*
X128686380Y-88610714D01*
X128686380Y-88610714D02*
X128591142Y-88563095D01*
X128591142Y-88563095D02*
X128353047Y-88563095D01*
X128353047Y-88563095D02*
X128257809Y-88610714D01*
X128257809Y-88610714D02*
X128210190Y-88658333D01*
X128210190Y-88658333D02*
X128162571Y-88753571D01*
X128162571Y-88753571D02*
X128162571Y-88944047D01*
X128162571Y-88944047D02*
X128210190Y-89039285D01*
X128210190Y-89039285D02*
X128257809Y-89086904D01*
X128257809Y-89086904D02*
X128353047Y-89134523D01*
X97145848Y-79982200D02*
X97241086Y-80029819D01*
X97241086Y-80029819D02*
X97431562Y-80029819D01*
X97431562Y-80029819D02*
X97526800Y-79982200D01*
X97526800Y-79982200D02*
X97574419Y-79886961D01*
X97574419Y-79886961D02*
X97574419Y-79839342D01*
X97574419Y-79839342D02*
X97526800Y-79744104D01*
X97526800Y-79744104D02*
X97431562Y-79696485D01*
X97431562Y-79696485D02*
X97288705Y-79696485D01*
X97288705Y-79696485D02*
X97193467Y-79648866D01*
X97193467Y-79648866D02*
X97145848Y-79553628D01*
X97145848Y-79553628D02*
X97145848Y-79506009D01*
X97145848Y-79506009D02*
X97193467Y-79410771D01*
X97193467Y-79410771D02*
X97288705Y-79363152D01*
X97288705Y-79363152D02*
X97431562Y-79363152D01*
X97431562Y-79363152D02*
X97526800Y-79410771D01*
X98002991Y-80029819D02*
X98002991Y-79363152D01*
X98002991Y-79029819D02*
X97955372Y-79077438D01*
X97955372Y-79077438D02*
X98002991Y-79125057D01*
X98002991Y-79125057D02*
X98050610Y-79077438D01*
X98050610Y-79077438D02*
X98002991Y-79029819D01*
X98002991Y-79029819D02*
X98002991Y-79125057D01*
X98907752Y-79363152D02*
X98907752Y-80172676D01*
X98907752Y-80172676D02*
X98860133Y-80267914D01*
X98860133Y-80267914D02*
X98812514Y-80315533D01*
X98812514Y-80315533D02*
X98717276Y-80363152D01*
X98717276Y-80363152D02*
X98574419Y-80363152D01*
X98574419Y-80363152D02*
X98479181Y-80315533D01*
X98907752Y-79982200D02*
X98812514Y-80029819D01*
X98812514Y-80029819D02*
X98622038Y-80029819D01*
X98622038Y-80029819D02*
X98526800Y-79982200D01*
X98526800Y-79982200D02*
X98479181Y-79934580D01*
X98479181Y-79934580D02*
X98431562Y-79839342D01*
X98431562Y-79839342D02*
X98431562Y-79553628D01*
X98431562Y-79553628D02*
X98479181Y-79458390D01*
X98479181Y-79458390D02*
X98526800Y-79410771D01*
X98526800Y-79410771D02*
X98622038Y-79363152D01*
X98622038Y-79363152D02*
X98812514Y-79363152D01*
X98812514Y-79363152D02*
X98907752Y-79410771D01*
X99336324Y-79125057D02*
X99383943Y-79077438D01*
X99383943Y-79077438D02*
X99479181Y-79029819D01*
X99479181Y-79029819D02*
X99717276Y-79029819D01*
X99717276Y-79029819D02*
X99812514Y-79077438D01*
X99812514Y-79077438D02*
X99860133Y-79125057D01*
X99860133Y-79125057D02*
X99907752Y-79220295D01*
X99907752Y-79220295D02*
X99907752Y-79315533D01*
X99907752Y-79315533D02*
X99860133Y-79458390D01*
X99860133Y-79458390D02*
X99288705Y-80029819D01*
X99288705Y-80029819D02*
X99907752Y-80029819D01*
X167883942Y-78279819D02*
X167550609Y-77803628D01*
X167312514Y-78279819D02*
X167312514Y-77279819D01*
X167312514Y-77279819D02*
X167693466Y-77279819D01*
X167693466Y-77279819D02*
X167788704Y-77327438D01*
X167788704Y-77327438D02*
X167836323Y-77375057D01*
X167836323Y-77375057D02*
X167883942Y-77470295D01*
X167883942Y-77470295D02*
X167883942Y-77613152D01*
X167883942Y-77613152D02*
X167836323Y-77708390D01*
X167836323Y-77708390D02*
X167788704Y-77756009D01*
X167788704Y-77756009D02*
X167693466Y-77803628D01*
X167693466Y-77803628D02*
X167312514Y-77803628D01*
X168264895Y-77375057D02*
X168312514Y-77327438D01*
X168312514Y-77327438D02*
X168407752Y-77279819D01*
X168407752Y-77279819D02*
X168645847Y-77279819D01*
X168645847Y-77279819D02*
X168741085Y-77327438D01*
X168741085Y-77327438D02*
X168788704Y-77375057D01*
X168788704Y-77375057D02*
X168836323Y-77470295D01*
X168836323Y-77470295D02*
X168836323Y-77565533D01*
X168836323Y-77565533D02*
X168788704Y-77708390D01*
X168788704Y-77708390D02*
X168217276Y-78279819D01*
X168217276Y-78279819D02*
X168836323Y-78279819D01*
X169741085Y-77279819D02*
X169264895Y-77279819D01*
X169264895Y-77279819D02*
X169217276Y-77756009D01*
X169217276Y-77756009D02*
X169264895Y-77708390D01*
X169264895Y-77708390D02*
X169360133Y-77660771D01*
X169360133Y-77660771D02*
X169598228Y-77660771D01*
X169598228Y-77660771D02*
X169693466Y-77708390D01*
X169693466Y-77708390D02*
X169741085Y-77756009D01*
X169741085Y-77756009D02*
X169788704Y-77851247D01*
X169788704Y-77851247D02*
X169788704Y-78089342D01*
X169788704Y-78089342D02*
X169741085Y-78184580D01*
X169741085Y-78184580D02*
X169693466Y-78232200D01*
X169693466Y-78232200D02*
X169598228Y-78279819D01*
X169598228Y-78279819D02*
X169360133Y-78279819D01*
X169360133Y-78279819D02*
X169264895Y-78232200D01*
X169264895Y-78232200D02*
X169217276Y-78184580D01*
D14*
X153014895Y-114782419D02*
X153014895Y-115591942D01*
X153014895Y-115591942D02*
X153062514Y-115687180D01*
X153062514Y-115687180D02*
X153110133Y-115734800D01*
X153110133Y-115734800D02*
X153205371Y-115782419D01*
X153205371Y-115782419D02*
X153395847Y-115782419D01*
X153395847Y-115782419D02*
X153491085Y-115734800D01*
X153491085Y-115734800D02*
X153538704Y-115687180D01*
X153538704Y-115687180D02*
X153586323Y-115591942D01*
X153586323Y-115591942D02*
X153586323Y-114782419D01*
X154491085Y-114782419D02*
X154300609Y-114782419D01*
X154300609Y-114782419D02*
X154205371Y-114830038D01*
X154205371Y-114830038D02*
X154157752Y-114877657D01*
X154157752Y-114877657D02*
X154062514Y-115020514D01*
X154062514Y-115020514D02*
X154014895Y-115210990D01*
X154014895Y-115210990D02*
X154014895Y-115591942D01*
X154014895Y-115591942D02*
X154062514Y-115687180D01*
X154062514Y-115687180D02*
X154110133Y-115734800D01*
X154110133Y-115734800D02*
X154205371Y-115782419D01*
X154205371Y-115782419D02*
X154395847Y-115782419D01*
X154395847Y-115782419D02*
X154491085Y-115734800D01*
X154491085Y-115734800D02*
X154538704Y-115687180D01*
X154538704Y-115687180D02*
X154586323Y-115591942D01*
X154586323Y-115591942D02*
X154586323Y-115353847D01*
X154586323Y-115353847D02*
X154538704Y-115258609D01*
X154538704Y-115258609D02*
X154491085Y-115210990D01*
X154491085Y-115210990D02*
X154395847Y-115163371D01*
X154395847Y-115163371D02*
X154205371Y-115163371D01*
X154205371Y-115163371D02*
X154110133Y-115210990D01*
X154110133Y-115210990D02*
X154062514Y-115258609D01*
X154062514Y-115258609D02*
X154014895Y-115353847D01*
D13*
X130936380Y-90467857D02*
X130984000Y-90515476D01*
X130984000Y-90515476D02*
X131031619Y-90658333D01*
X131031619Y-90658333D02*
X131031619Y-90753571D01*
X131031619Y-90753571D02*
X130984000Y-90896428D01*
X130984000Y-90896428D02*
X130888761Y-90991666D01*
X130888761Y-90991666D02*
X130793523Y-91039285D01*
X130793523Y-91039285D02*
X130603047Y-91086904D01*
X130603047Y-91086904D02*
X130460190Y-91086904D01*
X130460190Y-91086904D02*
X130269714Y-91039285D01*
X130269714Y-91039285D02*
X130174476Y-90991666D01*
X130174476Y-90991666D02*
X130079238Y-90896428D01*
X130079238Y-90896428D02*
X130031619Y-90753571D01*
X130031619Y-90753571D02*
X130031619Y-90658333D01*
X130031619Y-90658333D02*
X130079238Y-90515476D01*
X130079238Y-90515476D02*
X130126857Y-90467857D01*
X131031619Y-89515476D02*
X131031619Y-90086904D01*
X131031619Y-89801190D02*
X130031619Y-89801190D01*
X130031619Y-89801190D02*
X130174476Y-89896428D01*
X130174476Y-89896428D02*
X130269714Y-89991666D01*
X130269714Y-89991666D02*
X130317333Y-90086904D01*
X130460190Y-88944047D02*
X130412571Y-89039285D01*
X130412571Y-89039285D02*
X130364952Y-89086904D01*
X130364952Y-89086904D02*
X130269714Y-89134523D01*
X130269714Y-89134523D02*
X130222095Y-89134523D01*
X130222095Y-89134523D02*
X130126857Y-89086904D01*
X130126857Y-89086904D02*
X130079238Y-89039285D01*
X130079238Y-89039285D02*
X130031619Y-88944047D01*
X130031619Y-88944047D02*
X130031619Y-88753571D01*
X130031619Y-88753571D02*
X130079238Y-88658333D01*
X130079238Y-88658333D02*
X130126857Y-88610714D01*
X130126857Y-88610714D02*
X130222095Y-88563095D01*
X130222095Y-88563095D02*
X130269714Y-88563095D01*
X130269714Y-88563095D02*
X130364952Y-88610714D01*
X130364952Y-88610714D02*
X130412571Y-88658333D01*
X130412571Y-88658333D02*
X130460190Y-88753571D01*
X130460190Y-88753571D02*
X130460190Y-88944047D01*
X130460190Y-88944047D02*
X130507809Y-89039285D01*
X130507809Y-89039285D02*
X130555428Y-89086904D01*
X130555428Y-89086904D02*
X130650666Y-89134523D01*
X130650666Y-89134523D02*
X130841142Y-89134523D01*
X130841142Y-89134523D02*
X130936380Y-89086904D01*
X130936380Y-89086904D02*
X130984000Y-89039285D01*
X130984000Y-89039285D02*
X131031619Y-88944047D01*
X131031619Y-88944047D02*
X131031619Y-88753571D01*
X131031619Y-88753571D02*
X130984000Y-88658333D01*
X130984000Y-88658333D02*
X130936380Y-88610714D01*
X130936380Y-88610714D02*
X130841142Y-88563095D01*
X130841142Y-88563095D02*
X130650666Y-88563095D01*
X130650666Y-88563095D02*
X130555428Y-88610714D01*
X130555428Y-88610714D02*
X130507809Y-88658333D01*
X130507809Y-88658333D02*
X130460190Y-88753571D01*
X133253842Y-107409380D02*
X133206223Y-107457000D01*
X133206223Y-107457000D02*
X133063366Y-107504619D01*
X133063366Y-107504619D02*
X132968128Y-107504619D01*
X132968128Y-107504619D02*
X132825271Y-107457000D01*
X132825271Y-107457000D02*
X132730033Y-107361761D01*
X132730033Y-107361761D02*
X132682414Y-107266523D01*
X132682414Y-107266523D02*
X132634795Y-107076047D01*
X132634795Y-107076047D02*
X132634795Y-106933190D01*
X132634795Y-106933190D02*
X132682414Y-106742714D01*
X132682414Y-106742714D02*
X132730033Y-106647476D01*
X132730033Y-106647476D02*
X132825271Y-106552238D01*
X132825271Y-106552238D02*
X132968128Y-106504619D01*
X132968128Y-106504619D02*
X133063366Y-106504619D01*
X133063366Y-106504619D02*
X133206223Y-106552238D01*
X133206223Y-106552238D02*
X133253842Y-106599857D01*
X134206223Y-107504619D02*
X133634795Y-107504619D01*
X133920509Y-107504619D02*
X133920509Y-106504619D01*
X133920509Y-106504619D02*
X133825271Y-106647476D01*
X133825271Y-106647476D02*
X133730033Y-106742714D01*
X133730033Y-106742714D02*
X133634795Y-106790333D01*
X135063366Y-106837952D02*
X135063366Y-107504619D01*
X134825271Y-106457000D02*
X134587176Y-107171285D01*
X134587176Y-107171285D02*
X135206223Y-107171285D01*
X123686133Y-113721119D02*
X123352800Y-113244928D01*
X123114705Y-113721119D02*
X123114705Y-112721119D01*
X123114705Y-112721119D02*
X123495657Y-112721119D01*
X123495657Y-112721119D02*
X123590895Y-112768738D01*
X123590895Y-112768738D02*
X123638514Y-112816357D01*
X123638514Y-112816357D02*
X123686133Y-112911595D01*
X123686133Y-112911595D02*
X123686133Y-113054452D01*
X123686133Y-113054452D02*
X123638514Y-113149690D01*
X123638514Y-113149690D02*
X123590895Y-113197309D01*
X123590895Y-113197309D02*
X123495657Y-113244928D01*
X123495657Y-113244928D02*
X123114705Y-113244928D01*
X124638514Y-113721119D02*
X124067086Y-113721119D01*
X124352800Y-113721119D02*
X124352800Y-112721119D01*
X124352800Y-112721119D02*
X124257562Y-112863976D01*
X124257562Y-112863976D02*
X124162324Y-112959214D01*
X124162324Y-112959214D02*
X124067086Y-113006833D01*
X179693466Y-107529819D02*
X179693466Y-108244104D01*
X179693466Y-108244104D02*
X179645847Y-108386961D01*
X179645847Y-108386961D02*
X179550609Y-108482200D01*
X179550609Y-108482200D02*
X179407752Y-108529819D01*
X179407752Y-108529819D02*
X179312514Y-108529819D01*
X180693466Y-108529819D02*
X180122038Y-108529819D01*
X180407752Y-108529819D02*
X180407752Y-107529819D01*
X180407752Y-107529819D02*
X180312514Y-107672676D01*
X180312514Y-107672676D02*
X180217276Y-107767914D01*
X180217276Y-107767914D02*
X180122038Y-107815533D01*
X155883942Y-78529819D02*
X155550609Y-78053628D01*
X155312514Y-78529819D02*
X155312514Y-77529819D01*
X155312514Y-77529819D02*
X155693466Y-77529819D01*
X155693466Y-77529819D02*
X155788704Y-77577438D01*
X155788704Y-77577438D02*
X155836323Y-77625057D01*
X155836323Y-77625057D02*
X155883942Y-77720295D01*
X155883942Y-77720295D02*
X155883942Y-77863152D01*
X155883942Y-77863152D02*
X155836323Y-77958390D01*
X155836323Y-77958390D02*
X155788704Y-78006009D01*
X155788704Y-78006009D02*
X155693466Y-78053628D01*
X155693466Y-78053628D02*
X155312514Y-78053628D01*
X156836323Y-78529819D02*
X156264895Y-78529819D01*
X156550609Y-78529819D02*
X156550609Y-77529819D01*
X156550609Y-77529819D02*
X156455371Y-77672676D01*
X156455371Y-77672676D02*
X156360133Y-77767914D01*
X156360133Y-77767914D02*
X156264895Y-77815533D01*
X157217276Y-77625057D02*
X157264895Y-77577438D01*
X157264895Y-77577438D02*
X157360133Y-77529819D01*
X157360133Y-77529819D02*
X157598228Y-77529819D01*
X157598228Y-77529819D02*
X157693466Y-77577438D01*
X157693466Y-77577438D02*
X157741085Y-77625057D01*
X157741085Y-77625057D02*
X157788704Y-77720295D01*
X157788704Y-77720295D02*
X157788704Y-77815533D01*
X157788704Y-77815533D02*
X157741085Y-77958390D01*
X157741085Y-77958390D02*
X157169657Y-78529819D01*
X157169657Y-78529819D02*
X157788704Y-78529819D01*
X139883942Y-93434580D02*
X139836323Y-93482200D01*
X139836323Y-93482200D02*
X139693466Y-93529819D01*
X139693466Y-93529819D02*
X139598228Y-93529819D01*
X139598228Y-93529819D02*
X139455371Y-93482200D01*
X139455371Y-93482200D02*
X139360133Y-93386961D01*
X139360133Y-93386961D02*
X139312514Y-93291723D01*
X139312514Y-93291723D02*
X139264895Y-93101247D01*
X139264895Y-93101247D02*
X139264895Y-92958390D01*
X139264895Y-92958390D02*
X139312514Y-92767914D01*
X139312514Y-92767914D02*
X139360133Y-92672676D01*
X139360133Y-92672676D02*
X139455371Y-92577438D01*
X139455371Y-92577438D02*
X139598228Y-92529819D01*
X139598228Y-92529819D02*
X139693466Y-92529819D01*
X139693466Y-92529819D02*
X139836323Y-92577438D01*
X139836323Y-92577438D02*
X139883942Y-92625057D01*
X140264895Y-92625057D02*
X140312514Y-92577438D01*
X140312514Y-92577438D02*
X140407752Y-92529819D01*
X140407752Y-92529819D02*
X140645847Y-92529819D01*
X140645847Y-92529819D02*
X140741085Y-92577438D01*
X140741085Y-92577438D02*
X140788704Y-92625057D01*
X140788704Y-92625057D02*
X140836323Y-92720295D01*
X140836323Y-92720295D02*
X140836323Y-92815533D01*
X140836323Y-92815533D02*
X140788704Y-92958390D01*
X140788704Y-92958390D02*
X140217276Y-93529819D01*
X140217276Y-93529819D02*
X140836323Y-93529819D01*
X141169657Y-92529819D02*
X141788704Y-92529819D01*
X141788704Y-92529819D02*
X141455371Y-92910771D01*
X141455371Y-92910771D02*
X141598228Y-92910771D01*
X141598228Y-92910771D02*
X141693466Y-92958390D01*
X141693466Y-92958390D02*
X141741085Y-93006009D01*
X141741085Y-93006009D02*
X141788704Y-93101247D01*
X141788704Y-93101247D02*
X141788704Y-93339342D01*
X141788704Y-93339342D02*
X141741085Y-93434580D01*
X141741085Y-93434580D02*
X141693466Y-93482200D01*
X141693466Y-93482200D02*
X141598228Y-93529819D01*
X141598228Y-93529819D02*
X141312514Y-93529819D01*
X141312514Y-93529819D02*
X141217276Y-93482200D01*
X141217276Y-93482200D02*
X141169657Y-93434580D01*
X115895848Y-112232200D02*
X115991086Y-112279819D01*
X115991086Y-112279819D02*
X116181562Y-112279819D01*
X116181562Y-112279819D02*
X116276800Y-112232200D01*
X116276800Y-112232200D02*
X116324419Y-112136961D01*
X116324419Y-112136961D02*
X116324419Y-112089342D01*
X116324419Y-112089342D02*
X116276800Y-111994104D01*
X116276800Y-111994104D02*
X116181562Y-111946485D01*
X116181562Y-111946485D02*
X116038705Y-111946485D01*
X116038705Y-111946485D02*
X115943467Y-111898866D01*
X115943467Y-111898866D02*
X115895848Y-111803628D01*
X115895848Y-111803628D02*
X115895848Y-111756009D01*
X115895848Y-111756009D02*
X115943467Y-111660771D01*
X115943467Y-111660771D02*
X116038705Y-111613152D01*
X116038705Y-111613152D02*
X116181562Y-111613152D01*
X116181562Y-111613152D02*
X116276800Y-111660771D01*
X116752991Y-112279819D02*
X116752991Y-111613152D01*
X116752991Y-111279819D02*
X116705372Y-111327438D01*
X116705372Y-111327438D02*
X116752991Y-111375057D01*
X116752991Y-111375057D02*
X116800610Y-111327438D01*
X116800610Y-111327438D02*
X116752991Y-111279819D01*
X116752991Y-111279819D02*
X116752991Y-111375057D01*
X117657752Y-111613152D02*
X117657752Y-112422676D01*
X117657752Y-112422676D02*
X117610133Y-112517914D01*
X117610133Y-112517914D02*
X117562514Y-112565533D01*
X117562514Y-112565533D02*
X117467276Y-112613152D01*
X117467276Y-112613152D02*
X117324419Y-112613152D01*
X117324419Y-112613152D02*
X117229181Y-112565533D01*
X117657752Y-112232200D02*
X117562514Y-112279819D01*
X117562514Y-112279819D02*
X117372038Y-112279819D01*
X117372038Y-112279819D02*
X117276800Y-112232200D01*
X117276800Y-112232200D02*
X117229181Y-112184580D01*
X117229181Y-112184580D02*
X117181562Y-112089342D01*
X117181562Y-112089342D02*
X117181562Y-111803628D01*
X117181562Y-111803628D02*
X117229181Y-111708390D01*
X117229181Y-111708390D02*
X117276800Y-111660771D01*
X117276800Y-111660771D02*
X117372038Y-111613152D01*
X117372038Y-111613152D02*
X117562514Y-111613152D01*
X117562514Y-111613152D02*
X117657752Y-111660771D01*
X118038705Y-111279819D02*
X118657752Y-111279819D01*
X118657752Y-111279819D02*
X118324419Y-111660771D01*
X118324419Y-111660771D02*
X118467276Y-111660771D01*
X118467276Y-111660771D02*
X118562514Y-111708390D01*
X118562514Y-111708390D02*
X118610133Y-111756009D01*
X118610133Y-111756009D02*
X118657752Y-111851247D01*
X118657752Y-111851247D02*
X118657752Y-112089342D01*
X118657752Y-112089342D02*
X118610133Y-112184580D01*
X118610133Y-112184580D02*
X118562514Y-112232200D01*
X118562514Y-112232200D02*
X118467276Y-112279819D01*
X118467276Y-112279819D02*
X118181562Y-112279819D01*
X118181562Y-112279819D02*
X118086324Y-112232200D01*
X118086324Y-112232200D02*
X118038705Y-112184580D01*
X160764895Y-96529819D02*
X160764895Y-97339342D01*
X160764895Y-97339342D02*
X160812514Y-97434580D01*
X160812514Y-97434580D02*
X160860133Y-97482200D01*
X160860133Y-97482200D02*
X160955371Y-97529819D01*
X160955371Y-97529819D02*
X161145847Y-97529819D01*
X161145847Y-97529819D02*
X161241085Y-97482200D01*
X161241085Y-97482200D02*
X161288704Y-97434580D01*
X161288704Y-97434580D02*
X161336323Y-97339342D01*
X161336323Y-97339342D02*
X161336323Y-96529819D01*
X162336323Y-97529819D02*
X161764895Y-97529819D01*
X162050609Y-97529819D02*
X162050609Y-96529819D01*
X162050609Y-96529819D02*
X161955371Y-96672676D01*
X161955371Y-96672676D02*
X161860133Y-96767914D01*
X161860133Y-96767914D02*
X161764895Y-96815533D01*
X131981619Y-83467857D02*
X131505428Y-83801190D01*
X131981619Y-84039285D02*
X130981619Y-84039285D01*
X130981619Y-84039285D02*
X130981619Y-83658333D01*
X130981619Y-83658333D02*
X131029238Y-83563095D01*
X131029238Y-83563095D02*
X131076857Y-83515476D01*
X131076857Y-83515476D02*
X131172095Y-83467857D01*
X131172095Y-83467857D02*
X131314952Y-83467857D01*
X131314952Y-83467857D02*
X131410190Y-83515476D01*
X131410190Y-83515476D02*
X131457809Y-83563095D01*
X131457809Y-83563095D02*
X131505428Y-83658333D01*
X131505428Y-83658333D02*
X131505428Y-84039285D01*
X131981619Y-82515476D02*
X131981619Y-83086904D01*
X131981619Y-82801190D02*
X130981619Y-82801190D01*
X130981619Y-82801190D02*
X131124476Y-82896428D01*
X131124476Y-82896428D02*
X131219714Y-82991666D01*
X131219714Y-82991666D02*
X131267333Y-83086904D01*
X131314952Y-81658333D02*
X131981619Y-81658333D01*
X130934000Y-81896428D02*
X131648285Y-82134523D01*
X131648285Y-82134523D02*
X131648285Y-81515476D01*
X136712695Y-104072119D02*
X136712695Y-104881642D01*
X136712695Y-104881642D02*
X136760314Y-104976880D01*
X136760314Y-104976880D02*
X136807933Y-105024500D01*
X136807933Y-105024500D02*
X136903171Y-105072119D01*
X136903171Y-105072119D02*
X137093647Y-105072119D01*
X137093647Y-105072119D02*
X137188885Y-105024500D01*
X137188885Y-105024500D02*
X137236504Y-104976880D01*
X137236504Y-104976880D02*
X137284123Y-104881642D01*
X137284123Y-104881642D02*
X137284123Y-104072119D01*
X137665076Y-104072119D02*
X138284123Y-104072119D01*
X138284123Y-104072119D02*
X137950790Y-104453071D01*
X137950790Y-104453071D02*
X138093647Y-104453071D01*
X138093647Y-104453071D02*
X138188885Y-104500690D01*
X138188885Y-104500690D02*
X138236504Y-104548309D01*
X138236504Y-104548309D02*
X138284123Y-104643547D01*
X138284123Y-104643547D02*
X138284123Y-104881642D01*
X138284123Y-104881642D02*
X138236504Y-104976880D01*
X138236504Y-104976880D02*
X138188885Y-105024500D01*
X138188885Y-105024500D02*
X138093647Y-105072119D01*
X138093647Y-105072119D02*
X137807933Y-105072119D01*
X137807933Y-105072119D02*
X137712695Y-105024500D01*
X137712695Y-105024500D02*
X137665076Y-104976880D01*
X158633942Y-87779819D02*
X158300609Y-87303628D01*
X158062514Y-87779819D02*
X158062514Y-86779819D01*
X158062514Y-86779819D02*
X158443466Y-86779819D01*
X158443466Y-86779819D02*
X158538704Y-86827438D01*
X158538704Y-86827438D02*
X158586323Y-86875057D01*
X158586323Y-86875057D02*
X158633942Y-86970295D01*
X158633942Y-86970295D02*
X158633942Y-87113152D01*
X158633942Y-87113152D02*
X158586323Y-87208390D01*
X158586323Y-87208390D02*
X158538704Y-87256009D01*
X158538704Y-87256009D02*
X158443466Y-87303628D01*
X158443466Y-87303628D02*
X158062514Y-87303628D01*
X159014895Y-86875057D02*
X159062514Y-86827438D01*
X159062514Y-86827438D02*
X159157752Y-86779819D01*
X159157752Y-86779819D02*
X159395847Y-86779819D01*
X159395847Y-86779819D02*
X159491085Y-86827438D01*
X159491085Y-86827438D02*
X159538704Y-86875057D01*
X159538704Y-86875057D02*
X159586323Y-86970295D01*
X159586323Y-86970295D02*
X159586323Y-87065533D01*
X159586323Y-87065533D02*
X159538704Y-87208390D01*
X159538704Y-87208390D02*
X158967276Y-87779819D01*
X158967276Y-87779819D02*
X159586323Y-87779819D01*
X160205371Y-86779819D02*
X160300609Y-86779819D01*
X160300609Y-86779819D02*
X160395847Y-86827438D01*
X160395847Y-86827438D02*
X160443466Y-86875057D01*
X160443466Y-86875057D02*
X160491085Y-86970295D01*
X160491085Y-86970295D02*
X160538704Y-87160771D01*
X160538704Y-87160771D02*
X160538704Y-87398866D01*
X160538704Y-87398866D02*
X160491085Y-87589342D01*
X160491085Y-87589342D02*
X160443466Y-87684580D01*
X160443466Y-87684580D02*
X160395847Y-87732200D01*
X160395847Y-87732200D02*
X160300609Y-87779819D01*
X160300609Y-87779819D02*
X160205371Y-87779819D01*
X160205371Y-87779819D02*
X160110133Y-87732200D01*
X160110133Y-87732200D02*
X160062514Y-87684580D01*
X160062514Y-87684580D02*
X160014895Y-87589342D01*
X160014895Y-87589342D02*
X159967276Y-87398866D01*
X159967276Y-87398866D02*
X159967276Y-87160771D01*
X159967276Y-87160771D02*
X160014895Y-86970295D01*
X160014895Y-86970295D02*
X160062514Y-86875057D01*
X160062514Y-86875057D02*
X160110133Y-86827438D01*
X160110133Y-86827438D02*
X160205371Y-86779819D01*
X109560104Y-117829438D02*
X109464866Y-117781819D01*
X109464866Y-117781819D02*
X109322009Y-117781819D01*
X109322009Y-117781819D02*
X109179152Y-117829438D01*
X109179152Y-117829438D02*
X109083914Y-117924676D01*
X109083914Y-117924676D02*
X109036295Y-118019914D01*
X109036295Y-118019914D02*
X108988676Y-118210390D01*
X108988676Y-118210390D02*
X108988676Y-118353247D01*
X108988676Y-118353247D02*
X109036295Y-118543723D01*
X109036295Y-118543723D02*
X109083914Y-118638961D01*
X109083914Y-118638961D02*
X109179152Y-118734200D01*
X109179152Y-118734200D02*
X109322009Y-118781819D01*
X109322009Y-118781819D02*
X109417247Y-118781819D01*
X109417247Y-118781819D02*
X109560104Y-118734200D01*
X109560104Y-118734200D02*
X109607723Y-118686580D01*
X109607723Y-118686580D02*
X109607723Y-118353247D01*
X109607723Y-118353247D02*
X109417247Y-118353247D01*
X110036295Y-118781819D02*
X110036295Y-117781819D01*
X110036295Y-117781819D02*
X110607723Y-118781819D01*
X110607723Y-118781819D02*
X110607723Y-117781819D01*
X111083914Y-118781819D02*
X111083914Y-117781819D01*
X111083914Y-117781819D02*
X111322009Y-117781819D01*
X111322009Y-117781819D02*
X111464866Y-117829438D01*
X111464866Y-117829438D02*
X111560104Y-117924676D01*
X111560104Y-117924676D02*
X111607723Y-118019914D01*
X111607723Y-118019914D02*
X111655342Y-118210390D01*
X111655342Y-118210390D02*
X111655342Y-118353247D01*
X111655342Y-118353247D02*
X111607723Y-118543723D01*
X111607723Y-118543723D02*
X111560104Y-118638961D01*
X111560104Y-118638961D02*
X111464866Y-118734200D01*
X111464866Y-118734200D02*
X111322009Y-118781819D01*
X111322009Y-118781819D02*
X111083914Y-118781819D01*
X112036295Y-117877057D02*
X112083914Y-117829438D01*
X112083914Y-117829438D02*
X112179152Y-117781819D01*
X112179152Y-117781819D02*
X112417247Y-117781819D01*
X112417247Y-117781819D02*
X112512485Y-117829438D01*
X112512485Y-117829438D02*
X112560104Y-117877057D01*
X112560104Y-117877057D02*
X112607723Y-117972295D01*
X112607723Y-117972295D02*
X112607723Y-118067533D01*
X112607723Y-118067533D02*
X112560104Y-118210390D01*
X112560104Y-118210390D02*
X111988676Y-118781819D01*
X111988676Y-118781819D02*
X112607723Y-118781819D01*
X158633942Y-89779819D02*
X158300609Y-89303628D01*
X158062514Y-89779819D02*
X158062514Y-88779819D01*
X158062514Y-88779819D02*
X158443466Y-88779819D01*
X158443466Y-88779819D02*
X158538704Y-88827438D01*
X158538704Y-88827438D02*
X158586323Y-88875057D01*
X158586323Y-88875057D02*
X158633942Y-88970295D01*
X158633942Y-88970295D02*
X158633942Y-89113152D01*
X158633942Y-89113152D02*
X158586323Y-89208390D01*
X158586323Y-89208390D02*
X158538704Y-89256009D01*
X158538704Y-89256009D02*
X158443466Y-89303628D01*
X158443466Y-89303628D02*
X158062514Y-89303628D01*
X159014895Y-88875057D02*
X159062514Y-88827438D01*
X159062514Y-88827438D02*
X159157752Y-88779819D01*
X159157752Y-88779819D02*
X159395847Y-88779819D01*
X159395847Y-88779819D02*
X159491085Y-88827438D01*
X159491085Y-88827438D02*
X159538704Y-88875057D01*
X159538704Y-88875057D02*
X159586323Y-88970295D01*
X159586323Y-88970295D02*
X159586323Y-89065533D01*
X159586323Y-89065533D02*
X159538704Y-89208390D01*
X159538704Y-89208390D02*
X158967276Y-89779819D01*
X158967276Y-89779819D02*
X159586323Y-89779819D01*
X160538704Y-89779819D02*
X159967276Y-89779819D01*
X160252990Y-89779819D02*
X160252990Y-88779819D01*
X160252990Y-88779819D02*
X160157752Y-88922676D01*
X160157752Y-88922676D02*
X160062514Y-89017914D01*
X160062514Y-89017914D02*
X159967276Y-89065533D01*
X159383942Y-78434580D02*
X159336323Y-78482200D01*
X159336323Y-78482200D02*
X159193466Y-78529819D01*
X159193466Y-78529819D02*
X159098228Y-78529819D01*
X159098228Y-78529819D02*
X158955371Y-78482200D01*
X158955371Y-78482200D02*
X158860133Y-78386961D01*
X158860133Y-78386961D02*
X158812514Y-78291723D01*
X158812514Y-78291723D02*
X158764895Y-78101247D01*
X158764895Y-78101247D02*
X158764895Y-77958390D01*
X158764895Y-77958390D02*
X158812514Y-77767914D01*
X158812514Y-77767914D02*
X158860133Y-77672676D01*
X158860133Y-77672676D02*
X158955371Y-77577438D01*
X158955371Y-77577438D02*
X159098228Y-77529819D01*
X159098228Y-77529819D02*
X159193466Y-77529819D01*
X159193466Y-77529819D02*
X159336323Y-77577438D01*
X159336323Y-77577438D02*
X159383942Y-77625057D01*
X160336323Y-78529819D02*
X159764895Y-78529819D01*
X160050609Y-78529819D02*
X160050609Y-77529819D01*
X160050609Y-77529819D02*
X159955371Y-77672676D01*
X159955371Y-77672676D02*
X159860133Y-77767914D01*
X159860133Y-77767914D02*
X159764895Y-77815533D01*
X161288704Y-78529819D02*
X160717276Y-78529819D01*
X161002990Y-78529819D02*
X161002990Y-77529819D01*
X161002990Y-77529819D02*
X160907752Y-77672676D01*
X160907752Y-77672676D02*
X160812514Y-77767914D01*
X160812514Y-77767914D02*
X160717276Y-77815533D01*
X93054904Y-118907638D02*
X92959666Y-118860019D01*
X92959666Y-118860019D02*
X92816809Y-118860019D01*
X92816809Y-118860019D02*
X92673952Y-118907638D01*
X92673952Y-118907638D02*
X92578714Y-119002876D01*
X92578714Y-119002876D02*
X92531095Y-119098114D01*
X92531095Y-119098114D02*
X92483476Y-119288590D01*
X92483476Y-119288590D02*
X92483476Y-119431447D01*
X92483476Y-119431447D02*
X92531095Y-119621923D01*
X92531095Y-119621923D02*
X92578714Y-119717161D01*
X92578714Y-119717161D02*
X92673952Y-119812400D01*
X92673952Y-119812400D02*
X92816809Y-119860019D01*
X92816809Y-119860019D02*
X92912047Y-119860019D01*
X92912047Y-119860019D02*
X93054904Y-119812400D01*
X93054904Y-119812400D02*
X93102523Y-119764780D01*
X93102523Y-119764780D02*
X93102523Y-119431447D01*
X93102523Y-119431447D02*
X92912047Y-119431447D01*
X93531095Y-119860019D02*
X93531095Y-118860019D01*
X93531095Y-118860019D02*
X94102523Y-119860019D01*
X94102523Y-119860019D02*
X94102523Y-118860019D01*
X94578714Y-119860019D02*
X94578714Y-118860019D01*
X94578714Y-118860019D02*
X94816809Y-118860019D01*
X94816809Y-118860019D02*
X94959666Y-118907638D01*
X94959666Y-118907638D02*
X95054904Y-119002876D01*
X95054904Y-119002876D02*
X95102523Y-119098114D01*
X95102523Y-119098114D02*
X95150142Y-119288590D01*
X95150142Y-119288590D02*
X95150142Y-119431447D01*
X95150142Y-119431447D02*
X95102523Y-119621923D01*
X95102523Y-119621923D02*
X95054904Y-119717161D01*
X95054904Y-119717161D02*
X94959666Y-119812400D01*
X94959666Y-119812400D02*
X94816809Y-119860019D01*
X94816809Y-119860019D02*
X94578714Y-119860019D01*
X95483476Y-118860019D02*
X96102523Y-118860019D01*
X96102523Y-118860019D02*
X95769190Y-119240971D01*
X95769190Y-119240971D02*
X95912047Y-119240971D01*
X95912047Y-119240971D02*
X96007285Y-119288590D01*
X96007285Y-119288590D02*
X96054904Y-119336209D01*
X96054904Y-119336209D02*
X96102523Y-119431447D01*
X96102523Y-119431447D02*
X96102523Y-119669542D01*
X96102523Y-119669542D02*
X96054904Y-119764780D01*
X96054904Y-119764780D02*
X96007285Y-119812400D01*
X96007285Y-119812400D02*
X95912047Y-119860019D01*
X95912047Y-119860019D02*
X95626333Y-119860019D01*
X95626333Y-119860019D02*
X95531095Y-119812400D01*
X95531095Y-119812400D02*
X95483476Y-119764780D01*
X122981619Y-80967857D02*
X122505428Y-81301190D01*
X122981619Y-81539285D02*
X121981619Y-81539285D01*
X121981619Y-81539285D02*
X121981619Y-81158333D01*
X121981619Y-81158333D02*
X122029238Y-81063095D01*
X122029238Y-81063095D02*
X122076857Y-81015476D01*
X122076857Y-81015476D02*
X122172095Y-80967857D01*
X122172095Y-80967857D02*
X122314952Y-80967857D01*
X122314952Y-80967857D02*
X122410190Y-81015476D01*
X122410190Y-81015476D02*
X122457809Y-81063095D01*
X122457809Y-81063095D02*
X122505428Y-81158333D01*
X122505428Y-81158333D02*
X122505428Y-81539285D01*
X122981619Y-80015476D02*
X122981619Y-80586904D01*
X122981619Y-80301190D02*
X121981619Y-80301190D01*
X121981619Y-80301190D02*
X122124476Y-80396428D01*
X122124476Y-80396428D02*
X122219714Y-80491666D01*
X122219714Y-80491666D02*
X122267333Y-80586904D01*
X121981619Y-79682142D02*
X121981619Y-79063095D01*
X121981619Y-79063095D02*
X122362571Y-79396428D01*
X122362571Y-79396428D02*
X122362571Y-79253571D01*
X122362571Y-79253571D02*
X122410190Y-79158333D01*
X122410190Y-79158333D02*
X122457809Y-79110714D01*
X122457809Y-79110714D02*
X122553047Y-79063095D01*
X122553047Y-79063095D02*
X122791142Y-79063095D01*
X122791142Y-79063095D02*
X122886380Y-79110714D01*
X122886380Y-79110714D02*
X122934000Y-79158333D01*
X122934000Y-79158333D02*
X122981619Y-79253571D01*
X122981619Y-79253571D02*
X122981619Y-79539285D01*
X122981619Y-79539285D02*
X122934000Y-79634523D01*
X122934000Y-79634523D02*
X122886380Y-79682142D01*
X157014895Y-110148866D02*
X157776800Y-110148866D01*
X157395847Y-110529819D02*
X157395847Y-109767914D01*
X158729180Y-109529819D02*
X158252990Y-109529819D01*
X158252990Y-109529819D02*
X158205371Y-110006009D01*
X158205371Y-110006009D02*
X158252990Y-109958390D01*
X158252990Y-109958390D02*
X158348228Y-109910771D01*
X158348228Y-109910771D02*
X158586323Y-109910771D01*
X158586323Y-109910771D02*
X158681561Y-109958390D01*
X158681561Y-109958390D02*
X158729180Y-110006009D01*
X158729180Y-110006009D02*
X158776799Y-110101247D01*
X158776799Y-110101247D02*
X158776799Y-110339342D01*
X158776799Y-110339342D02*
X158729180Y-110434580D01*
X158729180Y-110434580D02*
X158681561Y-110482200D01*
X158681561Y-110482200D02*
X158586323Y-110529819D01*
X158586323Y-110529819D02*
X158348228Y-110529819D01*
X158348228Y-110529819D02*
X158252990Y-110482200D01*
X158252990Y-110482200D02*
X158205371Y-110434580D01*
X159062514Y-109529819D02*
X159395847Y-110529819D01*
X159395847Y-110529819D02*
X159729180Y-109529819D01*
X160586323Y-110529819D02*
X160014895Y-110529819D01*
X160300609Y-110529819D02*
X160300609Y-109529819D01*
X160300609Y-109529819D02*
X160205371Y-109672676D01*
X160205371Y-109672676D02*
X160110133Y-109767914D01*
X160110133Y-109767914D02*
X160014895Y-109815533D01*
X143895847Y-120875057D02*
X143800609Y-120827438D01*
X143800609Y-120827438D02*
X143705371Y-120732200D01*
X143705371Y-120732200D02*
X143562514Y-120589342D01*
X143562514Y-120589342D02*
X143467276Y-120541723D01*
X143467276Y-120541723D02*
X143372038Y-120541723D01*
X143419657Y-120779819D02*
X143324419Y-120732200D01*
X143324419Y-120732200D02*
X143229181Y-120636961D01*
X143229181Y-120636961D02*
X143181562Y-120446485D01*
X143181562Y-120446485D02*
X143181562Y-120113152D01*
X143181562Y-120113152D02*
X143229181Y-119922676D01*
X143229181Y-119922676D02*
X143324419Y-119827438D01*
X143324419Y-119827438D02*
X143419657Y-119779819D01*
X143419657Y-119779819D02*
X143610133Y-119779819D01*
X143610133Y-119779819D02*
X143705371Y-119827438D01*
X143705371Y-119827438D02*
X143800609Y-119922676D01*
X143800609Y-119922676D02*
X143848228Y-120113152D01*
X143848228Y-120113152D02*
X143848228Y-120446485D01*
X143848228Y-120446485D02*
X143800609Y-120636961D01*
X143800609Y-120636961D02*
X143705371Y-120732200D01*
X143705371Y-120732200D02*
X143610133Y-120779819D01*
X143610133Y-120779819D02*
X143419657Y-120779819D01*
X144038705Y-120875057D02*
X144800609Y-120875057D01*
X145610133Y-120684580D02*
X145562514Y-120732200D01*
X145562514Y-120732200D02*
X145419657Y-120779819D01*
X145419657Y-120779819D02*
X145324419Y-120779819D01*
X145324419Y-120779819D02*
X145181562Y-120732200D01*
X145181562Y-120732200D02*
X145086324Y-120636961D01*
X145086324Y-120636961D02*
X145038705Y-120541723D01*
X145038705Y-120541723D02*
X144991086Y-120351247D01*
X144991086Y-120351247D02*
X144991086Y-120208390D01*
X144991086Y-120208390D02*
X145038705Y-120017914D01*
X145038705Y-120017914D02*
X145086324Y-119922676D01*
X145086324Y-119922676D02*
X145181562Y-119827438D01*
X145181562Y-119827438D02*
X145324419Y-119779819D01*
X145324419Y-119779819D02*
X145419657Y-119779819D01*
X145419657Y-119779819D02*
X145562514Y-119827438D01*
X145562514Y-119827438D02*
X145610133Y-119875057D01*
X146514895Y-120779819D02*
X146038705Y-120779819D01*
X146038705Y-120779819D02*
X146038705Y-119779819D01*
X146848229Y-120779819D02*
X146848229Y-119779819D01*
X147419657Y-120779819D02*
X146991086Y-120208390D01*
X147419657Y-119779819D02*
X146848229Y-120351247D01*
X148372038Y-120779819D02*
X147800610Y-120779819D01*
X148086324Y-120779819D02*
X148086324Y-119779819D01*
X148086324Y-119779819D02*
X147991086Y-119922676D01*
X147991086Y-119922676D02*
X147895848Y-120017914D01*
X147895848Y-120017914D02*
X147800610Y-120065533D01*
X125730033Y-111004619D02*
X125396700Y-110528428D01*
X125158605Y-111004619D02*
X125158605Y-110004619D01*
X125158605Y-110004619D02*
X125539557Y-110004619D01*
X125539557Y-110004619D02*
X125634795Y-110052238D01*
X125634795Y-110052238D02*
X125682414Y-110099857D01*
X125682414Y-110099857D02*
X125730033Y-110195095D01*
X125730033Y-110195095D02*
X125730033Y-110337952D01*
X125730033Y-110337952D02*
X125682414Y-110433190D01*
X125682414Y-110433190D02*
X125634795Y-110480809D01*
X125634795Y-110480809D02*
X125539557Y-110528428D01*
X125539557Y-110528428D02*
X125158605Y-110528428D01*
X126587176Y-110337952D02*
X126587176Y-111004619D01*
X126349081Y-109957000D02*
X126110986Y-110671285D01*
X126110986Y-110671285D02*
X126730033Y-110671285D01*
X120564895Y-92779819D02*
X121136323Y-92779819D01*
X120850609Y-93779819D02*
X120850609Y-92779819D01*
X122041085Y-93779819D02*
X121707752Y-93303628D01*
X121469657Y-93779819D02*
X121469657Y-92779819D01*
X121469657Y-92779819D02*
X121850609Y-92779819D01*
X121850609Y-92779819D02*
X121945847Y-92827438D01*
X121945847Y-92827438D02*
X121993466Y-92875057D01*
X121993466Y-92875057D02*
X122041085Y-92970295D01*
X122041085Y-92970295D02*
X122041085Y-93113152D01*
X122041085Y-93113152D02*
X121993466Y-93208390D01*
X121993466Y-93208390D02*
X121945847Y-93256009D01*
X121945847Y-93256009D02*
X121850609Y-93303628D01*
X121850609Y-93303628D02*
X121469657Y-93303628D01*
X122993466Y-93779819D02*
X122422038Y-93779819D01*
X122707752Y-93779819D02*
X122707752Y-92779819D01*
X122707752Y-92779819D02*
X122612514Y-92922676D01*
X122612514Y-92922676D02*
X122517276Y-93017914D01*
X122517276Y-93017914D02*
X122422038Y-93065533D01*
X172110133Y-97129819D02*
X171776800Y-96653628D01*
X171538705Y-97129819D02*
X171538705Y-96129819D01*
X171538705Y-96129819D02*
X171919657Y-96129819D01*
X171919657Y-96129819D02*
X172014895Y-96177438D01*
X172014895Y-96177438D02*
X172062514Y-96225057D01*
X172062514Y-96225057D02*
X172110133Y-96320295D01*
X172110133Y-96320295D02*
X172110133Y-96463152D01*
X172110133Y-96463152D02*
X172062514Y-96558390D01*
X172062514Y-96558390D02*
X172014895Y-96606009D01*
X172014895Y-96606009D02*
X171919657Y-96653628D01*
X171919657Y-96653628D02*
X171538705Y-96653628D01*
X172443467Y-96129819D02*
X173062514Y-96129819D01*
X173062514Y-96129819D02*
X172729181Y-96510771D01*
X172729181Y-96510771D02*
X172872038Y-96510771D01*
X172872038Y-96510771D02*
X172967276Y-96558390D01*
X172967276Y-96558390D02*
X173014895Y-96606009D01*
X173014895Y-96606009D02*
X173062514Y-96701247D01*
X173062514Y-96701247D02*
X173062514Y-96939342D01*
X173062514Y-96939342D02*
X173014895Y-97034580D01*
X173014895Y-97034580D02*
X172967276Y-97082200D01*
X172967276Y-97082200D02*
X172872038Y-97129819D01*
X172872038Y-97129819D02*
X172586324Y-97129819D01*
X172586324Y-97129819D02*
X172491086Y-97082200D01*
X172491086Y-97082200D02*
X172443467Y-97034580D01*
X95610133Y-87934580D02*
X95562514Y-87982200D01*
X95562514Y-87982200D02*
X95419657Y-88029819D01*
X95419657Y-88029819D02*
X95324419Y-88029819D01*
X95324419Y-88029819D02*
X95181562Y-87982200D01*
X95181562Y-87982200D02*
X95086324Y-87886961D01*
X95086324Y-87886961D02*
X95038705Y-87791723D01*
X95038705Y-87791723D02*
X94991086Y-87601247D01*
X94991086Y-87601247D02*
X94991086Y-87458390D01*
X94991086Y-87458390D02*
X95038705Y-87267914D01*
X95038705Y-87267914D02*
X95086324Y-87172676D01*
X95086324Y-87172676D02*
X95181562Y-87077438D01*
X95181562Y-87077438D02*
X95324419Y-87029819D01*
X95324419Y-87029819D02*
X95419657Y-87029819D01*
X95419657Y-87029819D02*
X95562514Y-87077438D01*
X95562514Y-87077438D02*
X95610133Y-87125057D01*
X96467276Y-87363152D02*
X96467276Y-88029819D01*
X96229181Y-86982200D02*
X95991086Y-87696485D01*
X95991086Y-87696485D02*
X96610133Y-87696485D01*
X149133942Y-80779819D02*
X148800609Y-80303628D01*
X148562514Y-80779819D02*
X148562514Y-79779819D01*
X148562514Y-79779819D02*
X148943466Y-79779819D01*
X148943466Y-79779819D02*
X149038704Y-79827438D01*
X149038704Y-79827438D02*
X149086323Y-79875057D01*
X149086323Y-79875057D02*
X149133942Y-79970295D01*
X149133942Y-79970295D02*
X149133942Y-80113152D01*
X149133942Y-80113152D02*
X149086323Y-80208390D01*
X149086323Y-80208390D02*
X149038704Y-80256009D01*
X149038704Y-80256009D02*
X148943466Y-80303628D01*
X148943466Y-80303628D02*
X148562514Y-80303628D01*
X149514895Y-79875057D02*
X149562514Y-79827438D01*
X149562514Y-79827438D02*
X149657752Y-79779819D01*
X149657752Y-79779819D02*
X149895847Y-79779819D01*
X149895847Y-79779819D02*
X149991085Y-79827438D01*
X149991085Y-79827438D02*
X150038704Y-79875057D01*
X150038704Y-79875057D02*
X150086323Y-79970295D01*
X150086323Y-79970295D02*
X150086323Y-80065533D01*
X150086323Y-80065533D02*
X150038704Y-80208390D01*
X150038704Y-80208390D02*
X149467276Y-80779819D01*
X149467276Y-80779819D02*
X150086323Y-80779819D01*
X150419657Y-79779819D02*
X151038704Y-79779819D01*
X151038704Y-79779819D02*
X150705371Y-80160771D01*
X150705371Y-80160771D02*
X150848228Y-80160771D01*
X150848228Y-80160771D02*
X150943466Y-80208390D01*
X150943466Y-80208390D02*
X150991085Y-80256009D01*
X150991085Y-80256009D02*
X151038704Y-80351247D01*
X151038704Y-80351247D02*
X151038704Y-80589342D01*
X151038704Y-80589342D02*
X150991085Y-80684580D01*
X150991085Y-80684580D02*
X150943466Y-80732200D01*
X150943466Y-80732200D02*
X150848228Y-80779819D01*
X150848228Y-80779819D02*
X150562514Y-80779819D01*
X150562514Y-80779819D02*
X150467276Y-80732200D01*
X150467276Y-80732200D02*
X150419657Y-80684580D01*
X158883942Y-82029819D02*
X158550609Y-81553628D01*
X158312514Y-82029819D02*
X158312514Y-81029819D01*
X158312514Y-81029819D02*
X158693466Y-81029819D01*
X158693466Y-81029819D02*
X158788704Y-81077438D01*
X158788704Y-81077438D02*
X158836323Y-81125057D01*
X158836323Y-81125057D02*
X158883942Y-81220295D01*
X158883942Y-81220295D02*
X158883942Y-81363152D01*
X158883942Y-81363152D02*
X158836323Y-81458390D01*
X158836323Y-81458390D02*
X158788704Y-81506009D01*
X158788704Y-81506009D02*
X158693466Y-81553628D01*
X158693466Y-81553628D02*
X158312514Y-81553628D01*
X159264895Y-81125057D02*
X159312514Y-81077438D01*
X159312514Y-81077438D02*
X159407752Y-81029819D01*
X159407752Y-81029819D02*
X159645847Y-81029819D01*
X159645847Y-81029819D02*
X159741085Y-81077438D01*
X159741085Y-81077438D02*
X159788704Y-81125057D01*
X159788704Y-81125057D02*
X159836323Y-81220295D01*
X159836323Y-81220295D02*
X159836323Y-81315533D01*
X159836323Y-81315533D02*
X159788704Y-81458390D01*
X159788704Y-81458390D02*
X159217276Y-82029819D01*
X159217276Y-82029819D02*
X159836323Y-82029819D01*
X160217276Y-81125057D02*
X160264895Y-81077438D01*
X160264895Y-81077438D02*
X160360133Y-81029819D01*
X160360133Y-81029819D02*
X160598228Y-81029819D01*
X160598228Y-81029819D02*
X160693466Y-81077438D01*
X160693466Y-81077438D02*
X160741085Y-81125057D01*
X160741085Y-81125057D02*
X160788704Y-81220295D01*
X160788704Y-81220295D02*
X160788704Y-81315533D01*
X160788704Y-81315533D02*
X160741085Y-81458390D01*
X160741085Y-81458390D02*
X160169657Y-82029819D01*
X160169657Y-82029819D02*
X160788704Y-82029819D01*
X139883942Y-80684580D02*
X139836323Y-80732200D01*
X139836323Y-80732200D02*
X139693466Y-80779819D01*
X139693466Y-80779819D02*
X139598228Y-80779819D01*
X139598228Y-80779819D02*
X139455371Y-80732200D01*
X139455371Y-80732200D02*
X139360133Y-80636961D01*
X139360133Y-80636961D02*
X139312514Y-80541723D01*
X139312514Y-80541723D02*
X139264895Y-80351247D01*
X139264895Y-80351247D02*
X139264895Y-80208390D01*
X139264895Y-80208390D02*
X139312514Y-80017914D01*
X139312514Y-80017914D02*
X139360133Y-79922676D01*
X139360133Y-79922676D02*
X139455371Y-79827438D01*
X139455371Y-79827438D02*
X139598228Y-79779819D01*
X139598228Y-79779819D02*
X139693466Y-79779819D01*
X139693466Y-79779819D02*
X139836323Y-79827438D01*
X139836323Y-79827438D02*
X139883942Y-79875057D01*
X140264895Y-79875057D02*
X140312514Y-79827438D01*
X140312514Y-79827438D02*
X140407752Y-79779819D01*
X140407752Y-79779819D02*
X140645847Y-79779819D01*
X140645847Y-79779819D02*
X140741085Y-79827438D01*
X140741085Y-79827438D02*
X140788704Y-79875057D01*
X140788704Y-79875057D02*
X140836323Y-79970295D01*
X140836323Y-79970295D02*
X140836323Y-80065533D01*
X140836323Y-80065533D02*
X140788704Y-80208390D01*
X140788704Y-80208390D02*
X140217276Y-80779819D01*
X140217276Y-80779819D02*
X140836323Y-80779819D01*
X141788704Y-80779819D02*
X141217276Y-80779819D01*
X141502990Y-80779819D02*
X141502990Y-79779819D01*
X141502990Y-79779819D02*
X141407752Y-79922676D01*
X141407752Y-79922676D02*
X141312514Y-80017914D01*
X141312514Y-80017914D02*
X141217276Y-80065533D01*
X163386380Y-84967857D02*
X163434000Y-85015476D01*
X163434000Y-85015476D02*
X163481619Y-85158333D01*
X163481619Y-85158333D02*
X163481619Y-85253571D01*
X163481619Y-85253571D02*
X163434000Y-85396428D01*
X163434000Y-85396428D02*
X163338761Y-85491666D01*
X163338761Y-85491666D02*
X163243523Y-85539285D01*
X163243523Y-85539285D02*
X163053047Y-85586904D01*
X163053047Y-85586904D02*
X162910190Y-85586904D01*
X162910190Y-85586904D02*
X162719714Y-85539285D01*
X162719714Y-85539285D02*
X162624476Y-85491666D01*
X162624476Y-85491666D02*
X162529238Y-85396428D01*
X162529238Y-85396428D02*
X162481619Y-85253571D01*
X162481619Y-85253571D02*
X162481619Y-85158333D01*
X162481619Y-85158333D02*
X162529238Y-85015476D01*
X162529238Y-85015476D02*
X162576857Y-84967857D01*
X162576857Y-84586904D02*
X162529238Y-84539285D01*
X162529238Y-84539285D02*
X162481619Y-84444047D01*
X162481619Y-84444047D02*
X162481619Y-84205952D01*
X162481619Y-84205952D02*
X162529238Y-84110714D01*
X162529238Y-84110714D02*
X162576857Y-84063095D01*
X162576857Y-84063095D02*
X162672095Y-84015476D01*
X162672095Y-84015476D02*
X162767333Y-84015476D01*
X162767333Y-84015476D02*
X162910190Y-84063095D01*
X162910190Y-84063095D02*
X163481619Y-84634523D01*
X163481619Y-84634523D02*
X163481619Y-84015476D01*
X162481619Y-83110714D02*
X162481619Y-83586904D01*
X162481619Y-83586904D02*
X162957809Y-83634523D01*
X162957809Y-83634523D02*
X162910190Y-83586904D01*
X162910190Y-83586904D02*
X162862571Y-83491666D01*
X162862571Y-83491666D02*
X162862571Y-83253571D01*
X162862571Y-83253571D02*
X162910190Y-83158333D01*
X162910190Y-83158333D02*
X162957809Y-83110714D01*
X162957809Y-83110714D02*
X163053047Y-83063095D01*
X163053047Y-83063095D02*
X163291142Y-83063095D01*
X163291142Y-83063095D02*
X163386380Y-83110714D01*
X163386380Y-83110714D02*
X163434000Y-83158333D01*
X163434000Y-83158333D02*
X163481619Y-83253571D01*
X163481619Y-83253571D02*
X163481619Y-83491666D01*
X163481619Y-83491666D02*
X163434000Y-83586904D01*
X163434000Y-83586904D02*
X163386380Y-83634523D01*
X128936133Y-117025880D02*
X128888514Y-117073500D01*
X128888514Y-117073500D02*
X128745657Y-117121119D01*
X128745657Y-117121119D02*
X128650419Y-117121119D01*
X128650419Y-117121119D02*
X128507562Y-117073500D01*
X128507562Y-117073500D02*
X128412324Y-116978261D01*
X128412324Y-116978261D02*
X128364705Y-116883023D01*
X128364705Y-116883023D02*
X128317086Y-116692547D01*
X128317086Y-116692547D02*
X128317086Y-116549690D01*
X128317086Y-116549690D02*
X128364705Y-116359214D01*
X128364705Y-116359214D02*
X128412324Y-116263976D01*
X128412324Y-116263976D02*
X128507562Y-116168738D01*
X128507562Y-116168738D02*
X128650419Y-116121119D01*
X128650419Y-116121119D02*
X128745657Y-116121119D01*
X128745657Y-116121119D02*
X128888514Y-116168738D01*
X128888514Y-116168738D02*
X128936133Y-116216357D01*
X129888514Y-117121119D02*
X129317086Y-117121119D01*
X129602800Y-117121119D02*
X129602800Y-116121119D01*
X129602800Y-116121119D02*
X129507562Y-116263976D01*
X129507562Y-116263976D02*
X129412324Y-116359214D01*
X129412324Y-116359214D02*
X129317086Y-116406833D01*
X168610133Y-111179819D02*
X168276800Y-110703628D01*
X168038705Y-111179819D02*
X168038705Y-110179819D01*
X168038705Y-110179819D02*
X168419657Y-110179819D01*
X168419657Y-110179819D02*
X168514895Y-110227438D01*
X168514895Y-110227438D02*
X168562514Y-110275057D01*
X168562514Y-110275057D02*
X168610133Y-110370295D01*
X168610133Y-110370295D02*
X168610133Y-110513152D01*
X168610133Y-110513152D02*
X168562514Y-110608390D01*
X168562514Y-110608390D02*
X168514895Y-110656009D01*
X168514895Y-110656009D02*
X168419657Y-110703628D01*
X168419657Y-110703628D02*
X168038705Y-110703628D01*
X169467276Y-110179819D02*
X169276800Y-110179819D01*
X169276800Y-110179819D02*
X169181562Y-110227438D01*
X169181562Y-110227438D02*
X169133943Y-110275057D01*
X169133943Y-110275057D02*
X169038705Y-110417914D01*
X169038705Y-110417914D02*
X168991086Y-110608390D01*
X168991086Y-110608390D02*
X168991086Y-110989342D01*
X168991086Y-110989342D02*
X169038705Y-111084580D01*
X169038705Y-111084580D02*
X169086324Y-111132200D01*
X169086324Y-111132200D02*
X169181562Y-111179819D01*
X169181562Y-111179819D02*
X169372038Y-111179819D01*
X169372038Y-111179819D02*
X169467276Y-111132200D01*
X169467276Y-111132200D02*
X169514895Y-111084580D01*
X169514895Y-111084580D02*
X169562514Y-110989342D01*
X169562514Y-110989342D02*
X169562514Y-110751247D01*
X169562514Y-110751247D02*
X169514895Y-110656009D01*
X169514895Y-110656009D02*
X169467276Y-110608390D01*
X169467276Y-110608390D02*
X169372038Y-110560771D01*
X169372038Y-110560771D02*
X169181562Y-110560771D01*
X169181562Y-110560771D02*
X169086324Y-110608390D01*
X169086324Y-110608390D02*
X169038705Y-110656009D01*
X169038705Y-110656009D02*
X168991086Y-110751247D01*
X145386380Y-79217857D02*
X145434000Y-79265476D01*
X145434000Y-79265476D02*
X145481619Y-79408333D01*
X145481619Y-79408333D02*
X145481619Y-79503571D01*
X145481619Y-79503571D02*
X145434000Y-79646428D01*
X145434000Y-79646428D02*
X145338761Y-79741666D01*
X145338761Y-79741666D02*
X145243523Y-79789285D01*
X145243523Y-79789285D02*
X145053047Y-79836904D01*
X145053047Y-79836904D02*
X144910190Y-79836904D01*
X144910190Y-79836904D02*
X144719714Y-79789285D01*
X144719714Y-79789285D02*
X144624476Y-79741666D01*
X144624476Y-79741666D02*
X144529238Y-79646428D01*
X144529238Y-79646428D02*
X144481619Y-79503571D01*
X144481619Y-79503571D02*
X144481619Y-79408333D01*
X144481619Y-79408333D02*
X144529238Y-79265476D01*
X144529238Y-79265476D02*
X144576857Y-79217857D01*
X145481619Y-78265476D02*
X145481619Y-78836904D01*
X145481619Y-78551190D02*
X144481619Y-78551190D01*
X144481619Y-78551190D02*
X144624476Y-78646428D01*
X144624476Y-78646428D02*
X144719714Y-78741666D01*
X144719714Y-78741666D02*
X144767333Y-78836904D01*
X144481619Y-77932142D02*
X144481619Y-77265476D01*
X144481619Y-77265476D02*
X145481619Y-77694047D01*
X107510133Y-82167319D02*
X107033943Y-82167319D01*
X107033943Y-82167319D02*
X107033943Y-81167319D01*
X108272038Y-81500652D02*
X108272038Y-82167319D01*
X108033943Y-81119700D02*
X107795848Y-81833985D01*
X107795848Y-81833985D02*
X108414895Y-81833985D01*
X100860133Y-82029819D02*
X100383943Y-82029819D01*
X100383943Y-82029819D02*
X100383943Y-81029819D01*
X101098229Y-81029819D02*
X101717276Y-81029819D01*
X101717276Y-81029819D02*
X101383943Y-81410771D01*
X101383943Y-81410771D02*
X101526800Y-81410771D01*
X101526800Y-81410771D02*
X101622038Y-81458390D01*
X101622038Y-81458390D02*
X101669657Y-81506009D01*
X101669657Y-81506009D02*
X101717276Y-81601247D01*
X101717276Y-81601247D02*
X101717276Y-81839342D01*
X101717276Y-81839342D02*
X101669657Y-81934580D01*
X101669657Y-81934580D02*
X101622038Y-81982200D01*
X101622038Y-81982200D02*
X101526800Y-82029819D01*
X101526800Y-82029819D02*
X101241086Y-82029819D01*
X101241086Y-82029819D02*
X101145848Y-81982200D01*
X101145848Y-81982200D02*
X101098229Y-81934580D01*
X143883942Y-86279819D02*
X143550609Y-85803628D01*
X143312514Y-86279819D02*
X143312514Y-85279819D01*
X143312514Y-85279819D02*
X143693466Y-85279819D01*
X143693466Y-85279819D02*
X143788704Y-85327438D01*
X143788704Y-85327438D02*
X143836323Y-85375057D01*
X143836323Y-85375057D02*
X143883942Y-85470295D01*
X143883942Y-85470295D02*
X143883942Y-85613152D01*
X143883942Y-85613152D02*
X143836323Y-85708390D01*
X143836323Y-85708390D02*
X143788704Y-85756009D01*
X143788704Y-85756009D02*
X143693466Y-85803628D01*
X143693466Y-85803628D02*
X143312514Y-85803628D01*
X144836323Y-86279819D02*
X144264895Y-86279819D01*
X144550609Y-86279819D02*
X144550609Y-85279819D01*
X144550609Y-85279819D02*
X144455371Y-85422676D01*
X144455371Y-85422676D02*
X144360133Y-85517914D01*
X144360133Y-85517914D02*
X144264895Y-85565533D01*
X145312514Y-86279819D02*
X145502990Y-86279819D01*
X145502990Y-86279819D02*
X145598228Y-86232200D01*
X145598228Y-86232200D02*
X145645847Y-86184580D01*
X145645847Y-86184580D02*
X145741085Y-86041723D01*
X145741085Y-86041723D02*
X145788704Y-85851247D01*
X145788704Y-85851247D02*
X145788704Y-85470295D01*
X145788704Y-85470295D02*
X145741085Y-85375057D01*
X145741085Y-85375057D02*
X145693466Y-85327438D01*
X145693466Y-85327438D02*
X145598228Y-85279819D01*
X145598228Y-85279819D02*
X145407752Y-85279819D01*
X145407752Y-85279819D02*
X145312514Y-85327438D01*
X145312514Y-85327438D02*
X145264895Y-85375057D01*
X145264895Y-85375057D02*
X145217276Y-85470295D01*
X145217276Y-85470295D02*
X145217276Y-85708390D01*
X145217276Y-85708390D02*
X145264895Y-85803628D01*
X145264895Y-85803628D02*
X145312514Y-85851247D01*
X145312514Y-85851247D02*
X145407752Y-85898866D01*
X145407752Y-85898866D02*
X145598228Y-85898866D01*
X145598228Y-85898866D02*
X145693466Y-85851247D01*
X145693466Y-85851247D02*
X145741085Y-85803628D01*
X145741085Y-85803628D02*
X145788704Y-85708390D01*
D14*
X153955371Y-77753490D02*
X153931562Y-77777300D01*
X153931562Y-77777300D02*
X153860133Y-77801109D01*
X153860133Y-77801109D02*
X153812514Y-77801109D01*
X153812514Y-77801109D02*
X153741086Y-77777300D01*
X153741086Y-77777300D02*
X153693467Y-77729680D01*
X153693467Y-77729680D02*
X153669657Y-77682061D01*
X153669657Y-77682061D02*
X153645848Y-77586823D01*
X153645848Y-77586823D02*
X153645848Y-77515395D01*
X153645848Y-77515395D02*
X153669657Y-77420157D01*
X153669657Y-77420157D02*
X153693467Y-77372538D01*
X153693467Y-77372538D02*
X153741086Y-77324919D01*
X153741086Y-77324919D02*
X153812514Y-77301109D01*
X153812514Y-77301109D02*
X153860133Y-77301109D01*
X153860133Y-77301109D02*
X153931562Y-77324919D01*
X153931562Y-77324919D02*
X153955371Y-77348728D01*
X154431562Y-77801109D02*
X154145848Y-77801109D01*
X154288705Y-77801109D02*
X154288705Y-77301109D01*
X154288705Y-77301109D02*
X154241086Y-77372538D01*
X154241086Y-77372538D02*
X154193467Y-77420157D01*
X154193467Y-77420157D02*
X154145848Y-77443966D01*
X154883942Y-77301109D02*
X154645847Y-77301109D01*
X154645847Y-77301109D02*
X154622038Y-77539204D01*
X154622038Y-77539204D02*
X154645847Y-77515395D01*
X154645847Y-77515395D02*
X154693466Y-77491585D01*
X154693466Y-77491585D02*
X154812514Y-77491585D01*
X154812514Y-77491585D02*
X154860133Y-77515395D01*
X154860133Y-77515395D02*
X154883942Y-77539204D01*
X154883942Y-77539204D02*
X154907752Y-77586823D01*
X154907752Y-77586823D02*
X154907752Y-77705871D01*
X154907752Y-77705871D02*
X154883942Y-77753490D01*
X154883942Y-77753490D02*
X154860133Y-77777300D01*
X154860133Y-77777300D02*
X154812514Y-77801109D01*
X154812514Y-77801109D02*
X154693466Y-77801109D01*
X154693466Y-77801109D02*
X154645847Y-77777300D01*
X154645847Y-77777300D02*
X154622038Y-77753490D01*
D13*
X108260133Y-93329819D02*
X107926800Y-92853628D01*
X107688705Y-93329819D02*
X107688705Y-92329819D01*
X107688705Y-92329819D02*
X108069657Y-92329819D01*
X108069657Y-92329819D02*
X108164895Y-92377438D01*
X108164895Y-92377438D02*
X108212514Y-92425057D01*
X108212514Y-92425057D02*
X108260133Y-92520295D01*
X108260133Y-92520295D02*
X108260133Y-92663152D01*
X108260133Y-92663152D02*
X108212514Y-92758390D01*
X108212514Y-92758390D02*
X108164895Y-92806009D01*
X108164895Y-92806009D02*
X108069657Y-92853628D01*
X108069657Y-92853628D02*
X107688705Y-92853628D01*
X108831562Y-92758390D02*
X108736324Y-92710771D01*
X108736324Y-92710771D02*
X108688705Y-92663152D01*
X108688705Y-92663152D02*
X108641086Y-92567914D01*
X108641086Y-92567914D02*
X108641086Y-92520295D01*
X108641086Y-92520295D02*
X108688705Y-92425057D01*
X108688705Y-92425057D02*
X108736324Y-92377438D01*
X108736324Y-92377438D02*
X108831562Y-92329819D01*
X108831562Y-92329819D02*
X109022038Y-92329819D01*
X109022038Y-92329819D02*
X109117276Y-92377438D01*
X109117276Y-92377438D02*
X109164895Y-92425057D01*
X109164895Y-92425057D02*
X109212514Y-92520295D01*
X109212514Y-92520295D02*
X109212514Y-92567914D01*
X109212514Y-92567914D02*
X109164895Y-92663152D01*
X109164895Y-92663152D02*
X109117276Y-92710771D01*
X109117276Y-92710771D02*
X109022038Y-92758390D01*
X109022038Y-92758390D02*
X108831562Y-92758390D01*
X108831562Y-92758390D02*
X108736324Y-92806009D01*
X108736324Y-92806009D02*
X108688705Y-92853628D01*
X108688705Y-92853628D02*
X108641086Y-92948866D01*
X108641086Y-92948866D02*
X108641086Y-93139342D01*
X108641086Y-93139342D02*
X108688705Y-93234580D01*
X108688705Y-93234580D02*
X108736324Y-93282200D01*
X108736324Y-93282200D02*
X108831562Y-93329819D01*
X108831562Y-93329819D02*
X109022038Y-93329819D01*
X109022038Y-93329819D02*
X109117276Y-93282200D01*
X109117276Y-93282200D02*
X109164895Y-93234580D01*
X109164895Y-93234580D02*
X109212514Y-93139342D01*
X109212514Y-93139342D02*
X109212514Y-92948866D01*
X109212514Y-92948866D02*
X109164895Y-92853628D01*
X109164895Y-92853628D02*
X109117276Y-92806009D01*
X109117276Y-92806009D02*
X109022038Y-92758390D01*
X144981619Y-103967857D02*
X144505428Y-104301190D01*
X144981619Y-104539285D02*
X143981619Y-104539285D01*
X143981619Y-104539285D02*
X143981619Y-104158333D01*
X143981619Y-104158333D02*
X144029238Y-104063095D01*
X144029238Y-104063095D02*
X144076857Y-104015476D01*
X144076857Y-104015476D02*
X144172095Y-103967857D01*
X144172095Y-103967857D02*
X144314952Y-103967857D01*
X144314952Y-103967857D02*
X144410190Y-104015476D01*
X144410190Y-104015476D02*
X144457809Y-104063095D01*
X144457809Y-104063095D02*
X144505428Y-104158333D01*
X144505428Y-104158333D02*
X144505428Y-104539285D01*
X144981619Y-103015476D02*
X144981619Y-103586904D01*
X144981619Y-103301190D02*
X143981619Y-103301190D01*
X143981619Y-103301190D02*
X144124476Y-103396428D01*
X144124476Y-103396428D02*
X144219714Y-103491666D01*
X144219714Y-103491666D02*
X144267333Y-103586904D01*
X144981619Y-102063095D02*
X144981619Y-102634523D01*
X144981619Y-102348809D02*
X143981619Y-102348809D01*
X143981619Y-102348809D02*
X144124476Y-102444047D01*
X144124476Y-102444047D02*
X144219714Y-102539285D01*
X144219714Y-102539285D02*
X144267333Y-102634523D01*
X114633942Y-94522080D02*
X114586323Y-94569700D01*
X114586323Y-94569700D02*
X114443466Y-94617319D01*
X114443466Y-94617319D02*
X114348228Y-94617319D01*
X114348228Y-94617319D02*
X114205371Y-94569700D01*
X114205371Y-94569700D02*
X114110133Y-94474461D01*
X114110133Y-94474461D02*
X114062514Y-94379223D01*
X114062514Y-94379223D02*
X114014895Y-94188747D01*
X114014895Y-94188747D02*
X114014895Y-94045890D01*
X114014895Y-94045890D02*
X114062514Y-93855414D01*
X114062514Y-93855414D02*
X114110133Y-93760176D01*
X114110133Y-93760176D02*
X114205371Y-93664938D01*
X114205371Y-93664938D02*
X114348228Y-93617319D01*
X114348228Y-93617319D02*
X114443466Y-93617319D01*
X114443466Y-93617319D02*
X114586323Y-93664938D01*
X114586323Y-93664938D02*
X114633942Y-93712557D01*
X115586323Y-94617319D02*
X115014895Y-94617319D01*
X115300609Y-94617319D02*
X115300609Y-93617319D01*
X115300609Y-93617319D02*
X115205371Y-93760176D01*
X115205371Y-93760176D02*
X115110133Y-93855414D01*
X115110133Y-93855414D02*
X115014895Y-93903033D01*
X115967276Y-93712557D02*
X116014895Y-93664938D01*
X116014895Y-93664938D02*
X116110133Y-93617319D01*
X116110133Y-93617319D02*
X116348228Y-93617319D01*
X116348228Y-93617319D02*
X116443466Y-93664938D01*
X116443466Y-93664938D02*
X116491085Y-93712557D01*
X116491085Y-93712557D02*
X116538704Y-93807795D01*
X116538704Y-93807795D02*
X116538704Y-93903033D01*
X116538704Y-93903033D02*
X116491085Y-94045890D01*
X116491085Y-94045890D02*
X115919657Y-94617319D01*
X115919657Y-94617319D02*
X116538704Y-94617319D01*
X146133942Y-80684580D02*
X146086323Y-80732200D01*
X146086323Y-80732200D02*
X145943466Y-80779819D01*
X145943466Y-80779819D02*
X145848228Y-80779819D01*
X145848228Y-80779819D02*
X145705371Y-80732200D01*
X145705371Y-80732200D02*
X145610133Y-80636961D01*
X145610133Y-80636961D02*
X145562514Y-80541723D01*
X145562514Y-80541723D02*
X145514895Y-80351247D01*
X145514895Y-80351247D02*
X145514895Y-80208390D01*
X145514895Y-80208390D02*
X145562514Y-80017914D01*
X145562514Y-80017914D02*
X145610133Y-79922676D01*
X145610133Y-79922676D02*
X145705371Y-79827438D01*
X145705371Y-79827438D02*
X145848228Y-79779819D01*
X145848228Y-79779819D02*
X145943466Y-79779819D01*
X145943466Y-79779819D02*
X146086323Y-79827438D01*
X146086323Y-79827438D02*
X146133942Y-79875057D01*
X146514895Y-79875057D02*
X146562514Y-79827438D01*
X146562514Y-79827438D02*
X146657752Y-79779819D01*
X146657752Y-79779819D02*
X146895847Y-79779819D01*
X146895847Y-79779819D02*
X146991085Y-79827438D01*
X146991085Y-79827438D02*
X147038704Y-79875057D01*
X147038704Y-79875057D02*
X147086323Y-79970295D01*
X147086323Y-79970295D02*
X147086323Y-80065533D01*
X147086323Y-80065533D02*
X147038704Y-80208390D01*
X147038704Y-80208390D02*
X146467276Y-80779819D01*
X146467276Y-80779819D02*
X147086323Y-80779819D01*
X147943466Y-79779819D02*
X147752990Y-79779819D01*
X147752990Y-79779819D02*
X147657752Y-79827438D01*
X147657752Y-79827438D02*
X147610133Y-79875057D01*
X147610133Y-79875057D02*
X147514895Y-80017914D01*
X147514895Y-80017914D02*
X147467276Y-80208390D01*
X147467276Y-80208390D02*
X147467276Y-80589342D01*
X147467276Y-80589342D02*
X147514895Y-80684580D01*
X147514895Y-80684580D02*
X147562514Y-80732200D01*
X147562514Y-80732200D02*
X147657752Y-80779819D01*
X147657752Y-80779819D02*
X147848228Y-80779819D01*
X147848228Y-80779819D02*
X147943466Y-80732200D01*
X147943466Y-80732200D02*
X147991085Y-80684580D01*
X147991085Y-80684580D02*
X148038704Y-80589342D01*
X148038704Y-80589342D02*
X148038704Y-80351247D01*
X148038704Y-80351247D02*
X147991085Y-80256009D01*
X147991085Y-80256009D02*
X147943466Y-80208390D01*
X147943466Y-80208390D02*
X147848228Y-80160771D01*
X147848228Y-80160771D02*
X147657752Y-80160771D01*
X147657752Y-80160771D02*
X147562514Y-80208390D01*
X147562514Y-80208390D02*
X147514895Y-80256009D01*
X147514895Y-80256009D02*
X147467276Y-80351247D01*
X102538704Y-117327438D02*
X102443466Y-117279819D01*
X102443466Y-117279819D02*
X102300609Y-117279819D01*
X102300609Y-117279819D02*
X102157752Y-117327438D01*
X102157752Y-117327438D02*
X102062514Y-117422676D01*
X102062514Y-117422676D02*
X102014895Y-117517914D01*
X102014895Y-117517914D02*
X101967276Y-117708390D01*
X101967276Y-117708390D02*
X101967276Y-117851247D01*
X101967276Y-117851247D02*
X102014895Y-118041723D01*
X102014895Y-118041723D02*
X102062514Y-118136961D01*
X102062514Y-118136961D02*
X102157752Y-118232200D01*
X102157752Y-118232200D02*
X102300609Y-118279819D01*
X102300609Y-118279819D02*
X102395847Y-118279819D01*
X102395847Y-118279819D02*
X102538704Y-118232200D01*
X102538704Y-118232200D02*
X102586323Y-118184580D01*
X102586323Y-118184580D02*
X102586323Y-117851247D01*
X102586323Y-117851247D02*
X102395847Y-117851247D01*
X103014895Y-118279819D02*
X103014895Y-117279819D01*
X103014895Y-117279819D02*
X103586323Y-118279819D01*
X103586323Y-118279819D02*
X103586323Y-117279819D01*
X104062514Y-118279819D02*
X104062514Y-117279819D01*
X104062514Y-117279819D02*
X104300609Y-117279819D01*
X104300609Y-117279819D02*
X104443466Y-117327438D01*
X104443466Y-117327438D02*
X104538704Y-117422676D01*
X104538704Y-117422676D02*
X104586323Y-117517914D01*
X104586323Y-117517914D02*
X104633942Y-117708390D01*
X104633942Y-117708390D02*
X104633942Y-117851247D01*
X104633942Y-117851247D02*
X104586323Y-118041723D01*
X104586323Y-118041723D02*
X104538704Y-118136961D01*
X104538704Y-118136961D02*
X104443466Y-118232200D01*
X104443466Y-118232200D02*
X104300609Y-118279819D01*
X104300609Y-118279819D02*
X104062514Y-118279819D01*
X105586323Y-118279819D02*
X105014895Y-118279819D01*
X105300609Y-118279819D02*
X105300609Y-117279819D01*
X105300609Y-117279819D02*
X105205371Y-117422676D01*
X105205371Y-117422676D02*
X105110133Y-117517914D01*
X105110133Y-117517914D02*
X105014895Y-117565533D01*
X114510133Y-92417319D02*
X114176800Y-91941128D01*
X113938705Y-92417319D02*
X113938705Y-91417319D01*
X113938705Y-91417319D02*
X114319657Y-91417319D01*
X114319657Y-91417319D02*
X114414895Y-91464938D01*
X114414895Y-91464938D02*
X114462514Y-91512557D01*
X114462514Y-91512557D02*
X114510133Y-91607795D01*
X114510133Y-91607795D02*
X114510133Y-91750652D01*
X114510133Y-91750652D02*
X114462514Y-91845890D01*
X114462514Y-91845890D02*
X114414895Y-91893509D01*
X114414895Y-91893509D02*
X114319657Y-91941128D01*
X114319657Y-91941128D02*
X113938705Y-91941128D01*
X114986324Y-92417319D02*
X115176800Y-92417319D01*
X115176800Y-92417319D02*
X115272038Y-92369700D01*
X115272038Y-92369700D02*
X115319657Y-92322080D01*
X115319657Y-92322080D02*
X115414895Y-92179223D01*
X115414895Y-92179223D02*
X115462514Y-91988747D01*
X115462514Y-91988747D02*
X115462514Y-91607795D01*
X115462514Y-91607795D02*
X115414895Y-91512557D01*
X115414895Y-91512557D02*
X115367276Y-91464938D01*
X115367276Y-91464938D02*
X115272038Y-91417319D01*
X115272038Y-91417319D02*
X115081562Y-91417319D01*
X115081562Y-91417319D02*
X114986324Y-91464938D01*
X114986324Y-91464938D02*
X114938705Y-91512557D01*
X114938705Y-91512557D02*
X114891086Y-91607795D01*
X114891086Y-91607795D02*
X114891086Y-91845890D01*
X114891086Y-91845890D02*
X114938705Y-91941128D01*
X114938705Y-91941128D02*
X114986324Y-91988747D01*
X114986324Y-91988747D02*
X115081562Y-92036366D01*
X115081562Y-92036366D02*
X115272038Y-92036366D01*
X115272038Y-92036366D02*
X115367276Y-91988747D01*
X115367276Y-91988747D02*
X115414895Y-91941128D01*
X115414895Y-91941128D02*
X115462514Y-91845890D01*
X128446833Y-106836380D02*
X128399214Y-106884000D01*
X128399214Y-106884000D02*
X128256357Y-106931619D01*
X128256357Y-106931619D02*
X128161119Y-106931619D01*
X128161119Y-106931619D02*
X128018262Y-106884000D01*
X128018262Y-106884000D02*
X127923024Y-106788761D01*
X127923024Y-106788761D02*
X127875405Y-106693523D01*
X127875405Y-106693523D02*
X127827786Y-106503047D01*
X127827786Y-106503047D02*
X127827786Y-106360190D01*
X127827786Y-106360190D02*
X127875405Y-106169714D01*
X127875405Y-106169714D02*
X127923024Y-106074476D01*
X127923024Y-106074476D02*
X128018262Y-105979238D01*
X128018262Y-105979238D02*
X128161119Y-105931619D01*
X128161119Y-105931619D02*
X128256357Y-105931619D01*
X128256357Y-105931619D02*
X128399214Y-105979238D01*
X128399214Y-105979238D02*
X128446833Y-106026857D01*
X129351595Y-105931619D02*
X128875405Y-105931619D01*
X128875405Y-105931619D02*
X128827786Y-106407809D01*
X128827786Y-106407809D02*
X128875405Y-106360190D01*
X128875405Y-106360190D02*
X128970643Y-106312571D01*
X128970643Y-106312571D02*
X129208738Y-106312571D01*
X129208738Y-106312571D02*
X129303976Y-106360190D01*
X129303976Y-106360190D02*
X129351595Y-106407809D01*
X129351595Y-106407809D02*
X129399214Y-106503047D01*
X129399214Y-106503047D02*
X129399214Y-106741142D01*
X129399214Y-106741142D02*
X129351595Y-106836380D01*
X129351595Y-106836380D02*
X129303976Y-106884000D01*
X129303976Y-106884000D02*
X129208738Y-106931619D01*
X129208738Y-106931619D02*
X128970643Y-106931619D01*
X128970643Y-106931619D02*
X128875405Y-106884000D01*
X128875405Y-106884000D02*
X128827786Y-106836380D01*
X87538705Y-93779819D02*
X87538705Y-92779819D01*
X87538705Y-92779819D02*
X87776800Y-92779819D01*
X87776800Y-92779819D02*
X87919657Y-92827438D01*
X87919657Y-92827438D02*
X88014895Y-92922676D01*
X88014895Y-92922676D02*
X88062514Y-93017914D01*
X88062514Y-93017914D02*
X88110133Y-93208390D01*
X88110133Y-93208390D02*
X88110133Y-93351247D01*
X88110133Y-93351247D02*
X88062514Y-93541723D01*
X88062514Y-93541723D02*
X88014895Y-93636961D01*
X88014895Y-93636961D02*
X87919657Y-93732200D01*
X87919657Y-93732200D02*
X87776800Y-93779819D01*
X87776800Y-93779819D02*
X87538705Y-93779819D01*
X89062514Y-93779819D02*
X88491086Y-93779819D01*
X88776800Y-93779819D02*
X88776800Y-92779819D01*
X88776800Y-92779819D02*
X88681562Y-92922676D01*
X88681562Y-92922676D02*
X88586324Y-93017914D01*
X88586324Y-93017914D02*
X88491086Y-93065533D01*
X170381619Y-114467857D02*
X169905428Y-114801190D01*
X170381619Y-115039285D02*
X169381619Y-115039285D01*
X169381619Y-115039285D02*
X169381619Y-114658333D01*
X169381619Y-114658333D02*
X169429238Y-114563095D01*
X169429238Y-114563095D02*
X169476857Y-114515476D01*
X169476857Y-114515476D02*
X169572095Y-114467857D01*
X169572095Y-114467857D02*
X169714952Y-114467857D01*
X169714952Y-114467857D02*
X169810190Y-114515476D01*
X169810190Y-114515476D02*
X169857809Y-114563095D01*
X169857809Y-114563095D02*
X169905428Y-114658333D01*
X169905428Y-114658333D02*
X169905428Y-115039285D01*
X170381619Y-113515476D02*
X170381619Y-114086904D01*
X170381619Y-113801190D02*
X169381619Y-113801190D01*
X169381619Y-113801190D02*
X169524476Y-113896428D01*
X169524476Y-113896428D02*
X169619714Y-113991666D01*
X169619714Y-113991666D02*
X169667333Y-114086904D01*
X169381619Y-113182142D02*
X169381619Y-112515476D01*
X169381619Y-112515476D02*
X170381619Y-112944047D01*
X112283942Y-82572080D02*
X112236323Y-82619700D01*
X112236323Y-82619700D02*
X112093466Y-82667319D01*
X112093466Y-82667319D02*
X111998228Y-82667319D01*
X111998228Y-82667319D02*
X111855371Y-82619700D01*
X111855371Y-82619700D02*
X111760133Y-82524461D01*
X111760133Y-82524461D02*
X111712514Y-82429223D01*
X111712514Y-82429223D02*
X111664895Y-82238747D01*
X111664895Y-82238747D02*
X111664895Y-82095890D01*
X111664895Y-82095890D02*
X111712514Y-81905414D01*
X111712514Y-81905414D02*
X111760133Y-81810176D01*
X111760133Y-81810176D02*
X111855371Y-81714938D01*
X111855371Y-81714938D02*
X111998228Y-81667319D01*
X111998228Y-81667319D02*
X112093466Y-81667319D01*
X112093466Y-81667319D02*
X112236323Y-81714938D01*
X112236323Y-81714938D02*
X112283942Y-81762557D01*
X113236323Y-82667319D02*
X112664895Y-82667319D01*
X112950609Y-82667319D02*
X112950609Y-81667319D01*
X112950609Y-81667319D02*
X112855371Y-81810176D01*
X112855371Y-81810176D02*
X112760133Y-81905414D01*
X112760133Y-81905414D02*
X112664895Y-81953033D01*
X113855371Y-81667319D02*
X113950609Y-81667319D01*
X113950609Y-81667319D02*
X114045847Y-81714938D01*
X114045847Y-81714938D02*
X114093466Y-81762557D01*
X114093466Y-81762557D02*
X114141085Y-81857795D01*
X114141085Y-81857795D02*
X114188704Y-82048271D01*
X114188704Y-82048271D02*
X114188704Y-82286366D01*
X114188704Y-82286366D02*
X114141085Y-82476842D01*
X114141085Y-82476842D02*
X114093466Y-82572080D01*
X114093466Y-82572080D02*
X114045847Y-82619700D01*
X114045847Y-82619700D02*
X113950609Y-82667319D01*
X113950609Y-82667319D02*
X113855371Y-82667319D01*
X113855371Y-82667319D02*
X113760133Y-82619700D01*
X113760133Y-82619700D02*
X113712514Y-82572080D01*
X113712514Y-82572080D02*
X113664895Y-82476842D01*
X113664895Y-82476842D02*
X113617276Y-82286366D01*
X113617276Y-82286366D02*
X113617276Y-82048271D01*
X113617276Y-82048271D02*
X113664895Y-81857795D01*
X113664895Y-81857795D02*
X113712514Y-81762557D01*
X113712514Y-81762557D02*
X113760133Y-81714938D01*
X113760133Y-81714938D02*
X113855371Y-81667319D01*
X143133942Y-93434580D02*
X143086323Y-93482200D01*
X143086323Y-93482200D02*
X142943466Y-93529819D01*
X142943466Y-93529819D02*
X142848228Y-93529819D01*
X142848228Y-93529819D02*
X142705371Y-93482200D01*
X142705371Y-93482200D02*
X142610133Y-93386961D01*
X142610133Y-93386961D02*
X142562514Y-93291723D01*
X142562514Y-93291723D02*
X142514895Y-93101247D01*
X142514895Y-93101247D02*
X142514895Y-92958390D01*
X142514895Y-92958390D02*
X142562514Y-92767914D01*
X142562514Y-92767914D02*
X142610133Y-92672676D01*
X142610133Y-92672676D02*
X142705371Y-92577438D01*
X142705371Y-92577438D02*
X142848228Y-92529819D01*
X142848228Y-92529819D02*
X142943466Y-92529819D01*
X142943466Y-92529819D02*
X143086323Y-92577438D01*
X143086323Y-92577438D02*
X143133942Y-92625057D01*
X143514895Y-92625057D02*
X143562514Y-92577438D01*
X143562514Y-92577438D02*
X143657752Y-92529819D01*
X143657752Y-92529819D02*
X143895847Y-92529819D01*
X143895847Y-92529819D02*
X143991085Y-92577438D01*
X143991085Y-92577438D02*
X144038704Y-92625057D01*
X144038704Y-92625057D02*
X144086323Y-92720295D01*
X144086323Y-92720295D02*
X144086323Y-92815533D01*
X144086323Y-92815533D02*
X144038704Y-92958390D01*
X144038704Y-92958390D02*
X143467276Y-93529819D01*
X143467276Y-93529819D02*
X144086323Y-93529819D01*
X144943466Y-92863152D02*
X144943466Y-93529819D01*
X144705371Y-92482200D02*
X144467276Y-93196485D01*
X144467276Y-93196485D02*
X145086323Y-93196485D01*
X170110133Y-105254580D02*
X170062514Y-105302200D01*
X170062514Y-105302200D02*
X169919657Y-105349819D01*
X169919657Y-105349819D02*
X169824419Y-105349819D01*
X169824419Y-105349819D02*
X169681562Y-105302200D01*
X169681562Y-105302200D02*
X169586324Y-105206961D01*
X169586324Y-105206961D02*
X169538705Y-105111723D01*
X169538705Y-105111723D02*
X169491086Y-104921247D01*
X169491086Y-104921247D02*
X169491086Y-104778390D01*
X169491086Y-104778390D02*
X169538705Y-104587914D01*
X169538705Y-104587914D02*
X169586324Y-104492676D01*
X169586324Y-104492676D02*
X169681562Y-104397438D01*
X169681562Y-104397438D02*
X169824419Y-104349819D01*
X169824419Y-104349819D02*
X169919657Y-104349819D01*
X169919657Y-104349819D02*
X170062514Y-104397438D01*
X170062514Y-104397438D02*
X170110133Y-104445057D01*
X170443467Y-104349819D02*
X171062514Y-104349819D01*
X171062514Y-104349819D02*
X170729181Y-104730771D01*
X170729181Y-104730771D02*
X170872038Y-104730771D01*
X170872038Y-104730771D02*
X170967276Y-104778390D01*
X170967276Y-104778390D02*
X171014895Y-104826009D01*
X171014895Y-104826009D02*
X171062514Y-104921247D01*
X171062514Y-104921247D02*
X171062514Y-105159342D01*
X171062514Y-105159342D02*
X171014895Y-105254580D01*
X171014895Y-105254580D02*
X170967276Y-105302200D01*
X170967276Y-105302200D02*
X170872038Y-105349819D01*
X170872038Y-105349819D02*
X170586324Y-105349819D01*
X170586324Y-105349819D02*
X170491086Y-105302200D01*
X170491086Y-105302200D02*
X170443467Y-105254580D01*
X132764895Y-79529819D02*
X132764895Y-80339342D01*
X132764895Y-80339342D02*
X132812514Y-80434580D01*
X132812514Y-80434580D02*
X132860133Y-80482200D01*
X132860133Y-80482200D02*
X132955371Y-80529819D01*
X132955371Y-80529819D02*
X133145847Y-80529819D01*
X133145847Y-80529819D02*
X133241085Y-80482200D01*
X133241085Y-80482200D02*
X133288704Y-80434580D01*
X133288704Y-80434580D02*
X133336323Y-80339342D01*
X133336323Y-80339342D02*
X133336323Y-79529819D01*
X134288704Y-79529819D02*
X133812514Y-79529819D01*
X133812514Y-79529819D02*
X133764895Y-80006009D01*
X133764895Y-80006009D02*
X133812514Y-79958390D01*
X133812514Y-79958390D02*
X133907752Y-79910771D01*
X133907752Y-79910771D02*
X134145847Y-79910771D01*
X134145847Y-79910771D02*
X134241085Y-79958390D01*
X134241085Y-79958390D02*
X134288704Y-80006009D01*
X134288704Y-80006009D02*
X134336323Y-80101247D01*
X134336323Y-80101247D02*
X134336323Y-80339342D01*
X134336323Y-80339342D02*
X134288704Y-80434580D01*
X134288704Y-80434580D02*
X134241085Y-80482200D01*
X134241085Y-80482200D02*
X134145847Y-80529819D01*
X134145847Y-80529819D02*
X133907752Y-80529819D01*
X133907752Y-80529819D02*
X133812514Y-80482200D01*
X133812514Y-80482200D02*
X133764895Y-80434580D01*
X93360133Y-88529819D02*
X92883943Y-88529819D01*
X92883943Y-88529819D02*
X92883943Y-87529819D01*
X94217276Y-88529819D02*
X93645848Y-88529819D01*
X93931562Y-88529819D02*
X93931562Y-87529819D01*
X93931562Y-87529819D02*
X93836324Y-87672676D01*
X93836324Y-87672676D02*
X93741086Y-87767914D01*
X93741086Y-87767914D02*
X93645848Y-87815533D01*
X132693466Y-78256009D02*
X132360133Y-78256009D01*
X132360133Y-78779819D02*
X132360133Y-77779819D01*
X132360133Y-77779819D02*
X132836323Y-77779819D01*
X133550609Y-78256009D02*
X133693466Y-78303628D01*
X133693466Y-78303628D02*
X133741085Y-78351247D01*
X133741085Y-78351247D02*
X133788704Y-78446485D01*
X133788704Y-78446485D02*
X133788704Y-78589342D01*
X133788704Y-78589342D02*
X133741085Y-78684580D01*
X133741085Y-78684580D02*
X133693466Y-78732200D01*
X133693466Y-78732200D02*
X133598228Y-78779819D01*
X133598228Y-78779819D02*
X133217276Y-78779819D01*
X133217276Y-78779819D02*
X133217276Y-77779819D01*
X133217276Y-77779819D02*
X133550609Y-77779819D01*
X133550609Y-77779819D02*
X133645847Y-77827438D01*
X133645847Y-77827438D02*
X133693466Y-77875057D01*
X133693466Y-77875057D02*
X133741085Y-77970295D01*
X133741085Y-77970295D02*
X133741085Y-78065533D01*
X133741085Y-78065533D02*
X133693466Y-78160771D01*
X133693466Y-78160771D02*
X133645847Y-78208390D01*
X133645847Y-78208390D02*
X133550609Y-78256009D01*
X133550609Y-78256009D02*
X133217276Y-78256009D01*
X134169657Y-77875057D02*
X134217276Y-77827438D01*
X134217276Y-77827438D02*
X134312514Y-77779819D01*
X134312514Y-77779819D02*
X134550609Y-77779819D01*
X134550609Y-77779819D02*
X134645847Y-77827438D01*
X134645847Y-77827438D02*
X134693466Y-77875057D01*
X134693466Y-77875057D02*
X134741085Y-77970295D01*
X134741085Y-77970295D02*
X134741085Y-78065533D01*
X134741085Y-78065533D02*
X134693466Y-78208390D01*
X134693466Y-78208390D02*
X134122038Y-78779819D01*
X134122038Y-78779819D02*
X134741085Y-78779819D01*
X164360133Y-108614580D02*
X164312514Y-108662200D01*
X164312514Y-108662200D02*
X164169657Y-108709819D01*
X164169657Y-108709819D02*
X164074419Y-108709819D01*
X164074419Y-108709819D02*
X163931562Y-108662200D01*
X163931562Y-108662200D02*
X163836324Y-108566961D01*
X163836324Y-108566961D02*
X163788705Y-108471723D01*
X163788705Y-108471723D02*
X163741086Y-108281247D01*
X163741086Y-108281247D02*
X163741086Y-108138390D01*
X163741086Y-108138390D02*
X163788705Y-107947914D01*
X163788705Y-107947914D02*
X163836324Y-107852676D01*
X163836324Y-107852676D02*
X163931562Y-107757438D01*
X163931562Y-107757438D02*
X164074419Y-107709819D01*
X164074419Y-107709819D02*
X164169657Y-107709819D01*
X164169657Y-107709819D02*
X164312514Y-107757438D01*
X164312514Y-107757438D02*
X164360133Y-107805057D01*
X164693467Y-107709819D02*
X165360133Y-107709819D01*
X165360133Y-107709819D02*
X164931562Y-108709819D01*
X173883942Y-78279819D02*
X173550609Y-77803628D01*
X173312514Y-78279819D02*
X173312514Y-77279819D01*
X173312514Y-77279819D02*
X173693466Y-77279819D01*
X173693466Y-77279819D02*
X173788704Y-77327438D01*
X173788704Y-77327438D02*
X173836323Y-77375057D01*
X173836323Y-77375057D02*
X173883942Y-77470295D01*
X173883942Y-77470295D02*
X173883942Y-77613152D01*
X173883942Y-77613152D02*
X173836323Y-77708390D01*
X173836323Y-77708390D02*
X173788704Y-77756009D01*
X173788704Y-77756009D02*
X173693466Y-77803628D01*
X173693466Y-77803628D02*
X173312514Y-77803628D01*
X174264895Y-77375057D02*
X174312514Y-77327438D01*
X174312514Y-77327438D02*
X174407752Y-77279819D01*
X174407752Y-77279819D02*
X174645847Y-77279819D01*
X174645847Y-77279819D02*
X174741085Y-77327438D01*
X174741085Y-77327438D02*
X174788704Y-77375057D01*
X174788704Y-77375057D02*
X174836323Y-77470295D01*
X174836323Y-77470295D02*
X174836323Y-77565533D01*
X174836323Y-77565533D02*
X174788704Y-77708390D01*
X174788704Y-77708390D02*
X174217276Y-78279819D01*
X174217276Y-78279819D02*
X174836323Y-78279819D01*
X175693466Y-77613152D02*
X175693466Y-78279819D01*
X175455371Y-77232200D02*
X175217276Y-77946485D01*
X175217276Y-77946485D02*
X175836323Y-77946485D01*
X171693466Y-83029819D02*
X171693466Y-83744104D01*
X171693466Y-83744104D02*
X171645847Y-83886961D01*
X171645847Y-83886961D02*
X171550609Y-83982200D01*
X171550609Y-83982200D02*
X171407752Y-84029819D01*
X171407752Y-84029819D02*
X171312514Y-84029819D01*
X172598228Y-83363152D02*
X172598228Y-84029819D01*
X172360133Y-82982200D02*
X172122038Y-83696485D01*
X172122038Y-83696485D02*
X172741085Y-83696485D01*
X173631619Y-114467857D02*
X173155428Y-114801190D01*
X173631619Y-115039285D02*
X172631619Y-115039285D01*
X172631619Y-115039285D02*
X172631619Y-114658333D01*
X172631619Y-114658333D02*
X172679238Y-114563095D01*
X172679238Y-114563095D02*
X172726857Y-114515476D01*
X172726857Y-114515476D02*
X172822095Y-114467857D01*
X172822095Y-114467857D02*
X172964952Y-114467857D01*
X172964952Y-114467857D02*
X173060190Y-114515476D01*
X173060190Y-114515476D02*
X173107809Y-114563095D01*
X173107809Y-114563095D02*
X173155428Y-114658333D01*
X173155428Y-114658333D02*
X173155428Y-115039285D01*
X173631619Y-113515476D02*
X173631619Y-114086904D01*
X173631619Y-113801190D02*
X172631619Y-113801190D01*
X172631619Y-113801190D02*
X172774476Y-113896428D01*
X172774476Y-113896428D02*
X172869714Y-113991666D01*
X172869714Y-113991666D02*
X172917333Y-114086904D01*
X172631619Y-112658333D02*
X172631619Y-112848809D01*
X172631619Y-112848809D02*
X172679238Y-112944047D01*
X172679238Y-112944047D02*
X172726857Y-112991666D01*
X172726857Y-112991666D02*
X172869714Y-113086904D01*
X172869714Y-113086904D02*
X173060190Y-113134523D01*
X173060190Y-113134523D02*
X173441142Y-113134523D01*
X173441142Y-113134523D02*
X173536380Y-113086904D01*
X173536380Y-113086904D02*
X173584000Y-113039285D01*
X173584000Y-113039285D02*
X173631619Y-112944047D01*
X173631619Y-112944047D02*
X173631619Y-112753571D01*
X173631619Y-112753571D02*
X173584000Y-112658333D01*
X173584000Y-112658333D02*
X173536380Y-112610714D01*
X173536380Y-112610714D02*
X173441142Y-112563095D01*
X173441142Y-112563095D02*
X173203047Y-112563095D01*
X173203047Y-112563095D02*
X173107809Y-112610714D01*
X173107809Y-112610714D02*
X173060190Y-112658333D01*
X173060190Y-112658333D02*
X173012571Y-112753571D01*
X173012571Y-112753571D02*
X173012571Y-112944047D01*
X173012571Y-112944047D02*
X173060190Y-113039285D01*
X173060190Y-113039285D02*
X173107809Y-113086904D01*
X173107809Y-113086904D02*
X173203047Y-113134523D01*
X88110133Y-84434580D02*
X88062514Y-84482200D01*
X88062514Y-84482200D02*
X87919657Y-84529819D01*
X87919657Y-84529819D02*
X87824419Y-84529819D01*
X87824419Y-84529819D02*
X87681562Y-84482200D01*
X87681562Y-84482200D02*
X87586324Y-84386961D01*
X87586324Y-84386961D02*
X87538705Y-84291723D01*
X87538705Y-84291723D02*
X87491086Y-84101247D01*
X87491086Y-84101247D02*
X87491086Y-83958390D01*
X87491086Y-83958390D02*
X87538705Y-83767914D01*
X87538705Y-83767914D02*
X87586324Y-83672676D01*
X87586324Y-83672676D02*
X87681562Y-83577438D01*
X87681562Y-83577438D02*
X87824419Y-83529819D01*
X87824419Y-83529819D02*
X87919657Y-83529819D01*
X87919657Y-83529819D02*
X88062514Y-83577438D01*
X88062514Y-83577438D02*
X88110133Y-83625057D01*
X88491086Y-83625057D02*
X88538705Y-83577438D01*
X88538705Y-83577438D02*
X88633943Y-83529819D01*
X88633943Y-83529819D02*
X88872038Y-83529819D01*
X88872038Y-83529819D02*
X88967276Y-83577438D01*
X88967276Y-83577438D02*
X89014895Y-83625057D01*
X89014895Y-83625057D02*
X89062514Y-83720295D01*
X89062514Y-83720295D02*
X89062514Y-83815533D01*
X89062514Y-83815533D02*
X89014895Y-83958390D01*
X89014895Y-83958390D02*
X88443467Y-84529819D01*
X88443467Y-84529819D02*
X89062514Y-84529819D01*
X106895848Y-79732200D02*
X106991086Y-79779819D01*
X106991086Y-79779819D02*
X107181562Y-79779819D01*
X107181562Y-79779819D02*
X107276800Y-79732200D01*
X107276800Y-79732200D02*
X107324419Y-79636961D01*
X107324419Y-79636961D02*
X107324419Y-79589342D01*
X107324419Y-79589342D02*
X107276800Y-79494104D01*
X107276800Y-79494104D02*
X107181562Y-79446485D01*
X107181562Y-79446485D02*
X107038705Y-79446485D01*
X107038705Y-79446485D02*
X106943467Y-79398866D01*
X106943467Y-79398866D02*
X106895848Y-79303628D01*
X106895848Y-79303628D02*
X106895848Y-79256009D01*
X106895848Y-79256009D02*
X106943467Y-79160771D01*
X106943467Y-79160771D02*
X107038705Y-79113152D01*
X107038705Y-79113152D02*
X107181562Y-79113152D01*
X107181562Y-79113152D02*
X107276800Y-79160771D01*
X107752991Y-79779819D02*
X107752991Y-79113152D01*
X107752991Y-78779819D02*
X107705372Y-78827438D01*
X107705372Y-78827438D02*
X107752991Y-78875057D01*
X107752991Y-78875057D02*
X107800610Y-78827438D01*
X107800610Y-78827438D02*
X107752991Y-78779819D01*
X107752991Y-78779819D02*
X107752991Y-78875057D01*
X108657752Y-79113152D02*
X108657752Y-79922676D01*
X108657752Y-79922676D02*
X108610133Y-80017914D01*
X108610133Y-80017914D02*
X108562514Y-80065533D01*
X108562514Y-80065533D02*
X108467276Y-80113152D01*
X108467276Y-80113152D02*
X108324419Y-80113152D01*
X108324419Y-80113152D02*
X108229181Y-80065533D01*
X108657752Y-79732200D02*
X108562514Y-79779819D01*
X108562514Y-79779819D02*
X108372038Y-79779819D01*
X108372038Y-79779819D02*
X108276800Y-79732200D01*
X108276800Y-79732200D02*
X108229181Y-79684580D01*
X108229181Y-79684580D02*
X108181562Y-79589342D01*
X108181562Y-79589342D02*
X108181562Y-79303628D01*
X108181562Y-79303628D02*
X108229181Y-79208390D01*
X108229181Y-79208390D02*
X108276800Y-79160771D01*
X108276800Y-79160771D02*
X108372038Y-79113152D01*
X108372038Y-79113152D02*
X108562514Y-79113152D01*
X108562514Y-79113152D02*
X108657752Y-79160771D01*
X109610133Y-78779819D02*
X109133943Y-78779819D01*
X109133943Y-78779819D02*
X109086324Y-79256009D01*
X109086324Y-79256009D02*
X109133943Y-79208390D01*
X109133943Y-79208390D02*
X109229181Y-79160771D01*
X109229181Y-79160771D02*
X109467276Y-79160771D01*
X109467276Y-79160771D02*
X109562514Y-79208390D01*
X109562514Y-79208390D02*
X109610133Y-79256009D01*
X109610133Y-79256009D02*
X109657752Y-79351247D01*
X109657752Y-79351247D02*
X109657752Y-79589342D01*
X109657752Y-79589342D02*
X109610133Y-79684580D01*
X109610133Y-79684580D02*
X109562514Y-79732200D01*
X109562514Y-79732200D02*
X109467276Y-79779819D01*
X109467276Y-79779819D02*
X109229181Y-79779819D01*
X109229181Y-79779819D02*
X109133943Y-79732200D01*
X109133943Y-79732200D02*
X109086324Y-79684580D01*
X124943466Y-78256009D02*
X124610133Y-78256009D01*
X124610133Y-78779819D02*
X124610133Y-77779819D01*
X124610133Y-77779819D02*
X125086323Y-77779819D01*
X125800609Y-78256009D02*
X125943466Y-78303628D01*
X125943466Y-78303628D02*
X125991085Y-78351247D01*
X125991085Y-78351247D02*
X126038704Y-78446485D01*
X126038704Y-78446485D02*
X126038704Y-78589342D01*
X126038704Y-78589342D02*
X125991085Y-78684580D01*
X125991085Y-78684580D02*
X125943466Y-78732200D01*
X125943466Y-78732200D02*
X125848228Y-78779819D01*
X125848228Y-78779819D02*
X125467276Y-78779819D01*
X125467276Y-78779819D02*
X125467276Y-77779819D01*
X125467276Y-77779819D02*
X125800609Y-77779819D01*
X125800609Y-77779819D02*
X125895847Y-77827438D01*
X125895847Y-77827438D02*
X125943466Y-77875057D01*
X125943466Y-77875057D02*
X125991085Y-77970295D01*
X125991085Y-77970295D02*
X125991085Y-78065533D01*
X125991085Y-78065533D02*
X125943466Y-78160771D01*
X125943466Y-78160771D02*
X125895847Y-78208390D01*
X125895847Y-78208390D02*
X125800609Y-78256009D01*
X125800609Y-78256009D02*
X125467276Y-78256009D01*
X126991085Y-78779819D02*
X126419657Y-78779819D01*
X126705371Y-78779819D02*
X126705371Y-77779819D01*
X126705371Y-77779819D02*
X126610133Y-77922676D01*
X126610133Y-77922676D02*
X126514895Y-78017914D01*
X126514895Y-78017914D02*
X126419657Y-78065533D01*
X177633942Y-82934580D02*
X177586323Y-82982200D01*
X177586323Y-82982200D02*
X177443466Y-83029819D01*
X177443466Y-83029819D02*
X177348228Y-83029819D01*
X177348228Y-83029819D02*
X177205371Y-82982200D01*
X177205371Y-82982200D02*
X177110133Y-82886961D01*
X177110133Y-82886961D02*
X177062514Y-82791723D01*
X177062514Y-82791723D02*
X177014895Y-82601247D01*
X177014895Y-82601247D02*
X177014895Y-82458390D01*
X177014895Y-82458390D02*
X177062514Y-82267914D01*
X177062514Y-82267914D02*
X177110133Y-82172676D01*
X177110133Y-82172676D02*
X177205371Y-82077438D01*
X177205371Y-82077438D02*
X177348228Y-82029819D01*
X177348228Y-82029819D02*
X177443466Y-82029819D01*
X177443466Y-82029819D02*
X177586323Y-82077438D01*
X177586323Y-82077438D02*
X177633942Y-82125057D01*
X178014895Y-82125057D02*
X178062514Y-82077438D01*
X178062514Y-82077438D02*
X178157752Y-82029819D01*
X178157752Y-82029819D02*
X178395847Y-82029819D01*
X178395847Y-82029819D02*
X178491085Y-82077438D01*
X178491085Y-82077438D02*
X178538704Y-82125057D01*
X178538704Y-82125057D02*
X178586323Y-82220295D01*
X178586323Y-82220295D02*
X178586323Y-82315533D01*
X178586323Y-82315533D02*
X178538704Y-82458390D01*
X178538704Y-82458390D02*
X177967276Y-83029819D01*
X177967276Y-83029819D02*
X178586323Y-83029819D01*
X178919657Y-82029819D02*
X179586323Y-82029819D01*
X179586323Y-82029819D02*
X179157752Y-83029819D01*
X136883942Y-103279819D02*
X136550609Y-102803628D01*
X136312514Y-103279819D02*
X136312514Y-102279819D01*
X136312514Y-102279819D02*
X136693466Y-102279819D01*
X136693466Y-102279819D02*
X136788704Y-102327438D01*
X136788704Y-102327438D02*
X136836323Y-102375057D01*
X136836323Y-102375057D02*
X136883942Y-102470295D01*
X136883942Y-102470295D02*
X136883942Y-102613152D01*
X136883942Y-102613152D02*
X136836323Y-102708390D01*
X136836323Y-102708390D02*
X136788704Y-102756009D01*
X136788704Y-102756009D02*
X136693466Y-102803628D01*
X136693466Y-102803628D02*
X136312514Y-102803628D01*
X137836323Y-103279819D02*
X137264895Y-103279819D01*
X137550609Y-103279819D02*
X137550609Y-102279819D01*
X137550609Y-102279819D02*
X137455371Y-102422676D01*
X137455371Y-102422676D02*
X137360133Y-102517914D01*
X137360133Y-102517914D02*
X137264895Y-102565533D01*
X138455371Y-102279819D02*
X138550609Y-102279819D01*
X138550609Y-102279819D02*
X138645847Y-102327438D01*
X138645847Y-102327438D02*
X138693466Y-102375057D01*
X138693466Y-102375057D02*
X138741085Y-102470295D01*
X138741085Y-102470295D02*
X138788704Y-102660771D01*
X138788704Y-102660771D02*
X138788704Y-102898866D01*
X138788704Y-102898866D02*
X138741085Y-103089342D01*
X138741085Y-103089342D02*
X138693466Y-103184580D01*
X138693466Y-103184580D02*
X138645847Y-103232200D01*
X138645847Y-103232200D02*
X138550609Y-103279819D01*
X138550609Y-103279819D02*
X138455371Y-103279819D01*
X138455371Y-103279819D02*
X138360133Y-103232200D01*
X138360133Y-103232200D02*
X138312514Y-103184580D01*
X138312514Y-103184580D02*
X138264895Y-103089342D01*
X138264895Y-103089342D02*
X138217276Y-102898866D01*
X138217276Y-102898866D02*
X138217276Y-102660771D01*
X138217276Y-102660771D02*
X138264895Y-102470295D01*
X138264895Y-102470295D02*
X138312514Y-102375057D01*
X138312514Y-102375057D02*
X138360133Y-102327438D01*
X138360133Y-102327438D02*
X138455371Y-102279819D01*
X176881619Y-114467857D02*
X176405428Y-114801190D01*
X176881619Y-115039285D02*
X175881619Y-115039285D01*
X175881619Y-115039285D02*
X175881619Y-114658333D01*
X175881619Y-114658333D02*
X175929238Y-114563095D01*
X175929238Y-114563095D02*
X175976857Y-114515476D01*
X175976857Y-114515476D02*
X176072095Y-114467857D01*
X176072095Y-114467857D02*
X176214952Y-114467857D01*
X176214952Y-114467857D02*
X176310190Y-114515476D01*
X176310190Y-114515476D02*
X176357809Y-114563095D01*
X176357809Y-114563095D02*
X176405428Y-114658333D01*
X176405428Y-114658333D02*
X176405428Y-115039285D01*
X176881619Y-113515476D02*
X176881619Y-114086904D01*
X176881619Y-113801190D02*
X175881619Y-113801190D01*
X175881619Y-113801190D02*
X176024476Y-113896428D01*
X176024476Y-113896428D02*
X176119714Y-113991666D01*
X176119714Y-113991666D02*
X176167333Y-114086904D01*
X175881619Y-112610714D02*
X175881619Y-113086904D01*
X175881619Y-113086904D02*
X176357809Y-113134523D01*
X176357809Y-113134523D02*
X176310190Y-113086904D01*
X176310190Y-113086904D02*
X176262571Y-112991666D01*
X176262571Y-112991666D02*
X176262571Y-112753571D01*
X176262571Y-112753571D02*
X176310190Y-112658333D01*
X176310190Y-112658333D02*
X176357809Y-112610714D01*
X176357809Y-112610714D02*
X176453047Y-112563095D01*
X176453047Y-112563095D02*
X176691142Y-112563095D01*
X176691142Y-112563095D02*
X176786380Y-112610714D01*
X176786380Y-112610714D02*
X176834000Y-112658333D01*
X176834000Y-112658333D02*
X176881619Y-112753571D01*
X176881619Y-112753571D02*
X176881619Y-112991666D01*
X176881619Y-112991666D02*
X176834000Y-113086904D01*
X176834000Y-113086904D02*
X176786380Y-113134523D01*
X83603048Y-97022200D02*
X83698286Y-97069819D01*
X83698286Y-97069819D02*
X83888762Y-97069819D01*
X83888762Y-97069819D02*
X83984000Y-97022200D01*
X83984000Y-97022200D02*
X84031619Y-96926961D01*
X84031619Y-96926961D02*
X84031619Y-96879342D01*
X84031619Y-96879342D02*
X83984000Y-96784104D01*
X83984000Y-96784104D02*
X83888762Y-96736485D01*
X83888762Y-96736485D02*
X83745905Y-96736485D01*
X83745905Y-96736485D02*
X83650667Y-96688866D01*
X83650667Y-96688866D02*
X83603048Y-96593628D01*
X83603048Y-96593628D02*
X83603048Y-96546009D01*
X83603048Y-96546009D02*
X83650667Y-96450771D01*
X83650667Y-96450771D02*
X83745905Y-96403152D01*
X83745905Y-96403152D02*
X83888762Y-96403152D01*
X83888762Y-96403152D02*
X83984000Y-96450771D01*
X84460191Y-97069819D02*
X84460191Y-96403152D01*
X84460191Y-96069819D02*
X84412572Y-96117438D01*
X84412572Y-96117438D02*
X84460191Y-96165057D01*
X84460191Y-96165057D02*
X84507810Y-96117438D01*
X84507810Y-96117438D02*
X84460191Y-96069819D01*
X84460191Y-96069819D02*
X84460191Y-96165057D01*
X85364952Y-96403152D02*
X85364952Y-97212676D01*
X85364952Y-97212676D02*
X85317333Y-97307914D01*
X85317333Y-97307914D02*
X85269714Y-97355533D01*
X85269714Y-97355533D02*
X85174476Y-97403152D01*
X85174476Y-97403152D02*
X85031619Y-97403152D01*
X85031619Y-97403152D02*
X84936381Y-97355533D01*
X85364952Y-97022200D02*
X85269714Y-97069819D01*
X85269714Y-97069819D02*
X85079238Y-97069819D01*
X85079238Y-97069819D02*
X84984000Y-97022200D01*
X84984000Y-97022200D02*
X84936381Y-96974580D01*
X84936381Y-96974580D02*
X84888762Y-96879342D01*
X84888762Y-96879342D02*
X84888762Y-96593628D01*
X84888762Y-96593628D02*
X84936381Y-96498390D01*
X84936381Y-96498390D02*
X84984000Y-96450771D01*
X84984000Y-96450771D02*
X85079238Y-96403152D01*
X85079238Y-96403152D02*
X85269714Y-96403152D01*
X85269714Y-96403152D02*
X85364952Y-96450771D01*
X86364952Y-97069819D02*
X85793524Y-97069819D01*
X86079238Y-97069819D02*
X86079238Y-96069819D01*
X86079238Y-96069819D02*
X85984000Y-96212676D01*
X85984000Y-96212676D02*
X85888762Y-96307914D01*
X85888762Y-96307914D02*
X85793524Y-96355533D01*
X145636380Y-82967857D02*
X145684000Y-83015476D01*
X145684000Y-83015476D02*
X145731619Y-83158333D01*
X145731619Y-83158333D02*
X145731619Y-83253571D01*
X145731619Y-83253571D02*
X145684000Y-83396428D01*
X145684000Y-83396428D02*
X145588761Y-83491666D01*
X145588761Y-83491666D02*
X145493523Y-83539285D01*
X145493523Y-83539285D02*
X145303047Y-83586904D01*
X145303047Y-83586904D02*
X145160190Y-83586904D01*
X145160190Y-83586904D02*
X144969714Y-83539285D01*
X144969714Y-83539285D02*
X144874476Y-83491666D01*
X144874476Y-83491666D02*
X144779238Y-83396428D01*
X144779238Y-83396428D02*
X144731619Y-83253571D01*
X144731619Y-83253571D02*
X144731619Y-83158333D01*
X144731619Y-83158333D02*
X144779238Y-83015476D01*
X144779238Y-83015476D02*
X144826857Y-82967857D01*
X144826857Y-82586904D02*
X144779238Y-82539285D01*
X144779238Y-82539285D02*
X144731619Y-82444047D01*
X144731619Y-82444047D02*
X144731619Y-82205952D01*
X144731619Y-82205952D02*
X144779238Y-82110714D01*
X144779238Y-82110714D02*
X144826857Y-82063095D01*
X144826857Y-82063095D02*
X144922095Y-82015476D01*
X144922095Y-82015476D02*
X145017333Y-82015476D01*
X145017333Y-82015476D02*
X145160190Y-82063095D01*
X145160190Y-82063095D02*
X145731619Y-82634523D01*
X145731619Y-82634523D02*
X145731619Y-82015476D01*
X144826857Y-81634523D02*
X144779238Y-81586904D01*
X144779238Y-81586904D02*
X144731619Y-81491666D01*
X144731619Y-81491666D02*
X144731619Y-81253571D01*
X144731619Y-81253571D02*
X144779238Y-81158333D01*
X144779238Y-81158333D02*
X144826857Y-81110714D01*
X144826857Y-81110714D02*
X144922095Y-81063095D01*
X144922095Y-81063095D02*
X145017333Y-81063095D01*
X145017333Y-81063095D02*
X145160190Y-81110714D01*
X145160190Y-81110714D02*
X145731619Y-81682142D01*
X145731619Y-81682142D02*
X145731619Y-81063095D01*
X171636380Y-81967857D02*
X171684000Y-82015476D01*
X171684000Y-82015476D02*
X171731619Y-82158333D01*
X171731619Y-82158333D02*
X171731619Y-82253571D01*
X171731619Y-82253571D02*
X171684000Y-82396428D01*
X171684000Y-82396428D02*
X171588761Y-82491666D01*
X171588761Y-82491666D02*
X171493523Y-82539285D01*
X171493523Y-82539285D02*
X171303047Y-82586904D01*
X171303047Y-82586904D02*
X171160190Y-82586904D01*
X171160190Y-82586904D02*
X170969714Y-82539285D01*
X170969714Y-82539285D02*
X170874476Y-82491666D01*
X170874476Y-82491666D02*
X170779238Y-82396428D01*
X170779238Y-82396428D02*
X170731619Y-82253571D01*
X170731619Y-82253571D02*
X170731619Y-82158333D01*
X170731619Y-82158333D02*
X170779238Y-82015476D01*
X170779238Y-82015476D02*
X170826857Y-81967857D01*
X170826857Y-81586904D02*
X170779238Y-81539285D01*
X170779238Y-81539285D02*
X170731619Y-81444047D01*
X170731619Y-81444047D02*
X170731619Y-81205952D01*
X170731619Y-81205952D02*
X170779238Y-81110714D01*
X170779238Y-81110714D02*
X170826857Y-81063095D01*
X170826857Y-81063095D02*
X170922095Y-81015476D01*
X170922095Y-81015476D02*
X171017333Y-81015476D01*
X171017333Y-81015476D02*
X171160190Y-81063095D01*
X171160190Y-81063095D02*
X171731619Y-81634523D01*
X171731619Y-81634523D02*
X171731619Y-81015476D01*
X171160190Y-80444047D02*
X171112571Y-80539285D01*
X171112571Y-80539285D02*
X171064952Y-80586904D01*
X171064952Y-80586904D02*
X170969714Y-80634523D01*
X170969714Y-80634523D02*
X170922095Y-80634523D01*
X170922095Y-80634523D02*
X170826857Y-80586904D01*
X170826857Y-80586904D02*
X170779238Y-80539285D01*
X170779238Y-80539285D02*
X170731619Y-80444047D01*
X170731619Y-80444047D02*
X170731619Y-80253571D01*
X170731619Y-80253571D02*
X170779238Y-80158333D01*
X170779238Y-80158333D02*
X170826857Y-80110714D01*
X170826857Y-80110714D02*
X170922095Y-80063095D01*
X170922095Y-80063095D02*
X170969714Y-80063095D01*
X170969714Y-80063095D02*
X171064952Y-80110714D01*
X171064952Y-80110714D02*
X171112571Y-80158333D01*
X171112571Y-80158333D02*
X171160190Y-80253571D01*
X171160190Y-80253571D02*
X171160190Y-80444047D01*
X171160190Y-80444047D02*
X171207809Y-80539285D01*
X171207809Y-80539285D02*
X171255428Y-80586904D01*
X171255428Y-80586904D02*
X171350666Y-80634523D01*
X171350666Y-80634523D02*
X171541142Y-80634523D01*
X171541142Y-80634523D02*
X171636380Y-80586904D01*
X171636380Y-80586904D02*
X171684000Y-80539285D01*
X171684000Y-80539285D02*
X171731619Y-80444047D01*
X171731619Y-80444047D02*
X171731619Y-80253571D01*
X171731619Y-80253571D02*
X171684000Y-80158333D01*
X171684000Y-80158333D02*
X171636380Y-80110714D01*
X171636380Y-80110714D02*
X171541142Y-80063095D01*
X171541142Y-80063095D02*
X171350666Y-80063095D01*
X171350666Y-80063095D02*
X171255428Y-80110714D01*
X171255428Y-80110714D02*
X171207809Y-80158333D01*
X171207809Y-80158333D02*
X171160190Y-80253571D01*
X177288705Y-109529819D02*
X177288705Y-108529819D01*
X177288705Y-108529819D02*
X177526800Y-108529819D01*
X177526800Y-108529819D02*
X177669657Y-108577438D01*
X177669657Y-108577438D02*
X177764895Y-108672676D01*
X177764895Y-108672676D02*
X177812514Y-108767914D01*
X177812514Y-108767914D02*
X177860133Y-108958390D01*
X177860133Y-108958390D02*
X177860133Y-109101247D01*
X177860133Y-109101247D02*
X177812514Y-109291723D01*
X177812514Y-109291723D02*
X177764895Y-109386961D01*
X177764895Y-109386961D02*
X177669657Y-109482200D01*
X177669657Y-109482200D02*
X177526800Y-109529819D01*
X177526800Y-109529819D02*
X177288705Y-109529819D01*
X178241086Y-108625057D02*
X178288705Y-108577438D01*
X178288705Y-108577438D02*
X178383943Y-108529819D01*
X178383943Y-108529819D02*
X178622038Y-108529819D01*
X178622038Y-108529819D02*
X178717276Y-108577438D01*
X178717276Y-108577438D02*
X178764895Y-108625057D01*
X178764895Y-108625057D02*
X178812514Y-108720295D01*
X178812514Y-108720295D02*
X178812514Y-108815533D01*
X178812514Y-108815533D02*
X178764895Y-108958390D01*
X178764895Y-108958390D02*
X178193467Y-109529819D01*
X178193467Y-109529819D02*
X178812514Y-109529819D01*
X129596442Y-78684580D02*
X129548823Y-78732200D01*
X129548823Y-78732200D02*
X129405966Y-78779819D01*
X129405966Y-78779819D02*
X129310728Y-78779819D01*
X129310728Y-78779819D02*
X129167871Y-78732200D01*
X129167871Y-78732200D02*
X129072633Y-78636961D01*
X129072633Y-78636961D02*
X129025014Y-78541723D01*
X129025014Y-78541723D02*
X128977395Y-78351247D01*
X128977395Y-78351247D02*
X128977395Y-78208390D01*
X128977395Y-78208390D02*
X129025014Y-78017914D01*
X129025014Y-78017914D02*
X129072633Y-77922676D01*
X129072633Y-77922676D02*
X129167871Y-77827438D01*
X129167871Y-77827438D02*
X129310728Y-77779819D01*
X129310728Y-77779819D02*
X129405966Y-77779819D01*
X129405966Y-77779819D02*
X129548823Y-77827438D01*
X129548823Y-77827438D02*
X129596442Y-77875057D01*
X129977395Y-77875057D02*
X130025014Y-77827438D01*
X130025014Y-77827438D02*
X130120252Y-77779819D01*
X130120252Y-77779819D02*
X130358347Y-77779819D01*
X130358347Y-77779819D02*
X130453585Y-77827438D01*
X130453585Y-77827438D02*
X130501204Y-77875057D01*
X130501204Y-77875057D02*
X130548823Y-77970295D01*
X130548823Y-77970295D02*
X130548823Y-78065533D01*
X130548823Y-78065533D02*
X130501204Y-78208390D01*
X130501204Y-78208390D02*
X129929776Y-78779819D01*
X129929776Y-78779819D02*
X130548823Y-78779819D01*
X131167871Y-77779819D02*
X131263109Y-77779819D01*
X131263109Y-77779819D02*
X131358347Y-77827438D01*
X131358347Y-77827438D02*
X131405966Y-77875057D01*
X131405966Y-77875057D02*
X131453585Y-77970295D01*
X131453585Y-77970295D02*
X131501204Y-78160771D01*
X131501204Y-78160771D02*
X131501204Y-78398866D01*
X131501204Y-78398866D02*
X131453585Y-78589342D01*
X131453585Y-78589342D02*
X131405966Y-78684580D01*
X131405966Y-78684580D02*
X131358347Y-78732200D01*
X131358347Y-78732200D02*
X131263109Y-78779819D01*
X131263109Y-78779819D02*
X131167871Y-78779819D01*
X131167871Y-78779819D02*
X131072633Y-78732200D01*
X131072633Y-78732200D02*
X131025014Y-78684580D01*
X131025014Y-78684580D02*
X130977395Y-78589342D01*
X130977395Y-78589342D02*
X130929776Y-78398866D01*
X130929776Y-78398866D02*
X130929776Y-78160771D01*
X130929776Y-78160771D02*
X130977395Y-77970295D01*
X130977395Y-77970295D02*
X131025014Y-77875057D01*
X131025014Y-77875057D02*
X131072633Y-77827438D01*
X131072633Y-77827438D02*
X131167871Y-77779819D01*
X103710133Y-89434580D02*
X103662514Y-89482200D01*
X103662514Y-89482200D02*
X103519657Y-89529819D01*
X103519657Y-89529819D02*
X103424419Y-89529819D01*
X103424419Y-89529819D02*
X103281562Y-89482200D01*
X103281562Y-89482200D02*
X103186324Y-89386961D01*
X103186324Y-89386961D02*
X103138705Y-89291723D01*
X103138705Y-89291723D02*
X103091086Y-89101247D01*
X103091086Y-89101247D02*
X103091086Y-88958390D01*
X103091086Y-88958390D02*
X103138705Y-88767914D01*
X103138705Y-88767914D02*
X103186324Y-88672676D01*
X103186324Y-88672676D02*
X103281562Y-88577438D01*
X103281562Y-88577438D02*
X103424419Y-88529819D01*
X103424419Y-88529819D02*
X103519657Y-88529819D01*
X103519657Y-88529819D02*
X103662514Y-88577438D01*
X103662514Y-88577438D02*
X103710133Y-88625057D01*
X104281562Y-88958390D02*
X104186324Y-88910771D01*
X104186324Y-88910771D02*
X104138705Y-88863152D01*
X104138705Y-88863152D02*
X104091086Y-88767914D01*
X104091086Y-88767914D02*
X104091086Y-88720295D01*
X104091086Y-88720295D02*
X104138705Y-88625057D01*
X104138705Y-88625057D02*
X104186324Y-88577438D01*
X104186324Y-88577438D02*
X104281562Y-88529819D01*
X104281562Y-88529819D02*
X104472038Y-88529819D01*
X104472038Y-88529819D02*
X104567276Y-88577438D01*
X104567276Y-88577438D02*
X104614895Y-88625057D01*
X104614895Y-88625057D02*
X104662514Y-88720295D01*
X104662514Y-88720295D02*
X104662514Y-88767914D01*
X104662514Y-88767914D02*
X104614895Y-88863152D01*
X104614895Y-88863152D02*
X104567276Y-88910771D01*
X104567276Y-88910771D02*
X104472038Y-88958390D01*
X104472038Y-88958390D02*
X104281562Y-88958390D01*
X104281562Y-88958390D02*
X104186324Y-89006009D01*
X104186324Y-89006009D02*
X104138705Y-89053628D01*
X104138705Y-89053628D02*
X104091086Y-89148866D01*
X104091086Y-89148866D02*
X104091086Y-89339342D01*
X104091086Y-89339342D02*
X104138705Y-89434580D01*
X104138705Y-89434580D02*
X104186324Y-89482200D01*
X104186324Y-89482200D02*
X104281562Y-89529819D01*
X104281562Y-89529819D02*
X104472038Y-89529819D01*
X104472038Y-89529819D02*
X104567276Y-89482200D01*
X104567276Y-89482200D02*
X104614895Y-89434580D01*
X104614895Y-89434580D02*
X104662514Y-89339342D01*
X104662514Y-89339342D02*
X104662514Y-89148866D01*
X104662514Y-89148866D02*
X104614895Y-89053628D01*
X104614895Y-89053628D02*
X104567276Y-89006009D01*
X104567276Y-89006009D02*
X104472038Y-88958390D01*
X142633942Y-80684580D02*
X142586323Y-80732200D01*
X142586323Y-80732200D02*
X142443466Y-80779819D01*
X142443466Y-80779819D02*
X142348228Y-80779819D01*
X142348228Y-80779819D02*
X142205371Y-80732200D01*
X142205371Y-80732200D02*
X142110133Y-80636961D01*
X142110133Y-80636961D02*
X142062514Y-80541723D01*
X142062514Y-80541723D02*
X142014895Y-80351247D01*
X142014895Y-80351247D02*
X142014895Y-80208390D01*
X142014895Y-80208390D02*
X142062514Y-80017914D01*
X142062514Y-80017914D02*
X142110133Y-79922676D01*
X142110133Y-79922676D02*
X142205371Y-79827438D01*
X142205371Y-79827438D02*
X142348228Y-79779819D01*
X142348228Y-79779819D02*
X142443466Y-79779819D01*
X142443466Y-79779819D02*
X142586323Y-79827438D01*
X142586323Y-79827438D02*
X142633942Y-79875057D01*
X143586323Y-80779819D02*
X143014895Y-80779819D01*
X143300609Y-80779819D02*
X143300609Y-79779819D01*
X143300609Y-79779819D02*
X143205371Y-79922676D01*
X143205371Y-79922676D02*
X143110133Y-80017914D01*
X143110133Y-80017914D02*
X143014895Y-80065533D01*
X144062514Y-80779819D02*
X144252990Y-80779819D01*
X144252990Y-80779819D02*
X144348228Y-80732200D01*
X144348228Y-80732200D02*
X144395847Y-80684580D01*
X144395847Y-80684580D02*
X144491085Y-80541723D01*
X144491085Y-80541723D02*
X144538704Y-80351247D01*
X144538704Y-80351247D02*
X144538704Y-79970295D01*
X144538704Y-79970295D02*
X144491085Y-79875057D01*
X144491085Y-79875057D02*
X144443466Y-79827438D01*
X144443466Y-79827438D02*
X144348228Y-79779819D01*
X144348228Y-79779819D02*
X144157752Y-79779819D01*
X144157752Y-79779819D02*
X144062514Y-79827438D01*
X144062514Y-79827438D02*
X144014895Y-79875057D01*
X144014895Y-79875057D02*
X143967276Y-79970295D01*
X143967276Y-79970295D02*
X143967276Y-80208390D01*
X143967276Y-80208390D02*
X144014895Y-80303628D01*
X144014895Y-80303628D02*
X144062514Y-80351247D01*
X144062514Y-80351247D02*
X144157752Y-80398866D01*
X144157752Y-80398866D02*
X144348228Y-80398866D01*
X144348228Y-80398866D02*
X144443466Y-80351247D01*
X144443466Y-80351247D02*
X144491085Y-80303628D01*
X144491085Y-80303628D02*
X144538704Y-80208390D01*
X98110133Y-81942319D02*
X97633943Y-81942319D01*
X97633943Y-81942319D02*
X97633943Y-80942319D01*
X98395848Y-81037557D02*
X98443467Y-80989938D01*
X98443467Y-80989938D02*
X98538705Y-80942319D01*
X98538705Y-80942319D02*
X98776800Y-80942319D01*
X98776800Y-80942319D02*
X98872038Y-80989938D01*
X98872038Y-80989938D02*
X98919657Y-81037557D01*
X98919657Y-81037557D02*
X98967276Y-81132795D01*
X98967276Y-81132795D02*
X98967276Y-81228033D01*
X98967276Y-81228033D02*
X98919657Y-81370890D01*
X98919657Y-81370890D02*
X98348229Y-81942319D01*
X98348229Y-81942319D02*
X98967276Y-81942319D01*
X115510133Y-82667319D02*
X115176800Y-82191128D01*
X114938705Y-82667319D02*
X114938705Y-81667319D01*
X114938705Y-81667319D02*
X115319657Y-81667319D01*
X115319657Y-81667319D02*
X115414895Y-81714938D01*
X115414895Y-81714938D02*
X115462514Y-81762557D01*
X115462514Y-81762557D02*
X115510133Y-81857795D01*
X115510133Y-81857795D02*
X115510133Y-82000652D01*
X115510133Y-82000652D02*
X115462514Y-82095890D01*
X115462514Y-82095890D02*
X115414895Y-82143509D01*
X115414895Y-82143509D02*
X115319657Y-82191128D01*
X115319657Y-82191128D02*
X114938705Y-82191128D01*
X115843467Y-81667319D02*
X116510133Y-81667319D01*
X116510133Y-81667319D02*
X116081562Y-82667319D01*
X138014895Y-120779819D02*
X138014895Y-119779819D01*
X138252990Y-120875057D02*
X139014894Y-120875057D01*
X139824418Y-120684580D02*
X139776799Y-120732200D01*
X139776799Y-120732200D02*
X139633942Y-120779819D01*
X139633942Y-120779819D02*
X139538704Y-120779819D01*
X139538704Y-120779819D02*
X139395847Y-120732200D01*
X139395847Y-120732200D02*
X139300609Y-120636961D01*
X139300609Y-120636961D02*
X139252990Y-120541723D01*
X139252990Y-120541723D02*
X139205371Y-120351247D01*
X139205371Y-120351247D02*
X139205371Y-120208390D01*
X139205371Y-120208390D02*
X139252990Y-120017914D01*
X139252990Y-120017914D02*
X139300609Y-119922676D01*
X139300609Y-119922676D02*
X139395847Y-119827438D01*
X139395847Y-119827438D02*
X139538704Y-119779819D01*
X139538704Y-119779819D02*
X139633942Y-119779819D01*
X139633942Y-119779819D02*
X139776799Y-119827438D01*
X139776799Y-119827438D02*
X139824418Y-119875057D01*
X140729180Y-120779819D02*
X140252990Y-120779819D01*
X140252990Y-120779819D02*
X140252990Y-119779819D01*
X141062514Y-120779819D02*
X141062514Y-119779819D01*
X141633942Y-120779819D02*
X141205371Y-120208390D01*
X141633942Y-119779819D02*
X141062514Y-120351247D01*
X142586323Y-120779819D02*
X142014895Y-120779819D01*
X142300609Y-120779819D02*
X142300609Y-119779819D01*
X142300609Y-119779819D02*
X142205371Y-119922676D01*
X142205371Y-119922676D02*
X142110133Y-120017914D01*
X142110133Y-120017914D02*
X142014895Y-120065533D01*
X103560133Y-81947080D02*
X103512514Y-81994700D01*
X103512514Y-81994700D02*
X103369657Y-82042319D01*
X103369657Y-82042319D02*
X103274419Y-82042319D01*
X103274419Y-82042319D02*
X103131562Y-81994700D01*
X103131562Y-81994700D02*
X103036324Y-81899461D01*
X103036324Y-81899461D02*
X102988705Y-81804223D01*
X102988705Y-81804223D02*
X102941086Y-81613747D01*
X102941086Y-81613747D02*
X102941086Y-81470890D01*
X102941086Y-81470890D02*
X102988705Y-81280414D01*
X102988705Y-81280414D02*
X103036324Y-81185176D01*
X103036324Y-81185176D02*
X103131562Y-81089938D01*
X103131562Y-81089938D02*
X103274419Y-81042319D01*
X103274419Y-81042319D02*
X103369657Y-81042319D01*
X103369657Y-81042319D02*
X103512514Y-81089938D01*
X103512514Y-81089938D02*
X103560133Y-81137557D01*
X104417276Y-81042319D02*
X104226800Y-81042319D01*
X104226800Y-81042319D02*
X104131562Y-81089938D01*
X104131562Y-81089938D02*
X104083943Y-81137557D01*
X104083943Y-81137557D02*
X103988705Y-81280414D01*
X103988705Y-81280414D02*
X103941086Y-81470890D01*
X103941086Y-81470890D02*
X103941086Y-81851842D01*
X103941086Y-81851842D02*
X103988705Y-81947080D01*
X103988705Y-81947080D02*
X104036324Y-81994700D01*
X104036324Y-81994700D02*
X104131562Y-82042319D01*
X104131562Y-82042319D02*
X104322038Y-82042319D01*
X104322038Y-82042319D02*
X104417276Y-81994700D01*
X104417276Y-81994700D02*
X104464895Y-81947080D01*
X104464895Y-81947080D02*
X104512514Y-81851842D01*
X104512514Y-81851842D02*
X104512514Y-81613747D01*
X104512514Y-81613747D02*
X104464895Y-81518509D01*
X104464895Y-81518509D02*
X104417276Y-81470890D01*
X104417276Y-81470890D02*
X104322038Y-81423271D01*
X104322038Y-81423271D02*
X104131562Y-81423271D01*
X104131562Y-81423271D02*
X104036324Y-81470890D01*
X104036324Y-81470890D02*
X103988705Y-81518509D01*
X103988705Y-81518509D02*
X103941086Y-81613747D01*
X174931561Y-100225057D02*
X174836323Y-100177438D01*
X174836323Y-100177438D02*
X174741085Y-100082200D01*
X174741085Y-100082200D02*
X174598228Y-99939342D01*
X174598228Y-99939342D02*
X174502990Y-99891723D01*
X174502990Y-99891723D02*
X174407752Y-99891723D01*
X174455371Y-100129819D02*
X174360133Y-100082200D01*
X174360133Y-100082200D02*
X174264895Y-99986961D01*
X174264895Y-99986961D02*
X174217276Y-99796485D01*
X174217276Y-99796485D02*
X174217276Y-99463152D01*
X174217276Y-99463152D02*
X174264895Y-99272676D01*
X174264895Y-99272676D02*
X174360133Y-99177438D01*
X174360133Y-99177438D02*
X174455371Y-99129819D01*
X174455371Y-99129819D02*
X174645847Y-99129819D01*
X174645847Y-99129819D02*
X174741085Y-99177438D01*
X174741085Y-99177438D02*
X174836323Y-99272676D01*
X174836323Y-99272676D02*
X174883942Y-99463152D01*
X174883942Y-99463152D02*
X174883942Y-99796485D01*
X174883942Y-99796485D02*
X174836323Y-99986961D01*
X174836323Y-99986961D02*
X174741085Y-100082200D01*
X174741085Y-100082200D02*
X174645847Y-100129819D01*
X174645847Y-100129819D02*
X174455371Y-100129819D01*
X175217276Y-99129819D02*
X175836323Y-99129819D01*
X175836323Y-99129819D02*
X175502990Y-99510771D01*
X175502990Y-99510771D02*
X175645847Y-99510771D01*
X175645847Y-99510771D02*
X175741085Y-99558390D01*
X175741085Y-99558390D02*
X175788704Y-99606009D01*
X175788704Y-99606009D02*
X175836323Y-99701247D01*
X175836323Y-99701247D02*
X175836323Y-99939342D01*
X175836323Y-99939342D02*
X175788704Y-100034580D01*
X175788704Y-100034580D02*
X175741085Y-100082200D01*
X175741085Y-100082200D02*
X175645847Y-100129819D01*
X175645847Y-100129819D02*
X175360133Y-100129819D01*
X175360133Y-100129819D02*
X175264895Y-100082200D01*
X175264895Y-100082200D02*
X175217276Y-100034580D01*
X110110133Y-82684580D02*
X110062514Y-82732200D01*
X110062514Y-82732200D02*
X109919657Y-82779819D01*
X109919657Y-82779819D02*
X109824419Y-82779819D01*
X109824419Y-82779819D02*
X109681562Y-82732200D01*
X109681562Y-82732200D02*
X109586324Y-82636961D01*
X109586324Y-82636961D02*
X109538705Y-82541723D01*
X109538705Y-82541723D02*
X109491086Y-82351247D01*
X109491086Y-82351247D02*
X109491086Y-82208390D01*
X109491086Y-82208390D02*
X109538705Y-82017914D01*
X109538705Y-82017914D02*
X109586324Y-81922676D01*
X109586324Y-81922676D02*
X109681562Y-81827438D01*
X109681562Y-81827438D02*
X109824419Y-81779819D01*
X109824419Y-81779819D02*
X109919657Y-81779819D01*
X109919657Y-81779819D02*
X110062514Y-81827438D01*
X110062514Y-81827438D02*
X110110133Y-81875057D01*
X110586324Y-82779819D02*
X110776800Y-82779819D01*
X110776800Y-82779819D02*
X110872038Y-82732200D01*
X110872038Y-82732200D02*
X110919657Y-82684580D01*
X110919657Y-82684580D02*
X111014895Y-82541723D01*
X111014895Y-82541723D02*
X111062514Y-82351247D01*
X111062514Y-82351247D02*
X111062514Y-81970295D01*
X111062514Y-81970295D02*
X111014895Y-81875057D01*
X111014895Y-81875057D02*
X110967276Y-81827438D01*
X110967276Y-81827438D02*
X110872038Y-81779819D01*
X110872038Y-81779819D02*
X110681562Y-81779819D01*
X110681562Y-81779819D02*
X110586324Y-81827438D01*
X110586324Y-81827438D02*
X110538705Y-81875057D01*
X110538705Y-81875057D02*
X110491086Y-81970295D01*
X110491086Y-81970295D02*
X110491086Y-82208390D01*
X110491086Y-82208390D02*
X110538705Y-82303628D01*
X110538705Y-82303628D02*
X110586324Y-82351247D01*
X110586324Y-82351247D02*
X110681562Y-82398866D01*
X110681562Y-82398866D02*
X110872038Y-82398866D01*
X110872038Y-82398866D02*
X110967276Y-82351247D01*
X110967276Y-82351247D02*
X111014895Y-82303628D01*
X111014895Y-82303628D02*
X111062514Y-82208390D01*
X119133942Y-81434580D02*
X119086323Y-81482200D01*
X119086323Y-81482200D02*
X118943466Y-81529819D01*
X118943466Y-81529819D02*
X118848228Y-81529819D01*
X118848228Y-81529819D02*
X118705371Y-81482200D01*
X118705371Y-81482200D02*
X118610133Y-81386961D01*
X118610133Y-81386961D02*
X118562514Y-81291723D01*
X118562514Y-81291723D02*
X118514895Y-81101247D01*
X118514895Y-81101247D02*
X118514895Y-80958390D01*
X118514895Y-80958390D02*
X118562514Y-80767914D01*
X118562514Y-80767914D02*
X118610133Y-80672676D01*
X118610133Y-80672676D02*
X118705371Y-80577438D01*
X118705371Y-80577438D02*
X118848228Y-80529819D01*
X118848228Y-80529819D02*
X118943466Y-80529819D01*
X118943466Y-80529819D02*
X119086323Y-80577438D01*
X119086323Y-80577438D02*
X119133942Y-80625057D01*
X120086323Y-81529819D02*
X119514895Y-81529819D01*
X119800609Y-81529819D02*
X119800609Y-80529819D01*
X119800609Y-80529819D02*
X119705371Y-80672676D01*
X119705371Y-80672676D02*
X119610133Y-80767914D01*
X119610133Y-80767914D02*
X119514895Y-80815533D01*
X120419657Y-80529819D02*
X121038704Y-80529819D01*
X121038704Y-80529819D02*
X120705371Y-80910771D01*
X120705371Y-80910771D02*
X120848228Y-80910771D01*
X120848228Y-80910771D02*
X120943466Y-80958390D01*
X120943466Y-80958390D02*
X120991085Y-81006009D01*
X120991085Y-81006009D02*
X121038704Y-81101247D01*
X121038704Y-81101247D02*
X121038704Y-81339342D01*
X121038704Y-81339342D02*
X120991085Y-81434580D01*
X120991085Y-81434580D02*
X120943466Y-81482200D01*
X120943466Y-81482200D02*
X120848228Y-81529819D01*
X120848228Y-81529819D02*
X120562514Y-81529819D01*
X120562514Y-81529819D02*
X120467276Y-81482200D01*
X120467276Y-81482200D02*
X120419657Y-81434580D01*
X114681561Y-89462557D02*
X114586323Y-89414938D01*
X114586323Y-89414938D02*
X114491085Y-89319700D01*
X114491085Y-89319700D02*
X114348228Y-89176842D01*
X114348228Y-89176842D02*
X114252990Y-89129223D01*
X114252990Y-89129223D02*
X114157752Y-89129223D01*
X114205371Y-89367319D02*
X114110133Y-89319700D01*
X114110133Y-89319700D02*
X114014895Y-89224461D01*
X114014895Y-89224461D02*
X113967276Y-89033985D01*
X113967276Y-89033985D02*
X113967276Y-88700652D01*
X113967276Y-88700652D02*
X114014895Y-88510176D01*
X114014895Y-88510176D02*
X114110133Y-88414938D01*
X114110133Y-88414938D02*
X114205371Y-88367319D01*
X114205371Y-88367319D02*
X114395847Y-88367319D01*
X114395847Y-88367319D02*
X114491085Y-88414938D01*
X114491085Y-88414938D02*
X114586323Y-88510176D01*
X114586323Y-88510176D02*
X114633942Y-88700652D01*
X114633942Y-88700652D02*
X114633942Y-89033985D01*
X114633942Y-89033985D02*
X114586323Y-89224461D01*
X114586323Y-89224461D02*
X114491085Y-89319700D01*
X114491085Y-89319700D02*
X114395847Y-89367319D01*
X114395847Y-89367319D02*
X114205371Y-89367319D01*
X115014895Y-88462557D02*
X115062514Y-88414938D01*
X115062514Y-88414938D02*
X115157752Y-88367319D01*
X115157752Y-88367319D02*
X115395847Y-88367319D01*
X115395847Y-88367319D02*
X115491085Y-88414938D01*
X115491085Y-88414938D02*
X115538704Y-88462557D01*
X115538704Y-88462557D02*
X115586323Y-88557795D01*
X115586323Y-88557795D02*
X115586323Y-88653033D01*
X115586323Y-88653033D02*
X115538704Y-88795890D01*
X115538704Y-88795890D02*
X114967276Y-89367319D01*
X114967276Y-89367319D02*
X115586323Y-89367319D01*
D15*
%TO.C,R18*%
X147549736Y-87090000D02*
X148003864Y-87090000D01*
X147549736Y-88560000D02*
X148003864Y-88560000D01*
%TO.C,J2*%
X82276800Y-85875000D02*
X82276800Y-86985000D01*
X82276800Y-88665000D02*
X82276800Y-89775000D01*
X85986800Y-85875000D02*
X85986800Y-86985000D01*
X85986800Y-88665000D02*
X85986800Y-89775000D01*
X86536800Y-87825000D02*
X87036800Y-88075000D01*
X87036800Y-87575000D02*
X86536800Y-87825000D01*
X87036800Y-88075000D02*
X87036800Y-87575000D01*
%TO.C,U2*%
X133289300Y-112640000D02*
X132489300Y-112640000D01*
X133289300Y-112640000D02*
X134089300Y-112640000D01*
X133289300Y-115760000D02*
X132489300Y-115760000D01*
X133289300Y-115760000D02*
X134089300Y-115760000D01*
X131989300Y-112690000D02*
X131749300Y-112360000D01*
X132229300Y-112360000D01*
X131989300Y-112690000D01*
G36*
X131989300Y-112690000D02*
G01*
X131749300Y-112360000D01*
X132229300Y-112360000D01*
X131989300Y-112690000D01*
G37*
%TO.C,U4*%
X154051800Y-81110000D02*
X152101800Y-81110000D01*
X154051800Y-81110000D02*
X156001800Y-81110000D01*
X154051800Y-86230000D02*
X152101800Y-86230000D01*
X154051800Y-86230000D02*
X156001800Y-86230000D01*
X151351800Y-81205000D02*
X151111800Y-80875000D01*
X151591800Y-80875000D01*
X151351800Y-81205000D01*
G36*
X151351800Y-81205000D02*
G01*
X151111800Y-80875000D01*
X151591800Y-80875000D01*
X151351800Y-81205000D01*
G37*
%TO.C,sig4*%
X118726800Y-118825000D02*
G75*
G02*
X116326800Y-118825000I-1200000J0D01*
G01*
X116326800Y-118825000D02*
G75*
G02*
X118726800Y-118825000I1200000J0D01*
G01*
%TO.C,CLK1*%
X135476800Y-117825000D02*
G75*
G02*
X133076800Y-117825000I-1200000J0D01*
G01*
X133076800Y-117825000D02*
G75*
G02*
X135476800Y-117825000I1200000J0D01*
G01*
%TO.C,R2*%
X173041800Y-105847936D02*
X173041800Y-106302064D01*
X174511800Y-105847936D02*
X174511800Y-106302064D01*
%TO.C,R5*%
X128419636Y-111931300D02*
X128873764Y-111931300D01*
X128419636Y-113401300D02*
X128873764Y-113401300D01*
%TO.C,C16*%
X127591800Y-86836252D02*
X127591800Y-86313748D01*
X129061800Y-86836252D02*
X129061800Y-86313748D01*
%TO.C,sig2*%
X96726800Y-80325000D02*
G75*
G02*
X94326800Y-80325000I-1200000J0D01*
G01*
X94326800Y-80325000D02*
G75*
G02*
X96726800Y-80325000I1200000J0D01*
G01*
%TO.C,R25*%
X168299736Y-78840000D02*
X168753864Y-78840000D01*
X168299736Y-80310000D02*
X168753864Y-80310000D01*
D14*
%TO.C,U6*%
X150742800Y-119325000D02*
X150742800Y-116785000D01*
X150742800Y-119325000D02*
X150742800Y-138375000D01*
X181222800Y-116785000D02*
X150742800Y-116785000D01*
X181222800Y-119325000D02*
X181222800Y-116785000D01*
X181222800Y-138375000D02*
X150742800Y-138375000D01*
X181222800Y-138375000D02*
X181222800Y-119325000D01*
D15*
%TO.C,C18*%
X129841800Y-86836252D02*
X129841800Y-86313748D01*
X131311800Y-86836252D02*
X131311800Y-86313748D01*
%TO.C,C14*%
X133265500Y-109876552D02*
X133265500Y-109354048D01*
X134735500Y-109876552D02*
X134735500Y-109354048D01*
%TO.C,R1*%
X124375736Y-114181300D02*
X124829864Y-114181300D01*
X124375736Y-115651300D02*
X124829864Y-115651300D01*
%TO.C,J1*%
X177946800Y-104305000D02*
X177946800Y-96625000D01*
X180606800Y-96625000D02*
X177946800Y-96625000D01*
X180606800Y-104305000D02*
X177946800Y-104305000D01*
X180606800Y-104305000D02*
X180606800Y-96625000D01*
X180606800Y-105575000D02*
X180606800Y-106905000D01*
X180606800Y-106905000D02*
X179276800Y-106905000D01*
%TO.C,R12*%
X155549736Y-79090000D02*
X156003864Y-79090000D01*
X155549736Y-80560000D02*
X156003864Y-80560000D01*
%TO.C,C23*%
X140541800Y-90836252D02*
X140541800Y-90313748D01*
X142011800Y-90836252D02*
X142011800Y-90313748D01*
%TO.C,sig3*%
X118476800Y-114325000D02*
G75*
G02*
X116076800Y-114325000I-1200000J0D01*
G01*
X116076800Y-114325000D02*
G75*
G02*
X118476800Y-114325000I1200000J0D01*
G01*
%TO.C,U1*%
X162616800Y-98665000D02*
X163876800Y-98665000D01*
X162616800Y-102425000D02*
X162616800Y-98665000D01*
X169436800Y-98665000D02*
X168176800Y-98665000D01*
X169436800Y-102425000D02*
X169436800Y-98665000D01*
X162716800Y-103705000D02*
X162386800Y-103945000D01*
X162386800Y-103465000D01*
X162716800Y-103705000D01*
G36*
X162716800Y-103705000D02*
G01*
X162386800Y-103945000D01*
X162386800Y-103465000D01*
X162716800Y-103705000D01*
G37*
%TO.C,R14*%
X129053864Y-82090000D02*
X128599736Y-82090000D01*
X129053864Y-83560000D02*
X128599736Y-83560000D01*
%TO.C,U3*%
X138338700Y-105782700D02*
X138338700Y-106622700D01*
X138338700Y-116202700D02*
X138338700Y-115362700D01*
X141098700Y-105782700D02*
X138338700Y-105782700D01*
X141098700Y-105782700D02*
X143858700Y-105782700D01*
X141098700Y-116202700D02*
X138338700Y-116202700D01*
X141098700Y-116202700D02*
X143858700Y-116202700D01*
X143858700Y-105782700D02*
X143858700Y-106622700D01*
X143858700Y-116202700D02*
X143858700Y-115362700D01*
X137548700Y-106622700D02*
X137308700Y-106292700D01*
X137788700Y-106292700D01*
X137548700Y-106622700D01*
G36*
X137548700Y-106622700D02*
G01*
X137308700Y-106292700D01*
X137788700Y-106292700D01*
X137548700Y-106622700D01*
G37*
%TO.C,R20*%
X155799736Y-86840000D02*
X156253864Y-86840000D01*
X155799736Y-88310000D02*
X156253864Y-88310000D01*
%TO.C,GND2*%
X112226800Y-120325000D02*
G75*
G02*
X109826800Y-120325000I-1200000J0D01*
G01*
X109826800Y-120325000D02*
G75*
G02*
X112226800Y-120325000I1200000J0D01*
G01*
%TO.C,R21*%
X155799736Y-88840000D02*
X156253864Y-88840000D01*
X155799736Y-90310000D02*
X156253864Y-90310000D01*
%TO.C,C11*%
X159515548Y-79090000D02*
X160038052Y-79090000D01*
X159515548Y-80560000D02*
X160038052Y-80560000D01*
%TO.C,GND3*%
X99226800Y-119075000D02*
G75*
G02*
X96826800Y-119075000I-1200000J0D01*
G01*
X96826800Y-119075000D02*
G75*
G02*
X99226800Y-119075000I1200000J0D01*
G01*
%TO.C,R13*%
X125053864Y-82090000D02*
X124599736Y-82090000D01*
X125053864Y-83560000D02*
X124599736Y-83560000D01*
%TO.C,+5V1*%
X160476800Y-112325000D02*
G75*
G02*
X158076800Y-112325000I-1200000J0D01*
G01*
X158076800Y-112325000D02*
G75*
G02*
X160476800Y-112325000I1200000J0D01*
G01*
%TO.C,Q_CLK1*%
X145786600Y-118075000D02*
G75*
G02*
X143386600Y-118075000I-1200000J0D01*
G01*
X143386600Y-118075000D02*
G75*
G02*
X145786600Y-118075000I1200000J0D01*
G01*
%TO.C,R4*%
X128419636Y-109814800D02*
X128873764Y-109814800D01*
X128419636Y-111284800D02*
X128873764Y-111284800D01*
%TO.C,TR1*%
X118426800Y-84925000D02*
X118426800Y-85625000D01*
X118426800Y-84925000D02*
X120576800Y-84925000D01*
X118426800Y-91725000D02*
X118426800Y-91025000D01*
X118426800Y-91725000D02*
X120576800Y-91725000D01*
X126226800Y-84925000D02*
X124076800Y-84925000D01*
X126226800Y-84925000D02*
X126226800Y-85625000D01*
X126226800Y-91725000D02*
X124076800Y-91725000D01*
X126226800Y-91725000D02*
X126226800Y-91025000D01*
X118076800Y-85065000D02*
X117836800Y-84735000D01*
X118316800Y-84735000D01*
X118076800Y-85065000D01*
G36*
X118076800Y-85065000D02*
G01*
X117836800Y-84735000D01*
X118316800Y-84735000D01*
X118076800Y-85065000D01*
G37*
%TO.C,R3*%
X172049736Y-97590000D02*
X172503864Y-97590000D01*
X172049736Y-99060000D02*
X172503864Y-99060000D01*
%TO.C,C4*%
X95041800Y-84513748D02*
X95041800Y-85036252D01*
X96511800Y-84513748D02*
X96511800Y-85036252D01*
%TO.C,R23*%
X148291800Y-83052064D02*
X148291800Y-82597936D01*
X149761800Y-83052064D02*
X149761800Y-82597936D01*
%TO.C,R22*%
X158291800Y-84302064D02*
X158291800Y-83847936D01*
X159761800Y-84302064D02*
X159761800Y-83847936D01*
%TO.C,C21*%
X140541800Y-82563748D02*
X140541800Y-83086252D01*
X142011800Y-82563748D02*
X142011800Y-83086252D01*
%TO.C,C25*%
X160541800Y-84336252D02*
X160541800Y-83813748D01*
X162011800Y-84336252D02*
X162011800Y-83813748D01*
%TO.C,C1*%
X128341548Y-114181300D02*
X128864052Y-114181300D01*
X128341548Y-115651300D02*
X128864052Y-115651300D01*
%TO.C,R6*%
X169003864Y-108340000D02*
X168549736Y-108340000D01*
X169003864Y-109810000D02*
X168549736Y-109810000D01*
%TO.C,C17*%
X148038052Y-77840000D02*
X147515548Y-77840000D01*
X148038052Y-79310000D02*
X147515548Y-79310000D01*
%TO.C,L4*%
X106866800Y-84077258D02*
X106866800Y-85747742D01*
X108686800Y-84077258D02*
X108686800Y-85747742D01*
%TO.C,L3*%
X100116800Y-84077258D02*
X100116800Y-85747742D01*
X101936800Y-84077258D02*
X101936800Y-85747742D01*
%TO.C,R19*%
X147549736Y-85090000D02*
X148003864Y-85090000D01*
X147549736Y-86560000D02*
X148003864Y-86560000D01*
%TO.C,C15*%
X152038052Y-78090000D02*
X151515548Y-78090000D01*
X152038052Y-79560000D02*
X151515548Y-79560000D01*
%TO.C,R8*%
X107541800Y-90552064D02*
X107541800Y-90097936D01*
X109011800Y-90552064D02*
X109011800Y-90097936D01*
%TO.C,R11*%
X141791800Y-103802064D02*
X141791800Y-103347936D01*
X143261800Y-103802064D02*
X143261800Y-103347936D01*
%TO.C,C12*%
X112188052Y-93477500D02*
X111665548Y-93477500D01*
X112188052Y-94947500D02*
X111665548Y-94947500D01*
%TO.C,C26*%
X146041800Y-83086252D02*
X146041800Y-82563748D01*
X147511800Y-83086252D02*
X147511800Y-82563748D01*
%TO.C,GND1*%
X105262600Y-119939800D02*
G75*
G02*
X102862600Y-119939800I-1200000J0D01*
G01*
X102862600Y-119939800D02*
G75*
G02*
X105262600Y-119939800I1200000J0D01*
G01*
%TO.C,R9*%
X112153864Y-91477500D02*
X111699736Y-91477500D01*
X112153864Y-92947500D02*
X111699736Y-92947500D01*
%TO.C,C5*%
X128907952Y-107564800D02*
X128385448Y-107564800D01*
X128907952Y-109034800D02*
X128385448Y-109034800D01*
%TO.C,D1*%
X87716800Y-90762500D02*
X87716800Y-90112500D01*
X87716800Y-90762500D02*
X87716800Y-91412500D01*
X90836800Y-90762500D02*
X90836800Y-90112500D01*
X90836800Y-90762500D02*
X90836800Y-91412500D01*
X87766800Y-91925000D02*
X87436800Y-92165000D01*
X87436800Y-91685000D01*
X87766800Y-91925000D01*
G36*
X87766800Y-91925000D02*
G01*
X87436800Y-92165000D01*
X87436800Y-91685000D01*
X87766800Y-91925000D01*
G37*
%TO.C,R17*%
X167541800Y-113597936D02*
X167541800Y-114052064D01*
X169011800Y-113597936D02*
X169011800Y-114052064D01*
%TO.C,C10*%
X112041800Y-85173752D02*
X112041800Y-84651248D01*
X113511800Y-85173752D02*
X113511800Y-84651248D01*
%TO.C,C24*%
X142791800Y-90836252D02*
X142791800Y-90313748D01*
X144261800Y-90836252D02*
X144261800Y-90313748D01*
%TO.C,C3*%
X170015548Y-105840000D02*
X170538052Y-105840000D01*
X170015548Y-107310000D02*
X170538052Y-107310000D01*
%TO.C,U5*%
X136379300Y-81070000D02*
X134429300Y-81070000D01*
X136379300Y-81070000D02*
X138329300Y-81070000D01*
X136379300Y-91190000D02*
X134429300Y-91190000D01*
X136379300Y-91190000D02*
X138329300Y-91190000D01*
X133679300Y-81125000D02*
X133439300Y-80795000D01*
X133919300Y-80795000D01*
X133679300Y-81125000D01*
G36*
X133679300Y-81125000D02*
G01*
X133439300Y-80795000D01*
X133919300Y-80795000D01*
X133679300Y-81125000D01*
G37*
%TO.C,L1*%
X92466800Y-85610242D02*
X92466800Y-83939758D01*
X94286800Y-85610242D02*
X94286800Y-83939758D01*
%TO.C,FB2*%
X136924736Y-77665000D02*
X138128864Y-77665000D01*
X136924736Y-79485000D02*
X138128864Y-79485000D01*
%TO.C,C7*%
X164788052Y-105840000D02*
X164265548Y-105840000D01*
X164788052Y-107310000D02*
X164265548Y-107310000D01*
%TO.C,R24*%
X174299736Y-78840000D02*
X174753864Y-78840000D01*
X174299736Y-80310000D02*
X174753864Y-80310000D01*
%TO.C,J4*%
X164676800Y-86725000D02*
X165876800Y-86725000D01*
X164676800Y-92925000D02*
X164676800Y-86725000D01*
X169076800Y-86725000D02*
X175576800Y-86725000D01*
X173576800Y-92925000D02*
X164676800Y-92925000D01*
X175576800Y-86725000D02*
X175576800Y-84725000D01*
X178176800Y-86725000D02*
X178176800Y-84725000D01*
X178176800Y-86725000D02*
X179376800Y-86725000D01*
X179376800Y-86725000D02*
X179376800Y-87225000D01*
X179376800Y-87225000D02*
X181876800Y-87225000D01*
X179376800Y-92425000D02*
X179376800Y-92925000D01*
X179376800Y-92925000D02*
X176176800Y-92925000D01*
X181876800Y-87225000D02*
X181876800Y-92425000D01*
X181876800Y-92425000D02*
X179376800Y-92425000D01*
%TO.C,R16*%
X170791800Y-113597936D02*
X170791800Y-114052064D01*
X172261800Y-113597936D02*
X172261800Y-114052064D01*
%TO.C,C2*%
X87541800Y-86313748D02*
X87541800Y-86836252D01*
X89011800Y-86313748D02*
X89011800Y-86836252D01*
%TO.C,sig5*%
X106476800Y-79325000D02*
G75*
G02*
X104076800Y-79325000I-1200000J0D01*
G01*
X104076800Y-79325000D02*
G75*
G02*
X106476800Y-79325000I1200000J0D01*
G01*
%TO.C,FB1*%
X126128864Y-79165000D02*
X124924736Y-79165000D01*
X126128864Y-80985000D02*
X124924736Y-80985000D01*
%TO.C,C27*%
X174265548Y-81090000D02*
X174788052Y-81090000D01*
X174265548Y-82560000D02*
X174788052Y-82560000D01*
%TO.C,R10*%
X139541800Y-103802064D02*
X139541800Y-103347936D01*
X141011800Y-103802064D02*
X141011800Y-103347936D01*
%TO.C,R15*%
X174041800Y-113597936D02*
X174041800Y-114052064D01*
X175511800Y-113597936D02*
X175511800Y-114052064D01*
%TO.C,sig1*%
X85726800Y-94075000D02*
G75*
G02*
X83326800Y-94075000I-1200000J0D01*
G01*
X83326800Y-94075000D02*
G75*
G02*
X85726800Y-94075000I1200000J0D01*
G01*
%TO.C,C22*%
X142791800Y-82563748D02*
X142791800Y-83086252D01*
X144261800Y-82563748D02*
X144261800Y-83086252D01*
%TO.C,C28*%
X168788052Y-81090000D02*
X168265548Y-81090000D01*
X168788052Y-82560000D02*
X168265548Y-82560000D01*
%TO.C,D2*%
X172926800Y-110210000D02*
X176986800Y-110210000D01*
X176986800Y-107940000D02*
X172926800Y-107940000D01*
X176986800Y-110210000D02*
X176986800Y-107940000D01*
%TO.C,C20*%
X130288052Y-79340000D02*
X129765548Y-79340000D01*
X130288052Y-80810000D02*
X129765548Y-80810000D01*
%TO.C,C8*%
X104115548Y-86590000D02*
X104638052Y-86590000D01*
X104115548Y-88060000D02*
X104638052Y-88060000D01*
%TO.C,C19*%
X142288052Y-77840000D02*
X141765548Y-77840000D01*
X142288052Y-79310000D02*
X141765548Y-79310000D01*
%TO.C,L2*%
X97366800Y-85822742D02*
X97366800Y-84152258D01*
X99186800Y-85822742D02*
X99186800Y-84152258D01*
%TO.C,R7*%
X114691800Y-84735436D02*
X114691800Y-85189564D01*
X116161800Y-84735436D02*
X116161800Y-85189564D01*
%TO.C,I_CLK1*%
X141976800Y-118075000D02*
G75*
G02*
X139576800Y-118075000I-1200000J0D01*
G01*
X139576800Y-118075000D02*
G75*
G02*
X141976800Y-118075000I1200000J0D01*
G01*
%TO.C,C6*%
X103241800Y-83863748D02*
X103241800Y-84386252D01*
X104711800Y-83863748D02*
X104711800Y-84386252D01*
%TO.C,Q3*%
X172589300Y-100515000D02*
X171939300Y-100515000D01*
X172589300Y-100515000D02*
X173239300Y-100515000D01*
X172589300Y-103635000D02*
X171939300Y-103635000D01*
X172589300Y-103635000D02*
X173239300Y-103635000D01*
X171426800Y-100565000D02*
X171186800Y-100235000D01*
X171666800Y-100235000D01*
X171426800Y-100565000D01*
G36*
X171426800Y-100565000D02*
G01*
X171186800Y-100235000D01*
X171666800Y-100235000D01*
X171426800Y-100565000D01*
G37*
%TO.C,C9*%
X109541800Y-85173752D02*
X109541800Y-84651248D01*
X111011800Y-85173752D02*
X111011800Y-84651248D01*
%TO.C,C13*%
X121088052Y-82090000D02*
X120565548Y-82090000D01*
X121088052Y-83560000D02*
X120565548Y-83560000D01*
%TO.C,Q2*%
X111839300Y-87852500D02*
X111189300Y-87852500D01*
X111839300Y-87852500D02*
X112489300Y-87852500D01*
X111839300Y-90972500D02*
X111189300Y-90972500D01*
X111839300Y-90972500D02*
X112489300Y-90972500D01*
X110676800Y-87902500D02*
X110436800Y-87572500D01*
X110916800Y-87572500D01*
X110676800Y-87902500D01*
G36*
X110676800Y-87902500D02*
G01*
X110436800Y-87572500D01*
X110916800Y-87572500D01*
X110676800Y-87902500D01*
G37*
%TD*%
%LPC*%
D16*
%TO.C,R18*%
X146776800Y-87825000D03*
X148776800Y-87825000D03*
%TD*%
D17*
%TO.C,J2*%
X84076800Y-87825000D03*
D18*
X84276800Y-85000000D03*
X84276800Y-90650000D03*
%TD*%
D19*
%TO.C,U2*%
X132151800Y-113250000D03*
X132151800Y-114200000D03*
X132151800Y-115150000D03*
X134426800Y-115150000D03*
X134426800Y-113250000D03*
%TD*%
D20*
%TO.C,U4*%
X151576800Y-81765000D03*
X151576800Y-83035000D03*
X151576800Y-84305000D03*
X151576800Y-85575000D03*
X156526800Y-85575000D03*
X156526800Y-84305000D03*
X156526800Y-83035000D03*
X156526800Y-81765000D03*
%TD*%
D21*
%TO.C,sig4*%
X117526800Y-118825000D03*
%TD*%
%TO.C,CLK1*%
X134276800Y-117825000D03*
%TD*%
D22*
%TO.C,R2*%
X173776800Y-105075000D03*
X173776800Y-107075000D03*
%TD*%
D16*
%TO.C,R5*%
X127646700Y-112666300D03*
X129646700Y-112666300D03*
%TD*%
D23*
%TO.C,C16*%
X128326800Y-87612500D03*
X128326800Y-85537500D03*
%TD*%
D21*
%TO.C,sig2*%
X95526800Y-80325000D03*
%TD*%
D16*
%TO.C,R25*%
X167526800Y-79575000D03*
X169526800Y-79575000D03*
%TD*%
D24*
%TO.C,U6*%
X173856800Y-119325000D03*
X171316800Y-119325000D03*
X168776800Y-119325000D03*
X166236800Y-119325000D03*
X163696800Y-119325000D03*
X161156800Y-119325000D03*
X158616800Y-119325000D03*
D25*
X178682800Y-119325000D03*
X154044800Y-119325000D03*
%TD*%
D23*
%TO.C,C18*%
X130576800Y-87612500D03*
X130576800Y-85537500D03*
%TD*%
%TO.C,C14*%
X134000500Y-110652800D03*
X134000500Y-108577800D03*
%TD*%
D16*
%TO.C,R1*%
X123602800Y-114916300D03*
X125602800Y-114916300D03*
%TD*%
D26*
%TO.C,J1*%
X179276800Y-105575000D03*
D27*
X179276800Y-103035000D03*
X179276800Y-100495000D03*
X179276800Y-97955000D03*
%TD*%
D16*
%TO.C,R12*%
X154776800Y-79825000D03*
X156776800Y-79825000D03*
%TD*%
D23*
%TO.C,C23*%
X141276800Y-91612500D03*
X141276800Y-89537500D03*
%TD*%
D21*
%TO.C,sig3*%
X117276800Y-114325000D03*
%TD*%
D28*
%TO.C,U1*%
X163726800Y-103725000D03*
X166026800Y-103725000D03*
D29*
X166026800Y-97425000D03*
D28*
X168326800Y-103725000D03*
%TD*%
D30*
%TO.C,R14*%
X129826800Y-82825000D03*
X127826800Y-82825000D03*
%TD*%
D31*
%TO.C,U3*%
X137636200Y-107182700D03*
X137636200Y-108452700D03*
X137636200Y-109722700D03*
X137636200Y-110992700D03*
X137636200Y-112262700D03*
X137636200Y-113532700D03*
X137636200Y-114802700D03*
X144561200Y-114802700D03*
X144561200Y-113532700D03*
X144561200Y-112262700D03*
X144561200Y-110992700D03*
X144561200Y-109722700D03*
X144561200Y-108452700D03*
X144561200Y-107182700D03*
%TD*%
D16*
%TO.C,R20*%
X155026800Y-87575000D03*
X157026800Y-87575000D03*
%TD*%
D21*
%TO.C,GND2*%
X111026800Y-120325000D03*
%TD*%
D16*
%TO.C,R21*%
X155026800Y-89575000D03*
X157026800Y-89575000D03*
%TD*%
D32*
%TO.C,C11*%
X158739300Y-79825000D03*
X160814300Y-79825000D03*
%TD*%
D21*
%TO.C,GND3*%
X98026800Y-119075000D03*
%TD*%
D33*
%TO.C,H2*%
X84672400Y-79221200D03*
%TD*%
D30*
%TO.C,R13*%
X125826800Y-82825000D03*
X123826800Y-82825000D03*
%TD*%
D21*
%TO.C,+5V1*%
X159276800Y-112325000D03*
%TD*%
%TO.C,Q_CLK1*%
X144586600Y-118075000D03*
%TD*%
D16*
%TO.C,R4*%
X127646700Y-110549800D03*
X129646700Y-110549800D03*
%TD*%
D34*
%TO.C,TR1*%
X119376800Y-85785000D03*
X119376800Y-88325000D03*
X119376800Y-90865000D03*
X125311800Y-90865000D03*
X125276800Y-88325000D03*
X125311800Y-85785000D03*
%TD*%
D16*
%TO.C,R3*%
X171276800Y-98325000D03*
X173276800Y-98325000D03*
%TD*%
D35*
%TO.C,C4*%
X95776800Y-83737500D03*
X95776800Y-85812500D03*
%TD*%
D36*
%TO.C,R23*%
X149026800Y-83825000D03*
X149026800Y-81825000D03*
%TD*%
D33*
%TO.C,H3*%
X179026800Y-79575000D03*
%TD*%
D36*
%TO.C,R22*%
X159026800Y-85075000D03*
X159026800Y-83075000D03*
%TD*%
D35*
%TO.C,C21*%
X141276800Y-81787500D03*
X141276800Y-83862500D03*
%TD*%
D23*
%TO.C,C25*%
X161276800Y-85112500D03*
X161276800Y-83037500D03*
%TD*%
D32*
%TO.C,C1*%
X127565300Y-114916300D03*
X129640300Y-114916300D03*
%TD*%
D30*
%TO.C,R6*%
X169776800Y-109075000D03*
X167776800Y-109075000D03*
%TD*%
D37*
%TO.C,C17*%
X148814300Y-78575000D03*
X146739300Y-78575000D03*
%TD*%
D38*
%TO.C,L4*%
X107776800Y-83250000D03*
X107776800Y-86575000D03*
%TD*%
D33*
%TO.C,H4*%
X84776800Y-119075000D03*
%TD*%
D38*
%TO.C,L3*%
X101026800Y-83250000D03*
X101026800Y-86575000D03*
%TD*%
D16*
%TO.C,R19*%
X146776800Y-85825000D03*
X148776800Y-85825000D03*
%TD*%
D37*
%TO.C,C15*%
X152814300Y-78825000D03*
X150739300Y-78825000D03*
%TD*%
D36*
%TO.C,R8*%
X108276800Y-91325000D03*
X108276800Y-89325000D03*
%TD*%
%TO.C,R11*%
X142526800Y-104575000D03*
X142526800Y-102575000D03*
%TD*%
D37*
%TO.C,C12*%
X112964300Y-94212500D03*
X110889300Y-94212500D03*
%TD*%
D23*
%TO.C,C26*%
X146776800Y-83862500D03*
X146776800Y-81787500D03*
%TD*%
D21*
%TO.C,GND1*%
X104062600Y-119939800D03*
%TD*%
D30*
%TO.C,R9*%
X112926800Y-92212500D03*
X110926800Y-92212500D03*
%TD*%
D37*
%TO.C,C5*%
X129684200Y-108299800D03*
X127609200Y-108299800D03*
%TD*%
D39*
%TO.C,D1*%
X88326800Y-91700000D03*
X90226800Y-91700000D03*
X89276800Y-89825000D03*
%TD*%
D22*
%TO.C,R17*%
X168276800Y-112825000D03*
X168276800Y-114825000D03*
%TD*%
D23*
%TO.C,C10*%
X112776800Y-85950000D03*
X112776800Y-83875000D03*
%TD*%
%TO.C,C24*%
X143526800Y-91612500D03*
X143526800Y-89537500D03*
%TD*%
D32*
%TO.C,C3*%
X169239300Y-106575000D03*
X171314300Y-106575000D03*
%TD*%
D40*
%TO.C,U5*%
X133804300Y-81685000D03*
X133804300Y-82955000D03*
X133804300Y-84225000D03*
X133804300Y-85495000D03*
X133804300Y-86765000D03*
X133804300Y-88035000D03*
X133804300Y-89305000D03*
X133804300Y-90575000D03*
X138954300Y-90575000D03*
X138954300Y-89305000D03*
X138954300Y-88035000D03*
X138954300Y-86765000D03*
X138954300Y-85495000D03*
X138954300Y-84225000D03*
X138954300Y-82955000D03*
X138954300Y-81685000D03*
%TD*%
D41*
%TO.C,L1*%
X93376800Y-86437500D03*
X93376800Y-83112500D03*
%TD*%
D42*
%TO.C,FB2*%
X136039300Y-78575000D03*
X139014300Y-78575000D03*
%TD*%
D37*
%TO.C,C7*%
X165564300Y-106575000D03*
X163489300Y-106575000D03*
%TD*%
D16*
%TO.C,R24*%
X173526800Y-79575000D03*
X175526800Y-79575000D03*
%TD*%
D43*
%TO.C,J4*%
X175776800Y-89825000D03*
X168776800Y-89825000D03*
D44*
X174876800Y-93525000D03*
X176876800Y-86125000D03*
D45*
X167476800Y-86125000D03*
%TD*%
D22*
%TO.C,R16*%
X171526800Y-112825000D03*
X171526800Y-114825000D03*
%TD*%
D35*
%TO.C,C2*%
X88276800Y-85537500D03*
X88276800Y-87612500D03*
%TD*%
D21*
%TO.C,sig5*%
X105276800Y-79325000D03*
%TD*%
D46*
%TO.C,FB1*%
X127014300Y-80075000D03*
X124039300Y-80075000D03*
%TD*%
D32*
%TO.C,C27*%
X173489300Y-81825000D03*
X175564300Y-81825000D03*
%TD*%
D36*
%TO.C,R10*%
X140276800Y-104575000D03*
X140276800Y-102575000D03*
%TD*%
D22*
%TO.C,R15*%
X174776800Y-112825000D03*
X174776800Y-114825000D03*
%TD*%
D21*
%TO.C,sig1*%
X84526800Y-94075000D03*
%TD*%
D35*
%TO.C,C22*%
X143526800Y-81787500D03*
X143526800Y-83862500D03*
%TD*%
D37*
%TO.C,C28*%
X169564300Y-81825000D03*
X167489300Y-81825000D03*
%TD*%
D46*
%TO.C,D2*%
X176014300Y-109075000D03*
X173039300Y-109075000D03*
%TD*%
D37*
%TO.C,C20*%
X131064300Y-80075000D03*
X128989300Y-80075000D03*
%TD*%
D32*
%TO.C,C8*%
X103339300Y-87325000D03*
X105414300Y-87325000D03*
%TD*%
D37*
%TO.C,C19*%
X143064300Y-78575000D03*
X140989300Y-78575000D03*
%TD*%
D41*
%TO.C,L2*%
X98276800Y-86650000D03*
X98276800Y-83325000D03*
%TD*%
D22*
%TO.C,R7*%
X115426800Y-83962500D03*
X115426800Y-85962500D03*
%TD*%
D21*
%TO.C,I_CLK1*%
X140776800Y-118075000D03*
%TD*%
D35*
%TO.C,C6*%
X103976800Y-83087500D03*
X103976800Y-85162500D03*
%TD*%
D47*
%TO.C,Q3*%
X171651800Y-101125000D03*
X171651800Y-103025000D03*
X173526800Y-102075000D03*
%TD*%
D23*
%TO.C,C9*%
X110276800Y-85950000D03*
X110276800Y-83875000D03*
%TD*%
D37*
%TO.C,C13*%
X121864300Y-82825000D03*
X119789300Y-82825000D03*
%TD*%
D47*
%TO.C,Q2*%
X110901800Y-88462500D03*
X110901800Y-90362500D03*
X112776800Y-89412500D03*
%TD*%
%LPD*%
M02*
