M48
; DRILL file {KiCad 8.0.1} date 2024-04-06T07:23:00-0700
; FORMAT={-:-/ absolute / inch / decimal}
; #@! TF.CreationDate,2024-04-06T07:23:00-07:00
; #@! TF.GenerationSoftware,Kicad,Pcbnew,8.0.1
; #@! TF.FileFunction,Plated,1,2,PTH
FMAT,2
INCH
; #@! TA.AperFunction,Plated,PTH,ViaDrill
T1C0.0157
; #@! TA.AperFunction,Plated,PTH,ComponentDrill
T2C0.0300
; #@! TA.AperFunction,Plated,PTH,ComponentDrill
T3C0.0394
; #@! TA.AperFunction,Plated,PTH,ComponentDrill
T4C0.1008
; #@! TA.AperFunction,Plated,PTH,ComponentDrill
T5C0.1063
%
G90
G05
T1
X3.4526Y-3.8989
X3.564Y-3.4675
X3.6034Y-3.3297
X3.7116Y-3.8059
X3.7786Y-3.8409
X3.9085Y-3.5167
X4.0168Y-3.1033
X4.0385Y-3.3356
X4.1487Y-3.3356
X4.194Y-3.5659
X4.2117Y-3.4695
X4.2196Y-3.345
X4.3416Y-3.2411
X4.3908Y-3.438
X4.4302Y-3.1329
X4.5247Y-3.1088
X4.5778Y-3.6447
X4.5877Y-3.4774
X4.7845Y-3.7333
X4.7944Y-3.1919
X4.814Y-3.438
X4.814Y-3.5561
X4.9518Y-4.7077
X4.9617Y-4.4321
X4.9814Y-4.1368
X5.0011Y-3.4478
X5.1389Y-3.6152
X5.1536Y-4.5748
X5.1684Y-3.2608
X5.1881Y-4.2943
X5.1881Y-4.6289
X5.1929Y-4.1277
X5.2176Y-3.0935
X5.2668Y-3.0443
X5.3505Y-4.4764
X5.3643Y-3.2736
X5.3652Y-3.6348
X5.3948Y-3.2313
X5.4046Y-3.1624
X5.4046Y-3.6742
X5.4083Y-3.3186
X5.4144Y-4.6388
X5.4784Y-4.3189
X5.4954Y-4.4178
X5.5224Y-4.2878
X5.5276Y-4.3583
X5.5522Y-3.4183
X5.5621Y-3.3494
X5.5621Y-3.9006
X5.5674Y-4.5318
X5.5818Y-3.6939
X5.6204Y-4.3188
X5.6211Y-3.4675
X5.6211Y-4.2156
X5.631Y-4.5896
X5.7004Y-3.3883
X5.7097Y-3.1033
X5.7097Y-3.438
X5.7885Y-4.4813
X5.7983Y-3.7234
X5.8574Y-3.1624
X5.8672Y-4.7274
X5.9361Y-3.1624
X5.9361Y-3.438
X5.9361Y-3.6644
X5.9558Y-3.5069
X6.0247Y-3.1624
X6.0444Y-3.94
X6.0542Y-3.2215
X6.064Y-3.2904
X6.0837Y-3.0738
X6.1526Y-3.812
X6.1526Y-3.9104
X6.1822Y-3.0541
X6.2806Y-4.1959
X6.3003Y-3.625
X6.3495Y-4.6191
X6.3495Y-4.7667
X6.3889Y-3.2018
X6.4381Y-3.1624
X6.4479Y-4.3533
X6.4577Y-3.0738
X6.4577Y-3.9793
X6.4676Y-3.251
X6.4971Y-4.5699
X6.507Y-3.1033
X6.5266Y-3.1919
X6.5955Y-4.1959
X6.6644Y-3.9793
X6.694Y-3.3888
X6.7137Y-3.6053
X6.7137Y-4.6191
X6.7333Y-4.1073
X6.753Y-3.123
X6.8022Y-4.6289
X6.8121Y-3.3789
X6.8613Y-4.3632
X6.9105Y-4.2156
X6.9203Y-3.8415
X6.9302Y-3.0541
X6.9302Y-4.3632
X6.9597Y-3.999
X7.0089Y-3.5463
X7.0483Y-4.4518
X7.1074Y-3.31
T2
X6.2448Y-4.6978
X6.3448Y-4.6978
X6.4448Y-4.6978
X6.5448Y-4.6978
X6.6448Y-4.6978
X6.7448Y-4.6978
X6.8448Y-4.6978
T3
X3.3278Y-3.7037
X3.7609Y-3.1624
X3.8593Y-4.688
X4.097Y-4.722
X4.1448Y-3.123
X4.3711Y-4.7372
X4.6172Y-4.501
X4.627Y-4.6781
X5.2865Y-4.6388
X5.5424Y-4.6486
X5.6924Y-4.6486
X6.2707Y-4.4222
X7.0581Y-3.8565
X7.0581Y-3.9565
X7.0581Y-4.0565
X7.0581Y-4.1565
T4
X6.0648Y-4.6978
X7.0348Y-4.6978
T5
X3.3336Y-3.1189
X3.3377Y-4.688
X7.0483Y-3.1329
M30
