M48
; DRILL file {KiCad 7.0.10-7.0.10~ubuntu22.04.1} date Fri 15 Mar 2024 04:54:45 PM PDT
; FORMAT={-:-/ absolute / inch / decimal}
; #@! TF.CreationDate,2024-03-15T16:54:45-07:00
; #@! TF.GenerationSoftware,Kicad,Pcbnew,7.0.10-7.0.10~ubuntu22.04.1
; #@! TF.FileFunction,Plated,1,2,PTH
FMAT,2
INCH
; #@! TA.AperFunction,Plated,PTH,ViaDrill
T1C0.0157
; #@! TA.AperFunction,Plated,PTH,ComponentDrill
T2C0.0394
; #@! TA.AperFunction,Plated,PTH,ComponentDrill
T3C0.1063
%
G90
G05
T1
X3.4526Y-3.8989
X3.4702Y-4.6199
X3.5056Y-3.1549
X3.6746Y-4.6609
X3.7116Y-3.8059
X3.7302Y-4.4679
X3.7786Y-3.8409
X3.9272Y-4.2184
X3.9572Y-4.3989
X3.9612Y-4.5179
X3.9806Y-3.1729
X3.9892Y-4.2184
X4.1322Y-4.3144
X4.1532Y-4.2514
X4.1592Y-4.1844
X4.2042Y-4.4284
X4.2572Y-4.2154
X4.3566Y-3.8529
X4.3716Y-4.0549
X4.3802Y-4.5164
X4.5346Y-3.9949
X4.5736Y-4.1219
X4.5776Y-3.2089
X4.6756Y-4.2949
X4.6806Y-4.4089
X4.7196Y-3.2679
X4.7456Y-3.8519
X4.8506Y-3.6119
X4.8936Y-3.9589
X4.9696Y-3.7389
X4.9866Y-4.3899
X5.1116Y-4.1059
X5.1396Y-3.7659
X5.1506Y-3.6199
X5.1906Y-4.1769
X5.3356Y-3.7049
X5.3796Y-3.7499
X5.4556Y-4.0949
X5.5216Y-3.8473
X5.5336Y-3.8049
X5.5356Y-3.9349
X5.6506Y-4.3339
X5.6866Y-3.4839
X5.8186Y-3.1009
X5.8316Y-3.9359
X5.8646Y-4.6379
X5.9026Y-4.1529
X5.9366Y-3.4399
X5.9616Y-4.0879
X5.9626Y-4.2029
X6.0106Y-4.6239
X6.1746Y-3.6099
X6.1766Y-4.1529
X6.2136Y-4.0369
X6.2206Y-3.5149
X6.2376Y-3.8139
X6.2486Y-3.7399
X6.3476Y-3.9069
X6.5246Y-3.7309
X6.6446Y-4.1119
X6.7278Y-3.9721
X6.8006Y-4.5179
X6.9288Y-3.4801
X7.0756Y-4.3889
T2
X3.2946Y-3.7069
X3.3302Y-4.1064
X3.3312Y-4.2816
X3.3312Y-4.3816
X4.1822Y-4.6229
X4.3292Y-4.6244
X5.4426Y-4.6539
X5.8036Y-4.4438
X5.9036Y-4.4438
X6.5856Y-3.1989
X6.5956Y-4.7029
X6.7988Y-3.5961
X6.8138Y-4.1761
X7.0676Y-3.8329
X7.0676Y-3.9329
X7.0676Y-4.0329
T3
X3.3336Y-3.1189
X3.3406Y-4.6789
X7.0406Y-4.6949
X7.0436Y-3.1389
M30
