%TF.GenerationSoftware,KiCad,Pcbnew,7.0.10-7.0.10~ubuntu22.04.1*%
%TF.CreationDate,2024-03-15T16:54:52-07:00*%
%TF.ProjectId,kiss_sdr_r1,6b697373-5f73-4647-925f-72312e6b6963,rev?*%
%TF.SameCoordinates,Original*%
%TF.FileFunction,Soldermask,Top*%
%TF.FilePolarity,Negative*%
%FSLAX46Y46*%
G04 Gerber Fmt 4.6, Leading zero omitted, Abs format (unit mm)*
G04 Created by KiCad (PCBNEW 7.0.10-7.0.10~ubuntu22.04.1) date 2024-03-15 16:54:52*
%MOMM*%
%LPD*%
G01*
G04 APERTURE LIST*
G04 Aperture macros list*
%AMRoundRect*
0 Rectangle with rounded corners*
0 $1 Rounding radius*
0 $2 $3 $4 $5 $6 $7 $8 $9 X,Y pos of 4 corners*
0 Add a 4 corners polygon primitive as box body*
4,1,4,$2,$3,$4,$5,$6,$7,$8,$9,$2,$3,0*
0 Add four circle primitives for the rounded corners*
1,1,$1+$1,$2,$3*
1,1,$1+$1,$4,$5*
1,1,$1+$1,$6,$7*
1,1,$1+$1,$8,$9*
0 Add four rect primitives between the rounded corners*
20,1,$1+$1,$2,$3,$4,$5,0*
20,1,$1+$1,$4,$5,$6,$7,0*
20,1,$1+$1,$6,$7,$8,$9,0*
20,1,$1+$1,$8,$9,$2,$3,0*%
G04 Aperture macros list end*
%ADD10RoundRect,0.250000X-0.400000X-0.625000X0.400000X-0.625000X0.400000X0.625000X-0.400000X0.625000X0*%
%ADD11RoundRect,0.150000X-0.512500X-0.150000X0.512500X-0.150000X0.512500X0.150000X-0.512500X0.150000X0*%
%ADD12C,2.000000*%
%ADD13R,1.700000X0.650000*%
%ADD14RoundRect,0.250000X0.650000X-0.412500X0.650000X0.412500X-0.650000X0.412500X-0.650000X-0.412500X0*%
%ADD15RoundRect,0.250000X-0.625000X0.400000X-0.625000X-0.400000X0.625000X-0.400000X0.625000X0.400000X0*%
%ADD16RoundRect,0.250000X-0.412500X-0.650000X0.412500X-0.650000X0.412500X0.650000X-0.412500X0.650000X0*%
%ADD17RoundRect,0.225000X-0.375000X0.225000X-0.375000X-0.225000X0.375000X-0.225000X0.375000X0.225000X0*%
%ADD18RoundRect,0.250000X-0.650000X0.412500X-0.650000X-0.412500X0.650000X-0.412500X0.650000X0.412500X0*%
%ADD19RoundRect,0.150000X-0.837500X-0.150000X0.837500X-0.150000X0.837500X0.150000X-0.837500X0.150000X0*%
%ADD20RoundRect,0.250000X0.412500X0.650000X-0.412500X0.650000X-0.412500X-0.650000X0.412500X-0.650000X0*%
%ADD21C,4.500000*%
%ADD22RoundRect,0.250000X0.400000X0.625000X-0.400000X0.625000X-0.400000X-0.625000X0.400000X-0.625000X0*%
%ADD23RoundRect,0.150000X-0.587500X-0.150000X0.587500X-0.150000X0.587500X0.150000X-0.587500X0.150000X0*%
%ADD24RoundRect,0.225000X0.375000X-0.225000X0.375000X0.225000X-0.375000X0.225000X-0.375000X-0.225000X0*%
%ADD25R,1.520000X1.270000*%
%ADD26RoundRect,0.250000X0.625000X-0.400000X0.625000X0.400000X-0.625000X0.400000X-0.625000X-0.400000X0*%
%ADD27RoundRect,0.250000X-0.400000X-1.075000X0.400000X-1.075000X0.400000X1.075000X-0.400000X1.075000X0*%
%ADD28RoundRect,0.150000X-0.725000X-0.150000X0.725000X-0.150000X0.725000X0.150000X-0.725000X0.150000X0*%
%ADD29RoundRect,0.250000X-1.100000X0.412500X-1.100000X-0.412500X1.100000X-0.412500X1.100000X0.412500X0*%
%ADD30RoundRect,0.250001X-0.462499X-0.624999X0.462499X-0.624999X0.462499X0.624999X-0.462499X0.624999X0*%
%ADD31R,1.700000X1.700000*%
%ADD32O,1.700000X1.700000*%
%ADD33R,4.200000X1.350000*%
%ADD34R,3.600000X1.270000*%
G04 APERTURE END LIST*
D10*
%TO.C,R6*%
X149975200Y-101192200D03*
X153075200Y-101192200D03*
%TD*%
D11*
%TO.C,U4*%
X95031900Y-110275200D03*
X95031900Y-111225200D03*
X95031900Y-112175200D03*
X97306900Y-112175200D03*
X97306900Y-110275200D03*
%TD*%
D12*
%TO.C,CLK1*%
X84587000Y-104303700D03*
%TD*%
D13*
%TO.C,U1*%
X156181000Y-94994600D03*
X156181000Y-96264600D03*
X156181000Y-97534600D03*
X156181000Y-98804600D03*
X163481000Y-98804600D03*
X163481000Y-97534600D03*
X163481000Y-96264600D03*
X163481000Y-94994600D03*
%TD*%
D10*
%TO.C,R19*%
X89234600Y-111695100D03*
X92334600Y-111695100D03*
%TD*%
D14*
%TO.C,C2*%
X130189200Y-87667100D03*
X130189200Y-84542100D03*
%TD*%
D15*
%TO.C,R13*%
X172918150Y-99655300D03*
X172918150Y-102755300D03*
%TD*%
D14*
%TO.C,C3*%
X132678400Y-87667100D03*
X132678400Y-84542100D03*
%TD*%
%TO.C,C26*%
X96880600Y-108203000D03*
X96880600Y-105078000D03*
%TD*%
D16*
%TO.C,C21*%
X153264700Y-107288200D03*
X156389700Y-107288200D03*
%TD*%
D17*
%TO.C,D1*%
X88863400Y-89230800D03*
X88863400Y-92530800D03*
%TD*%
D10*
%TO.C,R3*%
X124372000Y-84707600D03*
X127472000Y-84707600D03*
%TD*%
D18*
%TO.C,C16*%
X107684800Y-90561900D03*
X107684800Y-93686900D03*
%TD*%
D19*
%TO.C,U3*%
X103011200Y-104557700D03*
X103011200Y-105827700D03*
X103011200Y-107097700D03*
X103011200Y-108367700D03*
X103011200Y-109637700D03*
X103011200Y-110907700D03*
X103011200Y-112177700D03*
X109936200Y-112177700D03*
X109936200Y-110907700D03*
X109936200Y-109637700D03*
X109936200Y-108367700D03*
X109936200Y-107097700D03*
X109936200Y-105827700D03*
X109936200Y-104557700D03*
%TD*%
D10*
%TO.C,R12*%
X160363800Y-102106600D03*
X163463800Y-102106600D03*
%TD*%
D12*
%TO.C,GND3*%
X138241000Y-118210200D03*
%TD*%
D10*
%TO.C,R14*%
X160363800Y-104672000D03*
X163463800Y-104672000D03*
%TD*%
D20*
%TO.C,C25*%
X163552500Y-92353000D03*
X160427500Y-92353000D03*
%TD*%
D12*
%TO.C,GND2*%
X167273200Y-81253200D03*
%TD*%
D21*
%TO.C,H2*%
X84672400Y-79221200D03*
%TD*%
D22*
%TO.C,R1*%
X127598400Y-87577800D03*
X124498400Y-87577800D03*
%TD*%
D23*
%TO.C,Q1*%
X122294400Y-104941200D03*
X122294400Y-106841200D03*
X124169400Y-105891200D03*
%TD*%
D12*
%TO.C,Q_CLK1*%
X109961600Y-117460900D03*
%TD*%
D24*
%TO.C,D2*%
X91530400Y-92480000D03*
X91530400Y-89180000D03*
%TD*%
D10*
%TO.C,R18*%
X89310800Y-105853100D03*
X92410800Y-105853100D03*
%TD*%
D25*
%TO.C,TR1*%
X122654000Y-93318200D03*
X122654000Y-95858200D03*
X122654000Y-98398200D03*
X128589000Y-98398200D03*
X128554000Y-95858200D03*
X128589000Y-93318200D03*
%TD*%
D20*
%TO.C,C24*%
X110050900Y-101433500D03*
X106925900Y-101433500D03*
%TD*%
%TO.C,C12*%
X100827200Y-87043400D03*
X97702200Y-87043400D03*
%TD*%
D26*
%TO.C,R5*%
X153049200Y-96265200D03*
X153049200Y-93165200D03*
%TD*%
D21*
%TO.C,H3*%
X178906400Y-79729200D03*
%TD*%
D26*
%TO.C,R10*%
X166130200Y-99541800D03*
X166130200Y-96441800D03*
%TD*%
D14*
%TO.C,C9*%
X146115000Y-104075500D03*
X146115000Y-100950500D03*
%TD*%
%TO.C,C14*%
X168670200Y-99579700D03*
X168670200Y-96454700D03*
%TD*%
D16*
%TO.C,C23*%
X89120500Y-108812200D03*
X92245500Y-108812200D03*
%TD*%
D22*
%TO.C,R20*%
X156148600Y-110488600D03*
X153048600Y-110488600D03*
%TD*%
D27*
%TO.C,L2*%
X109309800Y-87298400D03*
X112409800Y-87298400D03*
%TD*%
D21*
%TO.C,H4*%
X84850200Y-118845200D03*
%TD*%
D27*
%TO.C,L1*%
X103315400Y-87222200D03*
X106415400Y-87222200D03*
%TD*%
D10*
%TO.C,R8*%
X150102200Y-98703000D03*
X153202200Y-98703000D03*
%TD*%
D18*
%TO.C,C15*%
X103595400Y-90536500D03*
X103595400Y-93661500D03*
%TD*%
D12*
%TO.C,I_SIG1*%
X172689550Y-91339700D03*
%TD*%
D22*
%TO.C,R11*%
X125211400Y-109167800D03*
X122111400Y-109167800D03*
%TD*%
D10*
%TO.C,R17*%
X114186600Y-111987200D03*
X117286600Y-111987200D03*
%TD*%
D16*
%TO.C,C19*%
X122022700Y-114222400D03*
X125147700Y-114222400D03*
%TD*%
D14*
%TO.C,C4*%
X150483800Y-96226900D03*
X150483800Y-93101900D03*
%TD*%
D12*
%TO.C,GND1*%
X167527200Y-119454800D03*
%TD*%
D10*
%TO.C,R15*%
X122009800Y-111606200D03*
X125109800Y-111606200D03*
%TD*%
D20*
%TO.C,C22*%
X92372500Y-103148000D03*
X89247500Y-103148000D03*
%TD*%
D14*
%TO.C,C13*%
X114923800Y-90245600D03*
X114923800Y-87120600D03*
%TD*%
D26*
%TO.C,R2*%
X118530600Y-95376200D03*
X118530600Y-92276200D03*
%TD*%
D18*
%TO.C,C10*%
X146064200Y-95641900D03*
X146064200Y-98766900D03*
%TD*%
D22*
%TO.C,R9*%
X124220800Y-102538400D03*
X121120800Y-102538400D03*
%TD*%
D28*
%TO.C,U2*%
X133075200Y-92641200D03*
X133075200Y-93911200D03*
X133075200Y-95181200D03*
X133075200Y-96451200D03*
X133075200Y-97721200D03*
X133075200Y-98991200D03*
X133075200Y-100261200D03*
X133075200Y-101531200D03*
X138225200Y-101531200D03*
X138225200Y-100261200D03*
X138225200Y-98991200D03*
X138225200Y-97721200D03*
X138225200Y-96451200D03*
X138225200Y-95181200D03*
X138225200Y-93911200D03*
X138225200Y-92641200D03*
%TD*%
D29*
%TO.C,L3*%
X94692700Y-86547700D03*
X94692700Y-89672700D03*
%TD*%
D30*
%TO.C,FB1*%
X135813700Y-87577800D03*
X138788700Y-87577800D03*
%TD*%
D26*
%TO.C,R7*%
X172740350Y-97548300D03*
X172740350Y-94448300D03*
%TD*%
D20*
%TO.C,C11*%
X91759400Y-86891000D03*
X88634400Y-86891000D03*
%TD*%
D21*
%TO.C,H1*%
X178830200Y-119251600D03*
%TD*%
D31*
%TO.C,J4*%
X147410400Y-112873400D03*
D32*
X149950400Y-112873400D03*
%TD*%
D14*
%TO.C,C8*%
X126760200Y-106717100D03*
X126760200Y-103592100D03*
%TD*%
D18*
%TO.C,C7*%
X175356550Y-94486600D03*
X175356550Y-97611600D03*
%TD*%
D10*
%TO.C,R16*%
X114008800Y-109117000D03*
X117108800Y-109117000D03*
%TD*%
D31*
%TO.C,J2*%
X179516000Y-102436800D03*
D32*
X179516000Y-99896800D03*
X179516000Y-97356800D03*
%TD*%
D12*
%TO.C,sig1*%
X83681800Y-94156400D03*
%TD*%
%TO.C,Q_SIG1*%
X173070550Y-106071700D03*
%TD*%
D26*
%TO.C,R4*%
X118479800Y-100710200D03*
X118479800Y-97610200D03*
%TD*%
D16*
%TO.C,C20*%
X153188500Y-103808400D03*
X156313500Y-103808400D03*
%TD*%
D14*
%TO.C,C18*%
X175458150Y-102844000D03*
X175458150Y-99719000D03*
%TD*%
D30*
%TO.C,D3*%
X153136500Y-113104800D03*
X156111500Y-113104800D03*
%TD*%
D20*
%TO.C,C6*%
X138851400Y-85012400D03*
X135726400Y-85012400D03*
%TD*%
D16*
%TO.C,C5*%
X135764100Y-90346400D03*
X138889100Y-90346400D03*
%TD*%
D31*
%TO.C,J3*%
X84612400Y-111293700D03*
D32*
X84612400Y-108753700D03*
%TD*%
D12*
%TO.C,I_CLK1*%
X106227800Y-117422800D03*
%TD*%
D18*
%TO.C,C17*%
X111926600Y-90561900D03*
X111926600Y-93686900D03*
%TD*%
D20*
%TO.C,C1*%
X127713100Y-90346400D03*
X124588100Y-90346400D03*
%TD*%
D33*
%TO.C,J1*%
X84139000Y-89234400D03*
X84139000Y-83584400D03*
D34*
X83939000Y-86409400D03*
%TD*%
M02*
